Courier Prime Bold.ufo
<glyph name="quotedbl" format="1">
  <advance width="1228"/>
  <unicode hex="0022"/>
  <outline>
    <contour>
      <point x="509" y="1209" type="line" smooth="yes"/>
      <point x="532" y="1209"/>
      <point x="554" y="1185"/>
      <point x="550" y="1159" type="qcurve" smooth="yes"/>
      <point x="477" y="679" type="line" smooth="yes"/>
      <point x="472" y="648"/>
      <point x="433" y="611"/>
      <point x="384" y="611" type="qcurve" smooth="yes"/>
      <point x="335" y="611"/>
      <point x="296" y="648"/>
      <point x="291" y="679" type="qcurve" smooth="yes"/>
      <point x="218" y="1159" type="line" smooth="yes"/>
      <point x="214" y="1185"/>
      <point x="236" y="1209"/>
      <point x="259" y="1209" type="qcurve" smooth="yes"/>
    </contour>
    <contour>
      <point x="969" y="1209" type="line" smooth="yes"/>
      <point x="992" y="1209"/>
      <point x="1014" y="1185"/>
      <point x="1010" y="1159" type="qcurve" smooth="yes"/>
      <point x="937" y="679" type="line" smooth="yes"/>
      <point x="932" y="648"/>
      <point x="893" y="611"/>
      <point x="844" y="611" type="qcurve" smooth="yes"/>
      <point x="795" y="611"/>
      <point x="756" y="648"/>
      <point x="751" y="679" type="qcurve" smooth="yes"/>
      <point x="678" y="1159" type="line" smooth="yes"/>
      <point x="674" y="1185"/>
      <point x="696" y="1209"/>
      <point x="719" y="1209" type="qcurve" smooth="yes"/>
    </contour>
  </outline>
</glyph>
<glyph name="numbersign" format="1">
  <advance width="1228"/>
  <unicode hex="0023"/>
  <outline>
    <contour>
      <point x="438" y="940" type="line"/>
      <point x="512" y="1176" type="line" smooth="yes"/>
      <point x="517" y="1193"/>
      <point x="560" y="1209"/>
      <point x="586" y="1209" type="qcurve" smooth="yes"/>
      <point x="607" y="1209"/>
      <point x="651" y="1200"/>
      <point x="667.5" y="1191.0" type="qcurve" smooth="yes" name="inserted"/>
      <point x="684" y="1182"/>
      <point x="701" y="1157"/>
      <point x="696" y="1142" type="qcurve" smooth="yes"/>
      <point x="633" y="940" type="line"/>
      <point x="812" y="940" type="line"/>
      <point x="886" y="1176" type="line" smooth="yes"/>
      <point x="891" y="1193"/>
      <point x="934" y="1209"/>
      <point x="960" y="1209" type="qcurve" smooth="yes"/>
      <point x="981" y="1209"/>
      <point x="1025" y="1200"/>
      <point x="1041.5" y="1191.0" type="qcurve" smooth="yes" name="inserted"/>
      <point x="1058" y="1182"/>
      <point x="1075" y="1157"/>
      <point x="1070" y="1142" type="qcurve" smooth="yes"/>
      <point x="1007" y="940" type="line"/>
      <point x="1125" y="940" type="line" smooth="yes"/>
      <point x="1142" y="940"/>
      <point x="1166" y="931"/>
      <point x="1173.5" y="919.0" type="qcurve" smooth="yes" name="inserted"/>
      <point x="1181" y="907"/>
      <point x="1188" y="863"/>
      <point x="1188" y="827" type="qcurve" smooth="yes"/>
      <point x="1188" y="791"/>
      <point x="1181" y="747"/>
      <point x="1173.5" y="735.0" type="qcurve" smooth="yes" name="inserted"/>
      <point x="1166" y="723"/>
      <point x="1142" y="715"/>
      <point x="1125" y="715" type="qcurve" smooth="yes"/>
      <point x="936" y="715" type="line"/>
      <point x="863" y="482" type="line"/>
      <point x="1025" y="482" type="line" smooth="yes"/>
      <point x="1042" y="482"/>
      <point x="1066" y="473"/>
      <point x="1073.5" y="461.0" type="qcurve" smooth="yes" name="inserted"/>
      <point x="1081" y="449"/>
      <point x="1088" y="405"/>
      <point x="1088" y="369" type="qcurve" smooth="yes"/>
      <point x="1088" y="333"/>
      <point x="1081" y="289"/>
      <point x="1073.5" y="277.0" type="qcurve" smooth="yes" name="inserted"/>
      <point x="1066" y="265"/>
      <point x="1042" y="257"/>
      <point x="1025" y="257" type="qcurve" smooth="yes"/>
      <point x="793" y="257" type="line"/>
      <point x="716" y="11" type="line" smooth="yes"/>
      <point x="711" y="-6"/>
      <point x="668" y="-22"/>
      <point x="642" y="-22" type="qcurve" smooth="yes"/>
      <point x="621" y="-22"/>
      <point x="577" y="-13"/>
      <point x="560.5" y="-4.0" type="qcurve" smooth="yes" name="inserted"/>
      <point x="544" y="5"/>
      <point x="527" y="30"/>
      <point x="532" y="45" type="qcurve" smooth="yes"/>
      <point x="598" y="257" type="line"/>
      <point x="419" y="257" type="line"/>
      <point x="342" y="11" type="line" smooth="yes"/>
      <point x="337" y="-6"/>
      <point x="294" y="-22"/>
      <point x="268" y="-22" type="qcurve" smooth="yes"/>
      <point x="247" y="-22"/>
      <point x="203" y="-13"/>
      <point x="186.5" y="-4.0" type="qcurve" smooth="yes" name="inserted"/>
      <point x="170" y="5"/>
      <point x="153" y="30"/>
      <point x="158" y="45" type="qcurve" smooth="yes"/>
      <point x="224" y="257" type="line"/>
      <point x="103" y="257" type="line" smooth="yes"/>
      <point x="86" y="257"/>
      <point x="62" y="265"/>
      <point x="54.5" y="277.0" type="qcurve" smooth="yes" name="inserted"/>
      <point x="47" y="289"/>
      <point x="40" y="333"/>
      <point x="40" y="369" type="qcurve" smooth="yes"/>
      <point x="40" y="405"/>
      <point x="47" y="449"/>
      <point x="54.5" y="461.0" type="qcurve" smooth="yes" name="inserted"/>
      <point x="62" y="473"/>
      <point x="86" y="482"/>
      <point x="103" y="482" type="qcurve" smooth="yes"/>
      <point x="295" y="482" type="line"/>
      <point x="368" y="715" type="line"/>
      <point x="203" y="715" type="line" smooth="yes"/>
      <point x="186" y="715"/>
      <point x="162" y="723"/>
      <point x="154.5" y="735.0" type="qcurve" smooth="yes" name="inserted"/>
      <point x="147" y="747"/>
      <point x="140" y="791"/>
      <point x="140" y="827" type="qcurve" smooth="yes"/>
      <point x="140" y="863"/>
      <point x="147" y="907"/>
      <point x="154.5" y="919.0" type="qcurve" smooth="yes" name="inserted"/>
      <point x="162" y="931"/>
      <point x="186" y="940"/>
      <point x="203" y="940" type="qcurve" smooth="yes"/>
    </contour>
    <contour>
      <point x="489" y="482" type="line"/>
      <point x="669" y="482" type="line"/>
      <point x="742" y="715" type="line"/>
      <point x="562" y="715" type="line"/>
    </contour>
  </outline>
</glyph>
<glyph name="dollar" format="1">
  <advance width="1228"/>
  <unicode hex="0024"/>
  <outline>
    <contour>
      <point x="414" y="181" type="line" smooth="yes"/>
      <point x="414" y="147"/>
      <point x="356" y="118"/>
      <point x="292" y="118" type="qcurve" smooth="yes"/>
      <point x="228" y="118"/>
      <point x="174" y="147"/>
      <point x="174" y="181" type="qcurve" smooth="yes"/>
      <point x="174" y="404" type="line" smooth="yes"/>
      <point x="174" y="438"/>
      <point x="221" y="467"/>
      <point x="270" y="467" type="qcurve" smooth="yes"/>
      <point x="303" y="467"/>
      <point x="342" y="453"/>
      <point x="353" y="439" type="qcurve" smooth="yes"/>
      <point x="385" y="399"/>
      <point x="467" y="349"/>
      <point x="515" y="335" type="qcurve"/>
      <point x="515" y="496" type="line"/>
      <point x="458" y="505"/>
      <point x="349" y="534"/>
      <point x="302" y="560" type="qcurve" smooth="yes"/>
      <point x="242" y="593"/>
      <point x="164" y="707"/>
      <point x="164" y="800" type="qcurve" smooth="yes"/>
      <point x="164" y="866"/>
      <point x="217" y="970"/>
      <point x="264.0" y="1007.0" type="qcurve" smooth="yes" name="inserted"/>
      <point x="311" y="1044"/>
      <point x="440" y="1084"/>
      <point x="515" y="1086" type="qcurve"/>
      <point x="515" y="1249" type="line" smooth="yes"/>
      <point x="515" y="1283"/>
      <point x="552" y="1312"/>
      <point x="608" y="1312" type="qcurve" smooth="yes"/>
      <point x="664" y="1312"/>
      <point x="701" y="1283"/>
      <point x="701" y="1249" type="qcurve" smooth="yes"/>
      <point x="701" y="1058" type="line"/>
      <point x="725.5" y="1049.0" name="inserted"/>
      <point x="772.0" y="1026.5"/>
      <point x="794" y="1013" type="qcurve"/>
      <point x="794" y="1023" type="line" smooth="yes"/>
      <point x="794" y="1057"/>
      <point x="842" y="1086"/>
      <point x="906" y="1086" type="qcurve" smooth="yes"/>
      <point x="970" y="1086"/>
      <point x="1024" y="1057"/>
      <point x="1024" y="1023" type="qcurve" smooth="yes"/>
      <point x="1024" y="812" type="line" smooth="yes"/>
      <point x="1024" y="778"/>
      <point x="981" y="749"/>
      <point x="932" y="749" type="qcurve" smooth="yes"/>
      <point x="905.5" y="749.0" name="inserted"/>
      <point x="869.0" y="759.5"/>
      <point x="859" y="770" type="qcurve" smooth="yes"/>
      <point x="824" y="807"/>
      <point x="746" y="853"/>
      <point x="701" y="867" type="qcurve"/>
      <point x="701" y="721" type="line"/>
      <point x="752" y="715"/>
      <point x="854" y="694"/>
      <point x="900" y="675" type="qcurve" smooth="yes"/>
      <point x="936" y="660"/>
      <point x="999" y="617"/>
      <point x="1021.5" y="587.0" type="qcurve" smooth="yes" name="inserted"/>
      <point x="1044" y="557"/>
      <point x="1070" y="478"/>
      <point x="1070" y="427" type="qcurve" smooth="yes"/>
      <point x="1070" y="359"/>
      <point x="1021" y="248"/>
      <point x="974.0" y="208.0" type="qcurve" smooth="yes" name="inserted"/>
      <point x="927" y="168"/>
      <point x="790" y="121"/>
      <point x="701" y="118" type="qcurve"/>
      <point x="701" y="-62" type="line" smooth="yes"/>
      <point x="701" y="-96"/>
      <point x="664" y="-125"/>
      <point x="608" y="-125" type="qcurve" smooth="yes"/>
      <point x="552" y="-125"/>
      <point x="515" y="-96"/>
      <point x="515" y="-62" type="qcurve" smooth="yes"/>
      <point x="515" y="142" type="line"/>
      <point x="487" y="151"/>
      <point x="437" y="175"/>
      <point x="414" y="189" type="qcurve"/>
    </contour>
    <contour>
      <point x="701" y="470" type="line"/>
      <point x="701" y="320" type="line"/>
      <point x="758" y="326"/>
      <point x="812" y="367"/>
      <point x="812" y="401" type="qcurve" smooth="yes"/>
      <point x="812" y="427"/>
      <point x="758" y="465"/>
      <point x="701" y="473" type="qcurve"/>
    </contour>
    <contour>
      <point x="422" y="809" type="qcurve" smooth="yes"/>
      <point x="422" y="793"/>
      <point x="438" y="770"/>
      <point x="451.0" y="762.5" type="qcurve" smooth="yes" name="inserted"/>
      <point x="464" y="755"/>
      <point x="497" y="745"/>
      <point x="515" y="742" type="qcurve"/>
      <point x="515" y="884" type="line"/>
      <point x="470" y="878"/>
      <point x="422" y="838"/>
    </contour>
  </outline>
</glyph>
<glyph name="ampersand" format="1">
  <advance width="1228"/>
  <unicode hex="0026"/>
  <outline>
    <contour>
      <point x="1084" y="205" type="line" smooth="yes"/>
      <point x="1101" y="205"/>
      <point x="1125" y="197"/>
      <point x="1132.5" y="185.5" type="qcurve" smooth="yes" name="inserted"/>
      <point x="1140" y="174"/>
      <point x="1147" y="134"/>
      <point x="1147" y="102" type="qcurve" smooth="yes"/>
      <point x="1147" y="70"/>
      <point x="1140" y="30"/>
      <point x="1132.5" y="19.0" type="qcurve" smooth="yes" name="inserted"/>
      <point x="1125" y="8"/>
      <point x="1101" y="0"/>
      <point x="1084" y="0" type="qcurve" smooth="yes"/>
      <point x="913" y="0" type="line" smooth="yes"/>
      <point x="893.0" y="0.0" name="inserted"/>
      <point x="857.0" y="16.5"/>
      <point x="841" y="33" type="qcurve" smooth="yes"/>
      <point x="776" y="100" type="line"/>
      <point x="710" y="37"/>
      <point x="551" y="-22"/>
      <point x="456" y="-22" type="qcurve" smooth="yes"/>
      <point x="376" y="-22"/>
      <point x="247" y="28"/>
      <point x="201.5" y="73.5" type="qcurve" smooth="yes" name="inserted"/>
      <point x="156" y="119"/>
      <point x="107" y="245"/>
      <point x="107" y="320" type="qcurve" smooth="yes"/>
      <point x="107" y="417"/>
      <point x="198" y="563"/>
      <point x="287" y="622" type="qcurve"/>
      <point x="249" y="676"/>
      <point x="202" y="797"/>
      <point x="202" y="866" type="qcurve" smooth="yes"/>
      <point x="202" y="940"/>
      <point x="254" y="1066"/>
      <point x="303.0" y="1111.5" type="qcurve" smooth="yes" name="inserted"/>
      <point x="352" y="1157"/>
      <point x="494" y="1209"/>
      <point x="583" y="1209" type="qcurve" smooth="yes"/>
      <point x="660" y="1209"/>
      <point x="823" y="1162"/>
      <point x="912" y="1113" type="qcurve" smooth="yes"/>
      <point x="934" y="1101"/>
      <point x="955" y="1072"/>
      <point x="955" y="1051" type="qcurve" smooth="yes"/>
      <point x="955" y="854" type="line" smooth="yes"/>
      <point x="955" y="820"/>
      <point x="897" y="791"/>
      <point x="833" y="791" type="qcurve" smooth="yes"/>
      <point x="801" y="791"/>
      <point x="759" y="798"/>
      <point x="747.0" y="805.5" type="qcurve" smooth="yes" name="inserted"/>
      <point x="735" y="813"/>
      <point x="725" y="837"/>
      <point x="725" y="854" type="qcurve" smooth="yes"/>
      <point x="725" y="956" type="line"/>
      <point x="692" y="973"/>
      <point x="620" y="992"/>
      <point x="582" y="992" type="qcurve" smooth="yes"/>
      <point x="526" y="992"/>
      <point x="456" y="921"/>
      <point x="456" y="861" type="qcurve" smooth="yes"/>
      <point x="456" y="810"/>
      <point x="516" y="715"/>
      <point x="564" y="666" type="qcurve" smooth="yes"/>
      <point x="745" y="477" type="line"/>
      <point x="757" y="506"/>
      <point x="781" y="569"/>
      <point x="792" y="603" type="qcurve" smooth="yes"/>
      <point x="798" y="622"/>
      <point x="821" y="645"/>
      <point x="844" y="645" type="qcurve" smooth="yes"/>
      <point x="1064" y="645" type="line" smooth="yes"/>
      <point x="1081" y="645"/>
      <point x="1105" y="637"/>
      <point x="1112.5" y="626.0" type="qcurve" smooth="yes" name="inserted"/>
      <point x="1120" y="615"/>
      <point x="1127" y="575"/>
      <point x="1127" y="543" type="qcurve" smooth="yes"/>
      <point x="1127" y="511"/>
      <point x="1120" y="471"/>
      <point x="1112.5" y="459.5" type="qcurve" smooth="yes" name="inserted"/>
      <point x="1105" y="448"/>
      <point x="1081" y="440"/>
      <point x="1064" y="440" type="qcurve" smooth="yes"/>
      <point x="973" y="440" type="line"/>
      <point x="959.5" y="401.5" name="inserted"/>
      <point x="931.0" y="331.0"/>
      <point x="916" y="299" type="qcurve"/>
      <point x="1007" y="205" type="line"/>
    </contour>
    <contour>
      <point x="422" y="469" type="line"/>
      <point x="389" y="439"/>
      <point x="355" y="372"/>
      <point x="355" y="330" type="qcurve" smooth="yes"/>
      <point x="355" y="273"/>
      <point x="420" y="205"/>
      <point x="476" y="205" type="qcurve" smooth="yes"/>
      <point x="517" y="205"/>
      <point x="586" y="236"/>
      <point x="617" y="266" type="qcurve"/>
    </contour>
  </outline>
</glyph>
<glyph name="parenleft" format="1">
  <advance width="1228"/>
  <unicode hex="0028"/>
  <outline>
    <contour>
      <point x="771" y="-397" type="qcurve" smooth="yes"/>
      <point x="676" y="-343"/>
      <point x="491" y="-184"/>
      <point x="418.5" y="-77.5" type="qcurve" smooth="yes" name="inserted"/>
      <point x="346" y="29"/>
      <point x="257" y="297"/>
      <point x="257" y="459" type="qcurve" smooth="yes"/>
      <point x="257" y="621"/>
      <point x="346" y="889"/>
      <point x="418.5" y="995.5" type="qcurve" smooth="yes" name="inserted"/>
      <point x="491" y="1102"/>
      <point x="676" y="1261"/>
      <point x="771" y="1315" type="qcurve" smooth="yes"/>
      <point x="801" y="1332"/>
      <point x="865" y="1293"/>
      <point x="891" y="1255" type="qcurve" smooth="yes"/>
      <point x="904" y="1235"/>
      <point x="922" y="1193"/>
      <point x="925.0" y="1175.0" type="qcurve" smooth="yes" name="inserted"/>
      <point x="928" y="1157"/>
      <point x="921" y="1128"/>
      <point x="909" y="1121" type="qcurve" smooth="yes"/>
      <point x="812" y="1060"/>
      <point x="662" y="921"/>
      <point x="610.5" y="839.5" type="qcurve" smooth="yes" name="inserted"/>
      <point x="559" y="758"/>
      <point x="505" y="569"/>
      <point x="505" y="459" type="qcurve" smooth="yes"/>
      <point x="505" y="349"/>
      <point x="559" y="160"/>
      <point x="610.5" y="78.5" type="qcurve" smooth="yes" name="inserted"/>
      <point x="662" y="-3"/>
      <point x="812" y="-142"/>
      <point x="909" y="-203" type="qcurve" smooth="yes"/>
      <point x="921" y="-211"/>
      <point x="928" y="-239"/>
      <point x="925.0" y="-257.0" type="qcurve" smooth="yes" name="inserted"/>
      <point x="922" y="-275"/>
      <point x="904" y="-317"/>
      <point x="891" y="-337" type="qcurve" smooth="yes"/>
      <point x="865" y="-375"/>
      <point x="801" y="-414"/>
    </contour>
  </outline>
</glyph>
<glyph name="parenright" format="1">
  <advance width="1228"/>
  <unicode hex="0029"/>
  <outline>
    <contour>
      <point x="457" y="-397" type="qcurve" smooth="yes"/>
      <point x="427" y="-414"/>
      <point x="363" y="-375"/>
      <point x="337" y="-337" type="qcurve" smooth="yes"/>
      <point x="323" y="-317"/>
      <point x="305" y="-275"/>
      <point x="302.0" y="-257.0" type="qcurve" smooth="yes" name="inserted"/>
      <point x="299" y="-239"/>
      <point x="307" y="-211"/>
      <point x="319" y="-203" type="qcurve" smooth="yes"/>
      <point x="416" y="-142"/>
      <point x="566" y="-3"/>
      <point x="617.5" y="78.5" type="qcurve" smooth="yes" name="inserted"/>
      <point x="669" y="160"/>
      <point x="723" y="349"/>
      <point x="723" y="459" type="qcurve" smooth="yes"/>
      <point x="723" y="569"/>
      <point x="669" y="758"/>
      <point x="617.5" y="839.5" type="qcurve" smooth="yes" name="inserted"/>
      <point x="566" y="921"/>
      <point x="416" y="1060"/>
      <point x="319" y="1121" type="qcurve" smooth="yes"/>
      <point x="307" y="1128"/>
      <point x="299" y="1157"/>
      <point x="302.0" y="1175.0" type="qcurve" smooth="yes" name="inserted"/>
      <point x="305" y="1193"/>
      <point x="323" y="1235"/>
      <point x="337" y="1255" type="qcurve" smooth="yes"/>
      <point x="363" y="1293"/>
      <point x="427" y="1332"/>
      <point x="457" y="1315" type="qcurve" smooth="yes"/>
      <point x="552" y="1261"/>
      <point x="737" y="1102"/>
      <point x="809.5" y="995.5" type="qcurve" smooth="yes" name="inserted"/>
      <point x="882" y="889"/>
      <point x="971" y="621"/>
      <point x="971" y="459" type="qcurve" smooth="yes"/>
      <point x="971" y="297"/>
      <point x="882" y="29"/>
      <point x="809.5" y="-77.5" type="qcurve" smooth="yes" name="inserted"/>
      <point x="737" y="-184"/>
      <point x="552" y="-343"/>
    </contour>
  </outline>
</glyph>
<glyph name="asterisk" format="1">
  <advance width="1228"/>
  <unicode hex="002A"/>
  <outline>
    <contour>
      <point x="614" y="1209" type="qcurve" smooth="yes"/>
      <point x="648" y="1209"/>
      <point x="698" y="1186"/>
      <point x="713.0" y="1166.5" type="qcurve" smooth="yes" name="inserted"/>
      <point x="728" y="1147"/>
      <point x="736" y="1097"/>
      <point x="730" y="1069" type="qcurve" smooth="yes"/>
      <point x="683" y="865" type="line"/>
      <point x="862" y="973" type="line" smooth="yes"/>
      <point x="886" y="988"/>
      <point x="937" y="995"/>
      <point x="960.0" y="987.0" type="qcurve" smooth="yes" name="inserted"/>
      <point x="983" y="979"/>
      <point x="1020" y="939"/>
      <point x="1031" y="906" type="qcurve" smooth="yes"/>
      <point x="1041" y="873"/>
      <point x="1035" y="819"/>
      <point x="1021.5" y="799.5" type="qcurve" smooth="yes" name="inserted"/>
      <point x="1008" y="780"/>
      <point x="962" y="756"/>
      <point x="934" y="753" type="qcurve" smooth="yes"/>
      <point x="726" y="734" type="line"/>
      <point x="884" y="597" type="line" smooth="yes"/>
      <point x="905" y="578"/>
      <point x="928" y="532"/>
      <point x="927.5" y="508.0" type="qcurve" smooth="yes" name="inserted"/>
      <point x="927" y="484"/>
      <point x="901" y="436"/>
      <point x="873" y="415" type="qcurve" smooth="yes"/>
      <point x="845" y="395"/>
      <point x="792" y="384"/>
      <point x="768.5" y="391.0" type="qcurve" smooth="yes" name="inserted"/>
      <point x="745" y="398"/>
      <point x="708" y="434"/>
      <point x="697" y="460" type="qcurve" smooth="yes"/>
      <point x="614" y="653" type="line"/>
      <point x="531" y="460" type="line" smooth="yes"/>
      <point x="520" y="434"/>
      <point x="483" y="398"/>
      <point x="459.5" y="391.0" type="qcurve" smooth="yes" name="inserted"/>
      <point x="436" y="384"/>
      <point x="383" y="395"/>
      <point x="355" y="415" type="qcurve" smooth="yes"/>
      <point x="327" y="436"/>
      <point x="301" y="484"/>
      <point x="300.5" y="508.0" type="qcurve" smooth="yes" name="inserted"/>
      <point x="300" y="532"/>
      <point x="323" y="578"/>
      <point x="344" y="597" type="qcurve" smooth="yes"/>
      <point x="502" y="734" type="line"/>
      <point x="294" y="753" type="line" smooth="yes"/>
      <point x="265" y="756"/>
      <point x="220" y="780"/>
      <point x="206.5" y="799.5" type="qcurve" smooth="yes" name="inserted"/>
      <point x="193" y="819"/>
      <point x="186" y="873"/>
      <point x="197" y="906" type="qcurve" smooth="yes"/>
      <point x="208" y="939"/>
      <point x="245" y="979"/>
      <point x="268.0" y="987.0" type="qcurve" smooth="yes" name="inserted"/>
      <point x="291" y="995"/>
      <point x="342" y="988"/>
      <point x="366" y="973" type="qcurve" smooth="yes"/>
      <point x="545" y="865" type="line"/>
      <point x="498" y="1069" type="line" smooth="yes"/>
      <point x="492" y="1097"/>
      <point x="500" y="1147"/>
      <point x="515.0" y="1166.5" type="qcurve" smooth="yes" name="inserted"/>
      <point x="530" y="1186"/>
      <point x="579" y="1209"/>
    </contour>
  </outline>
</glyph>
<glyph name="comma" format="1">
  <advance width="1228"/>
  <unicode hex="002C"/>
  <outline>
    <contour>
      <point x="520" y="-253" type="line" smooth="yes"/>
      <point x="509" y="-274"/>
      <point x="469" y="-294"/>
      <point x="434" y="-294" type="qcurve" smooth="yes"/>
      <point x="392" y="-294"/>
      <point x="349" y="-260"/>
      <point x="354" y="-228" type="qcurve" smooth="yes"/>
      <point x="448" y="314" type="line" smooth="yes"/>
      <point x="452.0" y="334.0" name="inserted"/>
      <point x="478.0" y="354.0"/>
      <point x="500" y="354" type="qcurve" smooth="yes"/>
      <point x="759" y="354" type="line" smooth="yes"/>
      <point x="784" y="354"/>
      <point x="800" y="317"/>
      <point x="787" y="291" type="qcurve" smooth="yes"/>
    </contour>
  </outline>
</glyph>
<glyph name="slash" format="1">
  <advance width="1228"/>
  <unicode hex="002F"/>
  <outline>
    <contour>
      <point x="395" y="-267" type="line" smooth="yes"/>
      <point x="387" y="-284"/>
      <point x="345" y="-300"/>
      <point x="319" y="-300" type="qcurve" smooth="yes"/>
      <point x="290" y="-300"/>
      <point x="228" y="-283"/>
      <point x="204.5" y="-267.5" type="qcurve" smooth="yes" name="inserted"/>
      <point x="181" y="-252"/>
      <point x="159" y="-209"/>
      <point x="171" y="-183" type="qcurve" smooth="yes"/>
      <point x="833" y="1305" type="line" smooth="yes"/>
      <point x="841" y="1322"/>
      <point x="884" y="1339"/>
      <point x="911" y="1339" type="qcurve" smooth="yes"/>
      <point x="940" y="1339"/>
      <point x="1001" y="1322"/>
      <point x="1024.5" y="1306.5" type="qcurve" smooth="yes" name="inserted"/>
      <point x="1048" y="1291"/>
      <point x="1069" y="1248"/>
      <point x="1057" y="1221" type="qcurve" smooth="yes"/>
    </contour>
  </outline>
</glyph>
<glyph name="zero" format="1">
  <advance width="1228"/>
  <unicode hex="0030"/>
  <outline>
    <contour>
      <point x="1095" y="593" type="qcurve" smooth="yes"/>
      <point x="1095" y="458"/>
      <point x="1029" y="232"/>
      <point x="967.0" y="150.5" type="qcurve" smooth="yes" name="inserted"/>
      <point x="905" y="69"/>
      <point x="726" y="-22"/>
      <point x="614" y="-22" type="qcurve" smooth="yes"/>
      <point x="501" y="-22"/>
      <point x="323" y="69"/>
      <point x="261.0" y="150.5" type="qcurve" smooth="yes" name="inserted"/>
      <point x="199" y="232"/>
      <point x="133" y="458"/>
      <point x="133" y="593" type="qcurve" smooth="yes"/>
      <point x="133" y="728"/>
      <point x="199" y="954"/>
      <point x="261.0" y="1036.0" type="qcurve" smooth="yes" name="inserted"/>
      <point x="323" y="1118"/>
      <point x="501" y="1209"/>
      <point x="614" y="1209" type="qcurve" smooth="yes"/>
      <point x="726" y="1209"/>
      <point x="905" y="1118"/>
      <point x="967.0" y="1036.0" type="qcurve" smooth="yes" name="inserted"/>
      <point x="1029" y="954"/>
      <point x="1095" y="728"/>
    </contour>
    <contour>
      <point x="827" y="593" type="qcurve" smooth="yes"/>
      <point x="827" y="788"/>
      <point x="717" y="982"/>
      <point x="614" y="982" type="qcurve" smooth="yes"/>
      <point x="511" y="982"/>
      <point x="401" y="788"/>
      <point x="401" y="593" type="qcurve" smooth="yes"/>
      <point x="401" y="398"/>
      <point x="511" y="205"/>
      <point x="614" y="205" type="qcurve" smooth="yes"/>
      <point x="717" y="205"/>
      <point x="827" y="398"/>
    </contour>
    <contour>
      <point x="503" y="978" type="move"/>
      <point x="830" y="392" type="line"/>
      <point x="715" y="205" type="line"/>
      <point x="404" y="782" type="line"/>
    </contour>
  </outline>
</glyph>
<glyph name="one" format="1">
  <advance width="1228"/>
  <unicode hex="0031"/>
  <outline>
    <contour>
      <point x="519" y="205" type="line"/>
      <point x="519" y="933" type="line"/>
      <point x="333" y="866" type="line" smooth="yes"/>
      <point x="317" y="860"/>
      <point x="292" y="860"/>
      <point x="280.5" y="867.5" type="qcurve" smooth="yes" name="inserted"/>
      <point x="269" y="875"/>
      <point x="249" y="910"/>
      <point x="238" y="940" type="qcurve" smooth="yes"/>
      <point x="216" y="999"/>
      <point x="231" y="1048"/>
      <point x="263" y="1059" type="qcurve" smooth="yes"/>
      <point x="663" y="1205" type="line" smooth="yes"/>
      <point x="709" y="1222"/>
      <point x="769" y="1181"/>
      <point x="769" y="1128" type="qcurve" smooth="yes"/>
      <point x="769" y="205" type="line"/>
      <point x="1005" y="205" type="line" smooth="yes"/>
      <point x="1022" y="205"/>
      <point x="1046" y="197"/>
      <point x="1053.5" y="185.5" type="qcurve" smooth="yes" name="inserted"/>
      <point x="1061" y="174"/>
      <point x="1068" y="134"/>
      <point x="1068" y="102" type="qcurve" smooth="yes"/>
      <point x="1068" y="70"/>
      <point x="1061" y="30"/>
      <point x="1053.5" y="19.0" type="qcurve" smooth="yes" name="inserted"/>
      <point x="1046" y="8"/>
      <point x="1022" y="0"/>
      <point x="1005" y="0" type="qcurve" smooth="yes"/>
      <point x="273" y="0" type="line" smooth="yes"/>
      <point x="256" y="0"/>
      <point x="232" y="8"/>
      <point x="224.5" y="19.0" type="qcurve" smooth="yes" name="inserted"/>
      <point x="217" y="30"/>
      <point x="210" y="70"/>
      <point x="210" y="102" type="qcurve" smooth="yes"/>
      <point x="210" y="134"/>
      <point x="217" y="174"/>
      <point x="224.5" y="185.5" type="qcurve" smooth="yes" name="inserted"/>
      <point x="232" y="197"/>
      <point x="256" y="205"/>
      <point x="273" y="205" type="qcurve" smooth="yes"/>
    </contour>
  </outline>
</glyph>
<glyph name="two" format="1">
  <advance width="1228"/>
  <unicode hex="0032"/>
  <outline>
    <contour>
      <point x="830" y="215" type="line"/>
      <point x="830" y="307" type="line" smooth="yes"/>
      <point x="830" y="324"/>
      <point x="840" y="348"/>
      <point x="852.0" y="355.5" type="qcurve" smooth="yes" name="inserted"/>
      <point x="864" y="363"/>
      <point x="906" y="370"/>
      <point x="938" y="370" type="qcurve" smooth="yes"/>
      <point x="1002" y="370"/>
      <point x="1060" y="341"/>
      <point x="1060" y="307" type="qcurve" smooth="yes"/>
      <point x="1060" y="65" type="line" smooth="yes"/>
      <point x="1060" y="30"/>
      <point x="1030" y="0"/>
      <point x="995" y="0" type="qcurve" smooth="yes"/>
      <point x="221" y="0" type="line" smooth="yes"/>
      <point x="204" y="0"/>
      <point x="180" y="8"/>
      <point x="172.5" y="19.5" type="qcurve" smooth="yes" name="inserted"/>
      <point x="165" y="31"/>
      <point x="158" y="71"/>
      <point x="158" y="103" type="qcurve" smooth="yes"/>
      <point x="158" y="144"/>
      <point x="168" y="183"/>
      <point x="182" y="196" type="qcurve" smooth="yes"/>
      <point x="611" y="609" type="line" smooth="yes"/>
      <point x="651" y="648"/>
      <point x="707" y="710"/>
      <point x="724.5" y="736.5" type="qcurve" smooth="yes" name="inserted"/>
      <point x="742" y="763"/>
      <point x="757" y="812"/>
      <point x="757" y="839" type="qcurve" smooth="yes"/>
      <point x="757" y="906"/>
      <point x="679" y="992"/>
      <point x="601" y="992" type="qcurve" smooth="yes"/>
      <point x="554" y="992"/>
      <point x="466" y="969"/>
      <point x="428" y="950" type="qcurve"/>
      <point x="428" y="810" type="line" smooth="yes"/>
      <point x="428" y="793"/>
      <point x="418" y="769"/>
      <point x="406.0" y="761.5" type="qcurve" smooth="yes" name="inserted"/>
      <point x="394" y="754"/>
      <point x="352" y="747"/>
      <point x="320" y="747" type="qcurve" smooth="yes"/>
      <point x="256" y="747"/>
      <point x="198" y="776"/>
      <point x="198" y="810" type="qcurve" smooth="yes"/>
      <point x="198" y="1047" type="line" smooth="yes"/>
      <point x="198.0" y="1067.5" name="inserted"/>
      <point x="219.5" y="1099.5"/>
      <point x="241" y="1111" type="qcurve" smooth="yes"/>
      <point x="332" y="1161"/>
      <point x="515" y="1209"/>
      <point x="600" y="1209" type="qcurve" smooth="yes"/>
      <point x="700" y="1209"/>
      <point x="854" y="1156"/>
      <point x="906.0" y="1108.0" type="qcurve" smooth="yes" name="inserted"/>
      <point x="958" y="1060"/>
      <point x="1011" y="926"/>
      <point x="1011" y="844" type="qcurve" smooth="yes"/>
      <point x="1011" y="792"/>
      <point x="988" y="699"/>
      <point x="964.0" y="655.0" type="qcurve" smooth="yes" name="inserted"/>
      <point x="940" y="611"/>
      <point x="869" y="524"/>
      <point x="821" y="478" type="qcurve" smooth="yes"/>
      <point x="548" y="215" type="line"/>
    </contour>
  </outline>
</glyph>
<glyph name="four" format="1">
  <advance width="1228"/>
  <unicode hex="0034"/>
  <outline>
    <contour>
      <point x="613" y="370" type="line"/>
      <point x="183" y="370" type="line" smooth="yes"/>
      <point x="166" y="370"/>
      <point x="142" y="378"/>
      <point x="134.5" y="389.0" type="qcurve" smooth="yes" name="inserted"/>
      <point x="127" y="400"/>
      <point x="120" y="440"/>
      <point x="120" y="472" type="qcurve" smooth="yes"/>
      <point x="120" y="508"/>
      <point x="130" y="550"/>
      <point x="139" y="561" type="qcurve" smooth="yes"/>
      <point x="609" y="1140" type="line" smooth="yes"/>
      <point x="635" y="1173"/>
      <point x="705" y="1209"/>
      <point x="758" y="1209" type="qcurve" smooth="yes"/>
      <point x="789" y="1209"/>
      <point x="829" y="1196"/>
      <point x="841.0" y="1184.0" type="qcurve" smooth="yes" name="inserted"/>
      <point x="853" y="1172"/>
      <point x="863" y="1139"/>
      <point x="863" y="1119" type="qcurve" smooth="yes"/>
      <point x="863" y="575" type="line"/>
      <point x="1035" y="575" type="line" smooth="yes"/>
      <point x="1052" y="575"/>
      <point x="1076" y="567"/>
      <point x="1083.5" y="555.5" type="qcurve" smooth="yes" name="inserted"/>
      <point x="1091" y="544"/>
      <point x="1098" y="504"/>
      <point x="1098" y="472" type="qcurve" smooth="yes"/>
      <point x="1098" y="440"/>
      <point x="1091" y="400"/>
      <point x="1083.5" y="389.0" type="qcurve" smooth="yes" name="inserted"/>
      <point x="1076" y="378"/>
      <point x="1052" y="370"/>
      <point x="1035" y="370" type="qcurve" smooth="yes"/>
      <point x="863" y="370" type="line"/>
      <point x="863" y="205" type="line"/>
      <point x="1005" y="205" type="line" smooth="yes"/>
      <point x="1022" y="205"/>
      <point x="1046" y="197"/>
      <point x="1053.5" y="185.5" type="qcurve" smooth="yes" name="inserted"/>
      <point x="1061" y="174"/>
      <point x="1068" y="134"/>
      <point x="1068" y="102" type="qcurve" smooth="yes"/>
      <point x="1068" y="70"/>
      <point x="1061" y="30"/>
      <point x="1053.5" y="19.0" type="qcurve" smooth="yes" name="inserted"/>
      <point x="1046" y="8"/>
      <point x="1022" y="0"/>
      <point x="1005" y="0" type="qcurve" smooth="yes"/>
      <point x="443" y="0" type="line" smooth="yes"/>
      <point x="426" y="0"/>
      <point x="402" y="8"/>
      <point x="394.5" y="19.0" type="qcurve" smooth="yes" name="inserted"/>
      <point x="387" y="30"/>
      <point x="380" y="70"/>
      <point x="380" y="102" type="qcurve" smooth="yes"/>
      <point x="380" y="134"/>
      <point x="387" y="174"/>
      <point x="394.5" y="185.5" type="qcurve" smooth="yes" name="inserted"/>
      <point x="402" y="197"/>
      <point x="426" y="205"/>
      <point x="443" y="205" type="qcurve" smooth="yes"/>
      <point x="613" y="205" type="line"/>
    </contour>
    <contour>
      <point x="622" y="575" type="line"/>
      <point x="638" y="867" type="line"/>
      <point x="403" y="575" type="line"/>
    </contour>
  </outline>
</glyph>
<glyph name="six" format="1">
  <advance width="1228"/>
  <unicode hex="0036"/>
  <outline>
    <contour>
      <point x="631" y="-22" type="qcurve" smooth="yes"/>
      <point x="502" y="-22"/>
      <point x="310" y="82"/>
      <point x="246" y="176" type="qcurve" smooth="yes"/>
      <point x="204" y="237"/>
      <point x="160" y="410"/>
      <point x="160" y="512" type="qcurve" smooth="yes"/>
      <point x="160" y="670"/>
      <point x="265" y="922"/>
      <point x="368.5" y="1011.0" type="qcurve" smooth="yes" name="inserted"/>
      <point x="472" y="1100"/>
      <point x="777" y="1201"/>
      <point x="977" y="1209" type="qcurve" smooth="yes"/>
      <point x="1003" y="1210"/>
      <point x="1032" y="1159"/>
      <point x="1037" y="1102" type="qcurve" smooth="yes"/>
      <point x="1044" y="1033"/>
      <point x="1021" y="969"/>
      <point x="998" y="967" type="qcurve" smooth="yes"/>
      <point x="861" y="960"/>
      <point x="658" y="915"/>
      <point x="587.5" y="874.0" type="qcurve" smooth="yes" name="inserted"/>
      <point x="517" y="833"/>
      <point x="435" y="709"/>
      <point x="420" y="624" type="qcurve"/>
      <point x="475" y="685"/>
      <point x="608" y="741"/>
      <point x="695" y="741" type="qcurve" smooth="yes"/>
      <point x="779" y="741"/>
      <point x="920" y="686"/>
      <point x="970.5" y="636.5" type="qcurve" smooth="yes" name="inserted"/>
      <point x="1021" y="587"/>
      <point x="1078" y="449"/>
      <point x="1078" y="366" type="qcurve" smooth="yes"/>
      <point x="1078" y="281"/>
      <point x="1011" y="138"/>
      <point x="952.0" y="86.5" type="qcurve" smooth="yes" name="inserted"/>
      <point x="893" y="35"/>
      <point x="728" y="-22"/>
    </contour>
    <contour>
      <point x="440" y="371" type="qcurve" smooth="yes"/>
      <point x="440" y="337"/>
      <point x="465" y="275"/>
      <point x="489.5" y="252.0" type="qcurve" smooth="yes" name="inserted"/>
      <point x="514" y="229"/>
      <point x="585" y="201"/>
      <point x="630" y="201" type="qcurve" smooth="yes"/>
      <point x="673" y="201"/>
      <point x="743" y="224"/>
      <point x="768.0" y="245.0" type="qcurve" smooth="yes" name="inserted"/>
      <point x="793" y="266"/>
      <point x="820" y="327"/>
      <point x="820" y="365" type="qcurve" smooth="yes"/>
      <point x="820" y="443"/>
      <point x="723" y="529"/>
      <point x="638" y="529" type="qcurve" smooth="yes"/>
      <point x="594" y="529"/>
      <point x="521" y="506"/>
      <point x="495.0" y="485.0" type="qcurve" smooth="yes" name="inserted"/>
      <point x="469" y="464"/>
      <point x="440" y="406"/>
    </contour>
  </outline>
</glyph>
<glyph name="eight" format="1">
  <advance width="1228"/>
  <unicode hex="0038"/>
  <outline>
    <contour>
      <point x="210" y="871" type="qcurve" smooth="yes"/>
      <point x="210" y="940"/>
      <point x="265" y="1063"/>
      <point x="317.5" y="1109.0" type="qcurve" smooth="yes" name="inserted"/>
      <point x="370" y="1155"/>
      <point x="519" y="1209"/>
      <point x="614" y="1209" type="qcurve" smooth="yes"/>
      <point x="708" y="1209"/>
      <point x="858" y="1155"/>
      <point x="910.5" y="1109.0" type="qcurve" smooth="yes" name="inserted"/>
      <point x="963" y="1063"/>
      <point x="1018" y="940"/>
      <point x="1018" y="871" type="qcurve" smooth="yes"/>
      <point x="1018" y="775"/>
      <point x="929" y="652"/>
      <point x="855" y="619" type="qcurve"/>
      <point x="900" y="602"/>
      <point x="975" y="551"/>
      <point x="1001.5" y="516.0" type="qcurve" smooth="yes" name="inserted"/>
      <point x="1028" y="481"/>
      <point x="1057" y="391"/>
      <point x="1057" y="335" type="qcurve" smooth="yes"/>
      <point x="1057" y="251"/>
      <point x="993" y="118"/>
      <point x="934.5" y="72.5" type="qcurve" smooth="yes" name="inserted"/>
      <point x="876" y="27"/>
      <point x="713" y="-22"/>
      <point x="614" y="-22" type="qcurve" smooth="yes"/>
      <point x="515" y="-22"/>
      <point x="352" y="27"/>
      <point x="293.5" y="72.5" type="qcurve" smooth="yes" name="inserted"/>
      <point x="235" y="118"/>
      <point x="171" y="251"/>
      <point x="171" y="335" type="qcurve" smooth="yes"/>
      <point x="171" y="391"/>
      <point x="200" y="481"/>
      <point x="226.5" y="516.0" type="qcurve" smooth="yes" name="inserted"/>
      <point x="253" y="551"/>
      <point x="327" y="602"/>
      <point x="373" y="619" type="qcurve"/>
      <point x="298" y="652"/>
      <point x="210" y="775"/>
    </contour>
    <contour>
      <point x="436" y="356" type="qcurve" smooth="yes"/>
      <point x="436" y="284"/>
      <point x="526" y="196"/>
      <point x="614" y="196" type="qcurve" smooth="yes"/>
      <point x="702" y="196"/>
      <point x="792" y="284"/>
      <point x="792" y="356" type="qcurve" smooth="yes"/>
      <point x="792" y="428"/>
      <point x="702" y="518"/>
      <point x="614" y="518" type="qcurve" smooth="yes"/>
      <point x="526" y="518"/>
      <point x="436" y="428"/>
    </contour>
    <contour>
      <point x="614" y="712" type="qcurve" smooth="yes"/>
      <point x="688" y="712"/>
      <point x="769" y="788"/>
      <point x="769" y="851" type="qcurve" smooth="yes"/>
      <point x="769" y="914"/>
      <point x="686" y="991"/>
      <point x="614" y="991" type="qcurve" smooth="yes"/>
      <point x="542" y="991"/>
      <point x="459" y="914"/>
      <point x="459" y="851" type="qcurve" smooth="yes"/>
      <point x="459" y="788"/>
      <point x="540" y="712"/>
    </contour>
  </outline>
</glyph>
<glyph name="nine" format="1">
  <advance width="1228"/>
  <unicode hex="0039"/>
  <outline>
    <contour>
      <point x="808" y="563" type="qcurve"/>
      <point x="753" y="502"/>
      <point x="620" y="446"/>
      <point x="533" y="446" type="qcurve" smooth="yes"/>
      <point x="449" y="446"/>
      <point x="308" y="501"/>
      <point x="257.5" y="550.5" type="qcurve" smooth="yes" name="inserted"/>
      <point x="207" y="600"/>
      <point x="150" y="738"/>
      <point x="150" y="821" type="qcurve" smooth="yes"/>
      <point x="150" y="906"/>
      <point x="217" y="1049"/>
      <point x="276.0" y="1100.5" type="qcurve" smooth="yes" name="inserted"/>
      <point x="335" y="1152"/>
      <point x="499" y="1209"/>
      <point x="597" y="1209" type="qcurve" smooth="yes"/>
      <point x="726" y="1209"/>
      <point x="918" y="1105"/>
      <point x="982" y="1011" type="qcurve" smooth="yes"/>
      <point x="1024" y="950"/>
      <point x="1068" y="777"/>
      <point x="1068" y="675" type="qcurve" smooth="yes"/>
      <point x="1068" y="517"/>
      <point x="981" y="265"/>
      <point x="889.0" y="176.0" type="qcurve" smooth="yes" name="inserted"/>
      <point x="797" y="87"/>
      <point x="511" y="-14"/>
      <point x="311" y="-22" type="qcurve" smooth="yes"/>
      <point x="285" y="-23"/>
      <point x="256" y="28"/>
      <point x="251" y="85" type="qcurve" smooth="yes"/>
      <point x="244" y="154"/>
      <point x="267" y="218"/>
      <point x="290" y="220" type="qcurve" smooth="yes"/>
      <point x="426" y="227"/>
      <point x="614" y="272"/>
      <point x="674.5" y="313.0" type="qcurve" smooth="yes" name="inserted"/>
      <point x="735" y="354"/>
      <point x="797" y="478"/>
    </contour>
    <contour>
      <point x="788" y="816" type="qcurve" smooth="yes"/>
      <point x="788" y="850"/>
      <point x="763" y="912"/>
      <point x="738.5" y="935.0" type="qcurve" smooth="yes" name="inserted"/>
      <point x="714" y="958"/>
      <point x="643" y="986"/>
      <point x="598" y="986" type="qcurve" smooth="yes"/>
      <point x="555" y="986"/>
      <point x="485" y="963"/>
      <point x="460.0" y="942.0" type="qcurve" smooth="yes" name="inserted"/>
      <point x="435" y="921"/>
      <point x="408" y="860"/>
      <point x="408" y="822" type="qcurve" smooth="yes"/>
      <point x="408" y="744"/>
      <point x="505" y="658"/>
      <point x="590" y="658" type="qcurve" smooth="yes"/>
      <point x="634" y="658"/>
      <point x="707" y="681"/>
      <point x="733.0" y="702.0" type="qcurve" smooth="yes" name="inserted"/>
      <point x="759" y="723"/>
      <point x="788" y="781"/>
    </contour>
  </outline>
</glyph>
<glyph name="semicolon" format="1">
  <advance width="1228"/>
  <unicode hex="003B"/>
  <outline>
    <contour>
      <point x="419" y="751" type="qcurve" smooth="yes"/>
      <point x="419" y="791"/>
      <point x="450" y="863"/>
      <point x="476.0" y="889.0" type="qcurve" smooth="yes" name="inserted"/>
      <point x="502" y="915"/>
      <point x="573" y="946"/>
      <point x="614" y="946" type="qcurve" smooth="yes"/>
      <point x="654" y="946"/>
      <point x="726" y="915"/>
      <point x="752.0" y="889.0" type="qcurve" smooth="yes" name="inserted"/>
      <point x="778" y="863"/>
      <point x="809" y="791"/>
      <point x="809" y="751" type="qcurve" smooth="yes"/>
      <point x="809" y="710"/>
      <point x="778" y="639"/>
      <point x="752.0" y="613.0" type="qcurve" smooth="yes" name="inserted"/>
      <point x="726" y="587"/>
      <point x="654" y="556"/>
      <point x="614" y="556" type="qcurve" smooth="yes"/>
      <point x="573" y="556"/>
      <point x="502" y="587"/>
      <point x="476.0" y="613.0" type="qcurve" smooth="yes" name="inserted"/>
      <point x="450" y="639"/>
      <point x="419" y="710"/>
    </contour>
    <contour>
      <point x="520" y="-253" type="line" smooth="yes"/>
      <point x="509" y="-274"/>
      <point x="469" y="-294"/>
      <point x="434" y="-294" type="qcurve" smooth="yes"/>
      <point x="392" y="-294"/>
      <point x="349" y="-260"/>
      <point x="354" y="-228" type="qcurve" smooth="yes"/>
      <point x="448" y="314" type="line" smooth="yes"/>
      <point x="452.0" y="334.0" name="inserted"/>
      <point x="478.0" y="354.0"/>
      <point x="500" y="354" type="qcurve" smooth="yes"/>
      <point x="759" y="354" type="line" smooth="yes"/>
      <point x="784" y="354"/>
      <point x="800" y="317"/>
      <point x="787" y="291" type="qcurve" smooth="yes"/>
    </contour>
  </outline>
</glyph>
<glyph name="greater" format="1">
  <advance width="1228"/>
  <unicode hex="003E"/>
  <outline>
    <contour>
      <point x="182" y="875" type="line" smooth="yes"/>
      <point x="150" y="891"/>
      <point x="142" y="951"/>
      <point x="172" y="1011" type="qcurve" smooth="yes"/>
      <point x="187" y="1041"/>
      <point x="214" y="1076"/>
      <point x="227.0" y="1083.0" type="qcurve" smooth="yes" name="inserted"/>
      <point x="240" y="1090"/>
      <point x="267" y="1087"/>
      <point x="282" y="1079" type="qcurve" smooth="yes"/>
      <point x="1062" y="677" type="line" smooth="yes"/>
      <point x="1086" y="665"/>
      <point x="1108" y="626"/>
      <point x="1108" y="583" type="qcurve" smooth="yes"/>
      <point x="1108" y="540"/>
      <point x="1086" y="501"/>
      <point x="1062" y="489" type="qcurve" smooth="yes"/>
      <point x="282" y="87" type="line" smooth="yes"/>
      <point x="267" y="79"/>
      <point x="240" y="76"/>
      <point x="227.0" y="83.0" type="qcurve" smooth="yes" name="inserted"/>
      <point x="214" y="90"/>
      <point x="187" y="125"/>
      <point x="172" y="155" type="qcurve" smooth="yes"/>
      <point x="142" y="215"/>
      <point x="150" y="275"/>
      <point x="182" y="291" type="qcurve" smooth="yes"/>
      <point x="767" y="583" type="line"/>
    </contour>
  </outline>
</glyph>
<glyph name="A" format="1">
  <advance width="1228"/>
  <unicode hex="0041"/>
  <outline>
    <contour>
      <point x="390" y="982" type="line"/>
      <point x="223" y="982" type="line" smooth="yes"/>
      <point x="206" y="982"/>
      <point x="182" y="990"/>
      <point x="174.5" y="1001.5" type="qcurve" smooth="yes" name="inserted"/>
      <point x="167" y="1013"/>
      <point x="160" y="1053"/>
      <point x="160" y="1085" type="qcurve" smooth="yes"/>
      <point x="160" y="1117"/>
      <point x="167" y="1157"/>
      <point x="174.5" y="1168.0" type="qcurve" smooth="yes" name="inserted"/>
      <point x="182" y="1179"/>
      <point x="206" y="1187"/>
      <point x="223" y="1187" type="qcurve" smooth="yes"/>
      <point x="697" y="1187" type="line" smooth="yes"/>
      <point x="737" y="1187"/>
      <point x="787" y="1157"/>
      <point x="798" y="1122" type="qcurve" smooth="yes"/>
      <point x="1088" y="205" type="line"/>
      <point x="1175" y="205" type="line" smooth="yes"/>
      <point x="1192" y="205"/>
      <point x="1216" y="197"/>
      <point x="1223.5" y="186.0" type="qcurve" smooth="yes" name="inserted"/>
      <point x="1231" y="175"/>
      <point x="1238" y="135"/>
      <point x="1238" y="103" type="qcurve" smooth="yes"/>
      <point x="1238" y="71"/>
      <point x="1231" y="31"/>
      <point x="1223.5" y="19.5" type="qcurve" smooth="yes" name="inserted"/>
      <point x="1216" y="8"/>
      <point x="1192" y="0"/>
      <point x="1175" y="0" type="qcurve" smooth="yes"/>
      <point x="751" y="0" type="line" smooth="yes"/>
      <point x="734" y="0"/>
      <point x="710" y="8"/>
      <point x="702.5" y="19.5" type="qcurve" smooth="yes" name="inserted"/>
      <point x="695" y="31"/>
      <point x="688" y="71"/>
      <point x="688" y="103" type="qcurve" smooth="yes"/>
      <point x="688" y="135"/>
      <point x="695" y="175"/>
      <point x="702.5" y="186.0" type="qcurve" smooth="yes" name="inserted"/>
      <point x="710" y="197"/>
      <point x="734" y="205"/>
      <point x="751" y="205" type="qcurve" smooth="yes"/>
      <point x="837" y="205" type="line"/>
      <point x="792" y="350" type="line"/>
      <point x="428" y="350" type="line"/>
      <point x="383" y="205" type="line"/>
      <point x="457" y="205" type="line" smooth="yes"/>
      <point x="474" y="205"/>
      <point x="498" y="197"/>
      <point x="505.5" y="186.0" type="qcurve" smooth="yes" name="inserted"/>
      <point x="513" y="175"/>
      <point x="520" y="135"/>
      <point x="520" y="103" type="qcurve" smooth="yes"/>
      <point x="520" y="71"/>
      <point x="513" y="31"/>
      <point x="505.5" y="19.5" type="qcurve" smooth="yes" name="inserted"/>
      <point x="498" y="8"/>
      <point x="474" y="0"/>
      <point x="457" y="0" type="qcurve" smooth="yes"/>
      <point x="53" y="0" type="line" smooth="yes"/>
      <point x="36" y="0"/>
      <point x="12" y="8"/>
      <point x="4.5" y="19.5" type="qcurve" smooth="yes" name="inserted"/>
      <point x="-3" y="31"/>
      <point x="-10" y="71"/>
      <point x="-10" y="103" type="qcurve" smooth="yes"/>
      <point x="-10" y="135"/>
      <point x="-3" y="175"/>
      <point x="4.5" y="186.0" type="qcurve" smooth="yes" name="inserted"/>
      <point x="12" y="197"/>
      <point x="36" y="205"/>
      <point x="53" y="205" type="qcurve" smooth="yes"/>
      <point x="137" y="205" type="line"/>
    </contour>
    <contour>
      <point x="735" y="555" type="line"/>
      <point x="615" y="982" type="line"/>
      <point x="609" y="982" type="line"/>
      <point x="486" y="555" type="line"/>
    </contour>
  </outline>
</glyph>
<glyph name="D" format="1">
  <advance width="1228"/>
  <unicode hex="0044"/>
  <outline>
    <contour>
      <point x="220" y="982" type="line"/>
      <point x="123" y="982" type="line" smooth="yes"/>
      <point x="106" y="982"/>
      <point x="82" y="990"/>
      <point x="74.5" y="1001.0" type="qcurve" smooth="yes" name="inserted"/>
      <point x="67" y="1012"/>
      <point x="60" y="1052"/>
      <point x="60" y="1084" type="qcurve" smooth="yes"/>
      <point x="60" y="1116"/>
      <point x="67" y="1156"/>
      <point x="74.5" y="1167.5" type="qcurve" smooth="yes" name="inserted"/>
      <point x="82" y="1179"/>
      <point x="106" y="1187"/>
      <point x="123" y="1187" type="qcurve" smooth="yes"/>
      <point x="594" y="1187" type="line" smooth="yes"/>
      <point x="725" y="1187"/>
      <point x="933" y="1109"/>
      <point x="1005.5" y="1033.0" type="qcurve" smooth="yes" name="inserted"/>
      <point x="1078" y="957"/>
      <point x="1155" y="736"/>
      <point x="1155" y="594" type="qcurve" smooth="yes"/>
      <point x="1155" y="451"/>
      <point x="1078" y="230"/>
      <point x="1005.5" y="154.5" type="qcurve" smooth="yes" name="inserted"/>
      <point x="933" y="79"/>
      <point x="725" y="0"/>
      <point x="594" y="0" type="qcurve" smooth="yes"/>
      <point x="123" y="0" type="line" smooth="yes"/>
      <point x="106" y="0"/>
      <point x="82" y="8"/>
      <point x="74.5" y="19.0" type="qcurve" smooth="yes" name="inserted"/>
      <point x="67" y="30"/>
      <point x="60" y="70"/>
      <point x="60" y="102" type="qcurve" smooth="yes"/>
      <point x="60" y="134"/>
      <point x="67" y="174"/>
      <point x="74.5" y="185.5" type="qcurve" smooth="yes" name="inserted"/>
      <point x="82" y="197"/>
      <point x="106" y="205"/>
      <point x="123" y="205" type="qcurve" smooth="yes"/>
      <point x="220" y="205" type="line"/>
    </contour>
    <contour>
      <point x="574" y="215" type="line" smooth="yes"/>
      <point x="730" y="215"/>
      <point x="887" y="407"/>
      <point x="887" y="594" type="qcurve" smooth="yes"/>
      <point x="887" y="781"/>
      <point x="730" y="972"/>
      <point x="574" y="972" type="qcurve" smooth="yes"/>
      <point x="470" y="972" type="line"/>
      <point x="470" y="215" type="line"/>
    </contour>
  </outline>
</glyph>
<glyph name="G" format="1">
  <advance width="1228"/>
  <unicode hex="0047"/>
  <outline>
    <contour>
      <point x="651" y="402" type="line" smooth="yes"/>
      <point x="634" y="402"/>
      <point x="610" y="410"/>
      <point x="602.5" y="421.0" type="qcurve" smooth="yes" name="inserted"/>
      <point x="595" y="432"/>
      <point x="588" y="472"/>
      <point x="588" y="504" type="qcurve" smooth="yes"/>
      <point x="588" y="536"/>
      <point x="595" y="576"/>
      <point x="602.5" y="587.5" type="qcurve" smooth="yes" name="inserted"/>
      <point x="610" y="599"/>
      <point x="634" y="607"/>
      <point x="651" y="607" type="qcurve" smooth="yes"/>
      <point x="1125" y="607" type="line" smooth="yes"/>
      <point x="1142" y="607"/>
      <point x="1166" y="599"/>
      <point x="1173.5" y="587.5" type="qcurve" smooth="yes" name="inserted"/>
      <point x="1181" y="576"/>
      <point x="1188" y="536"/>
      <point x="1188" y="504" type="qcurve" smooth="yes"/>
      <point x="1188" y="472"/>
      <point x="1181" y="432"/>
      <point x="1173.5" y="421.0" type="qcurve" smooth="yes" name="inserted"/>
      <point x="1166" y="410"/>
      <point x="1142" y="402"/>
      <point x="1125" y="402" type="qcurve" smooth="yes"/>
      <point x="1094" y="402" type="line"/>
      <point x="1094" y="143" type="line" smooth="yes"/>
      <point x="1094.0" y="118.0" name="inserted"/>
      <point x="1076.0" y="83.5"/>
      <point x="1058" y="74" type="qcurve" smooth="yes"/>
      <point x="963" y="25"/>
      <point x="741" y="-22"/>
      <point x="624" y="-22" type="qcurve" smooth="yes"/>
      <point x="500" y="-22"/>
      <point x="297" y="64"/>
      <point x="224.5" y="143.5" type="qcurve" smooth="yes" name="inserted"/>
      <point x="152" y="223"/>
      <point x="73" y="451"/>
      <point x="73" y="594" type="qcurve" smooth="yes"/>
      <point x="73" y="736"/>
      <point x="151" y="964"/>
      <point x="221.0" y="1044.0" type="qcurve" smooth="yes" name="inserted"/>
      <point x="291" y="1124"/>
      <point x="481" y="1209"/>
      <point x="594" y="1209" type="qcurve" smooth="yes"/>
      <point x="688" y="1209"/>
      <point x="815" y="1146"/>
      <point x="854" y="1091" type="qcurve"/>
      <point x="854" y="1146" type="line" smooth="yes"/>
      <point x="854" y="1180"/>
      <point x="912" y="1209"/>
      <point x="976" y="1209" type="qcurve" smooth="yes"/>
      <point x="1008" y="1209"/>
      <point x="1050" y="1202"/>
      <point x="1062.0" y="1194.5" type="qcurve" smooth="yes" name="inserted"/>
      <point x="1074" y="1187"/>
      <point x="1084" y="1163"/>
      <point x="1084" y="1146" type="qcurve" smooth="yes"/>
      <point x="1084" y="802" type="line" smooth="yes"/>
      <point x="1084" y="768"/>
      <point x="1024" y="739"/>
      <point x="952" y="739" type="qcurve" smooth="yes"/>
      <point x="916" y="739"/>
      <point x="871" y="746"/>
      <point x="857.5" y="753.5" type="qcurve" smooth="yes" name="inserted"/>
      <point x="844" y="761"/>
      <point x="834" y="785"/>
      <point x="834" y="802" type="qcurve" smooth="yes"/>
      <point x="834" y="886"/>
      <point x="732" y="982"/>
      <point x="624" y="982" type="qcurve" smooth="yes"/>
      <point x="483" y="982"/>
      <point x="341" y="781"/>
      <point x="341" y="594" type="qcurve" smooth="yes"/>
      <point x="341" y="407"/>
      <point x="493" y="205"/>
      <point x="634" y="205" type="qcurve" smooth="yes"/>
      <point x="689.5" y="205.0" name="inserted"/>
      <point x="794.5" y="220.0"/>
      <point x="844" y="235" type="qcurve"/>
      <point x="844" y="402" type="line"/>
    </contour>
  </outline>
</glyph>
<glyph name="I" format="1">
  <advance width="1228"/>
  <unicode hex="0049"/>
  <outline>
    <contour>
      <point x="489" y="982" type="line"/>
      <point x="253" y="982" type="line" smooth="yes"/>
      <point x="236" y="982"/>
      <point x="212" y="990"/>
      <point x="204.5" y="1001.0" type="qcurve" smooth="yes" name="inserted"/>
      <point x="197" y="1012"/>
      <point x="190" y="1052"/>
      <point x="190" y="1084" type="qcurve" smooth="yes"/>
      <point x="190" y="1116"/>
      <point x="197" y="1156"/>
      <point x="204.5" y="1167.5" type="qcurve" smooth="yes" name="inserted"/>
      <point x="212" y="1179"/>
      <point x="236" y="1187"/>
      <point x="253" y="1187" type="qcurve" smooth="yes"/>
      <point x="975" y="1187" type="line" smooth="yes"/>
      <point x="992" y="1187"/>
      <point x="1016" y="1179"/>
      <point x="1023.5" y="1167.5" type="qcurve" smooth="yes" name="inserted"/>
      <point x="1031" y="1156"/>
      <point x="1038" y="1116"/>
      <point x="1038" y="1084" type="qcurve" smooth="yes"/>
      <point x="1038" y="1052"/>
      <point x="1031" y="1012"/>
      <point x="1023.5" y="1001.0" type="qcurve" smooth="yes" name="inserted"/>
      <point x="1016" y="990"/>
      <point x="992" y="982"/>
      <point x="975" y="982" type="qcurve" smooth="yes"/>
      <point x="739" y="982" type="line"/>
      <point x="739" y="205" type="line"/>
      <point x="995" y="205" type="line" smooth="yes"/>
      <point x="1012" y="205"/>
      <point x="1036" y="197"/>
      <point x="1043.5" y="185.5" type="qcurve" smooth="yes" name="inserted"/>
      <point x="1051" y="174"/>
      <point x="1058" y="134"/>
      <point x="1058" y="102" type="qcurve" smooth="yes"/>
      <point x="1058" y="70"/>
      <point x="1051" y="30"/>
      <point x="1043.5" y="19.0" type="qcurve" smooth="yes" name="inserted"/>
      <point x="1036" y="8"/>
      <point x="1012" y="0"/>
      <point x="995" y="0" type="qcurve" smooth="yes"/>
      <point x="233" y="0" type="line" smooth="yes"/>
      <point x="216" y="0"/>
      <point x="192" y="8"/>
      <point x="184.5" y="19.0" type="qcurve" smooth="yes" name="inserted"/>
      <point x="177" y="30"/>
      <point x="170" y="70"/>
      <point x="170" y="102" type="qcurve" smooth="yes"/>
      <point x="170" y="134"/>
      <point x="177" y="174"/>
      <point x="184.5" y="185.5" type="qcurve" smooth="yes" name="inserted"/>
      <point x="192" y="197"/>
      <point x="216" y="205"/>
      <point x="233" y="205" type="qcurve" smooth="yes"/>
      <point x="489" y="205" type="line"/>
    </contour>
  </outline>
</glyph>
<glyph name="K" format="1">
  <advance width="1228"/>
  <unicode hex="004B"/>
  <outline>
    <contour>
      <point x="220" y="982" type="line"/>
      <point x="113" y="982" type="line" smooth="yes"/>
      <point x="96" y="982"/>
      <point x="72" y="990"/>
      <point x="64.5" y="1001.0" type="qcurve" smooth="yes" name="inserted"/>
      <point x="57" y="1012"/>
      <point x="50" y="1052"/>
      <point x="50" y="1084" type="qcurve" smooth="yes"/>
      <point x="50" y="1116"/>
      <point x="57" y="1156"/>
      <point x="64.5" y="1167.5" type="qcurve" smooth="yes" name="inserted"/>
      <point x="72" y="1179"/>
      <point x="96" y="1187"/>
      <point x="113" y="1187" type="qcurve" smooth="yes"/>
      <point x="517" y="1187" type="line" smooth="yes"/>
      <point x="534" y="1187"/>
      <point x="558" y="1179"/>
      <point x="565.5" y="1167.5" type="qcurve" smooth="yes" name="inserted"/>
      <point x="573" y="1156"/>
      <point x="580" y="1116"/>
      <point x="580" y="1084" type="qcurve" smooth="yes"/>
      <point x="580" y="1052"/>
      <point x="573" y="1012"/>
      <point x="565.5" y="1001.0" type="qcurve" smooth="yes" name="inserted"/>
      <point x="558" y="990"/>
      <point x="534" y="982"/>
      <point x="517" y="982" type="qcurve" smooth="yes"/>
      <point x="470" y="982" type="line"/>
      <point x="470" y="662" type="line"/>
      <point x="794" y="982" type="line"/>
      <point x="741" y="982" type="line" smooth="yes"/>
      <point x="724" y="982"/>
      <point x="700" y="990"/>
      <point x="692.5" y="1001.0" type="qcurve" smooth="yes" name="inserted"/>
      <point x="685" y="1012"/>
      <point x="678" y="1052"/>
      <point x="678" y="1084" type="qcurve" smooth="yes"/>
      <point x="678" y="1116"/>
      <point x="685" y="1156"/>
      <point x="692.5" y="1167.5" type="qcurve" smooth="yes" name="inserted"/>
      <point x="700" y="1179"/>
      <point x="724" y="1187"/>
      <point x="741" y="1187" type="qcurve" smooth="yes"/>
      <point x="1130" y="1187" type="line" smooth="yes"/>
      <point x="1147" y="1187"/>
      <point x="1171" y="1179"/>
      <point x="1178.5" y="1167.5" type="qcurve" smooth="yes" name="inserted"/>
      <point x="1186" y="1156"/>
      <point x="1193" y="1116"/>
      <point x="1193" y="1084" type="qcurve" smooth="yes"/>
      <point x="1193" y="1052"/>
      <point x="1186" y="1012"/>
      <point x="1178.5" y="1001.0" type="qcurve" smooth="yes" name="inserted"/>
      <point x="1171" y="990"/>
      <point x="1147" y="982"/>
      <point x="1130" y="982" type="qcurve" smooth="yes"/>
      <point x="1087" y="982" type="line"/>
      <point x="737" y="641" type="line"/>
      <point x="794" y="638"/>
      <point x="886" y="583"/>
      <point x="919" y="535" type="qcurve" smooth="yes"/>
      <point x="941" y="504"/>
      <point x="976" y="438"/>
      <point x="992.0" y="405.0" type="qcurve" smooth="yes" name="inserted"/>
      <point x="1008" y="372"/>
      <point x="1038" y="309"/>
      <point x="1054" y="282" type="qcurve" smooth="yes"/>
      <point x="1074" y="247"/>
      <point x="1123" y="205"/>
      <point x="1155" y="205" type="qcurve" smooth="yes"/>
      <point x="1165" y="205" type="line" smooth="yes"/>
      <point x="1182" y="205"/>
      <point x="1206" y="197"/>
      <point x="1213.5" y="185.5" type="qcurve" smooth="yes" name="inserted"/>
      <point x="1221" y="174"/>
      <point x="1228" y="134"/>
      <point x="1228" y="102" type="qcurve" smooth="yes"/>
      <point x="1228" y="70"/>
      <point x="1221" y="30"/>
      <point x="1213.5" y="19.0" type="qcurve" smooth="yes" name="inserted"/>
      <point x="1206" y="8"/>
      <point x="1182" y="0"/>
      <point x="1165" y="0" type="qcurve" smooth="yes"/>
      <point x="1026" y="0" type="line" smooth="yes"/>
      <point x="993" y="0"/>
      <point x="939" y="23"/>
      <point x="917.0" y="42.5" type="qcurve" smooth="yes" name="inserted"/>
      <point x="895" y="62"/>
      <point x="859" y="113"/>
      <point x="844" y="142" type="qcurve" smooth="yes"/>
      <point x="828" y="172"/>
      <point x="799" y="236"/>
      <point x="784.0" y="267.5" type="qcurve" smooth="yes" name="inserted"/>
      <point x="769" y="299"/>
      <point x="740" y="357"/>
      <point x="724" y="381" type="qcurve" smooth="yes"/>
      <point x="698" y="419"/>
      <point x="635" y="465"/>
      <point x="600" y="465" type="qcurve" smooth="yes"/>
      <point x="578.0" y="465.0" name="inserted"/>
      <point x="538.5" y="448.0"/>
      <point x="521" y="431" type="qcurve" smooth="yes"/>
      <point x="470" y="381" type="line"/>
      <point x="470" y="205" type="line"/>
      <point x="585" y="205" type="line" smooth="yes"/>
      <point x="602" y="205"/>
      <point x="626" y="197"/>
      <point x="633.5" y="185.5" type="qcurve" smooth="yes" name="inserted"/>
      <point x="641" y="174"/>
      <point x="648" y="134"/>
      <point x="648" y="102" type="qcurve" smooth="yes"/>
      <point x="648" y="70"/>
      <point x="641" y="30"/>
      <point x="633.5" y="19.0" type="qcurve" smooth="yes" name="inserted"/>
      <point x="626" y="8"/>
      <point x="602" y="0"/>
      <point x="585" y="0" type="qcurve" smooth="yes"/>
      <point x="113" y="0" type="line" smooth="yes"/>
      <point x="96" y="0"/>
      <point x="72" y="8"/>
      <point x="64.5" y="19.0" type="qcurve" smooth="yes" name="inserted"/>
      <point x="57" y="30"/>
      <point x="50" y="70"/>
      <point x="50" y="102" type="qcurve" smooth="yes"/>
      <point x="50" y="134"/>
      <point x="57" y="174"/>
      <point x="64.5" y="185.5" type="qcurve" smooth="yes" name="inserted"/>
      <point x="72" y="197"/>
      <point x="96" y="205"/>
      <point x="113" y="205" type="qcurve" smooth="yes"/>
      <point x="220" y="205" type="line"/>
    </contour>
  </outline>
</glyph>
<glyph name="L" format="1">
  <advance width="1228"/>
  <unicode hex="004C"/>
  <outline>
    <contour>
      <point x="269" y="982" type="line"/>
      <point x="123" y="982" type="line" smooth="yes"/>
      <point x="106" y="982"/>
      <point x="82" y="990"/>
      <point x="74.5" y="1001.0" type="qcurve" smooth="yes" name="inserted"/>
      <point x="67" y="1012"/>
      <point x="60" y="1052"/>
      <point x="60" y="1084" type="qcurve" smooth="yes"/>
      <point x="60" y="1116"/>
      <point x="67" y="1156"/>
      <point x="74.5" y="1167.5" type="qcurve" smooth="yes" name="inserted"/>
      <point x="82" y="1179"/>
      <point x="106" y="1187"/>
      <point x="123" y="1187" type="qcurve" smooth="yes"/>
      <point x="737" y="1187" type="line" smooth="yes"/>
      <point x="754" y="1187"/>
      <point x="778" y="1179"/>
      <point x="785.5" y="1167.5" type="qcurve" smooth="yes" name="inserted"/>
      <point x="793" y="1156"/>
      <point x="800" y="1116"/>
      <point x="800" y="1084" type="qcurve" smooth="yes"/>
      <point x="800" y="1052"/>
      <point x="793" y="1012"/>
      <point x="785.5" y="1001.0" type="qcurve" smooth="yes" name="inserted"/>
      <point x="778" y="990"/>
      <point x="754" y="982"/>
      <point x="737" y="982" type="qcurve" smooth="yes"/>
      <point x="519" y="982" type="line"/>
      <point x="519" y="215" type="line"/>
      <point x="870" y="215" type="line"/>
      <point x="870" y="527" type="line" smooth="yes"/>
      <point x="870" y="561"/>
      <point x="930" y="590"/>
      <point x="1002" y="590" type="qcurve" smooth="yes"/>
      <point x="1038" y="590"/>
      <point x="1083" y="583"/>
      <point x="1096.5" y="575.5" type="qcurve" smooth="yes" name="inserted"/>
      <point x="1110" y="568"/>
      <point x="1120" y="544"/>
      <point x="1120" y="527" type="qcurve" smooth="yes"/>
      <point x="1120" y="65" type="line" smooth="yes"/>
      <point x="1120" y="30"/>
      <point x="1090" y="0"/>
      <point x="1055" y="0" type="qcurve" smooth="yes"/>
      <point x="123" y="0" type="line" smooth="yes"/>
      <point x="106" y="0"/>
      <point x="82" y="8"/>
      <point x="74.5" y="19.0" type="qcurve" smooth="yes" name="inserted"/>
      <point x="67" y="30"/>
      <point x="60" y="70"/>
      <point x="60" y="102" type="qcurve" smooth="yes"/>
      <point x="60" y="134"/>
      <point x="67" y="174"/>
      <point x="74.5" y="185.5" type="qcurve" smooth="yes" name="inserted"/>
      <point x="82" y="197"/>
      <point x="106" y="205"/>
      <point x="123" y="205" type="qcurve" smooth="yes"/>
      <point x="269" y="205" type="line"/>
    </contour>
  </outline>
</glyph>
<glyph name="M" format="1">
  <advance width="1228"/>
  <unicode hex="004D"/>
  <outline>
    <contour>
      <point x="147" y="982" type="line"/>
      <point x="93" y="982" type="line" smooth="yes"/>
      <point x="76" y="982"/>
      <point x="52" y="990"/>
      <point x="44.5" y="1001.0" type="qcurve" smooth="yes" name="inserted"/>
      <point x="37" y="1012"/>
      <point x="30" y="1052"/>
      <point x="30" y="1084" type="qcurve" smooth="yes"/>
      <point x="30" y="1116"/>
      <point x="37" y="1156"/>
      <point x="44.5" y="1167.5" type="qcurve" smooth="yes" name="inserted"/>
      <point x="52" y="1179"/>
      <point x="76" y="1187"/>
      <point x="93" y="1187" type="qcurve" smooth="yes"/>
      <point x="377" y="1187" type="line" smooth="yes"/>
      <point x="397" y="1187"/>
      <point x="424" y="1174"/>
      <point x="431" y="1156" type="qcurve" smooth="yes"/>
      <point x="614" y="665" type="line"/>
      <point x="796" y="1156" type="line" smooth="yes"/>
      <point x="803" y="1174"/>
      <point x="830" y="1187"/>
      <point x="850" y="1187" type="qcurve" smooth="yes"/>
      <point x="1135" y="1187" type="line" smooth="yes"/>
      <point x="1152" y="1187"/>
      <point x="1176" y="1179"/>
      <point x="1183.5" y="1167.5" type="qcurve" smooth="yes" name="inserted"/>
      <point x="1191" y="1156"/>
      <point x="1198" y="1116"/>
      <point x="1198" y="1084" type="qcurve" smooth="yes"/>
      <point x="1198" y="1052"/>
      <point x="1191" y="1012"/>
      <point x="1183.5" y="1001.0" type="qcurve" smooth="yes" name="inserted"/>
      <point x="1176" y="990"/>
      <point x="1152" y="982"/>
      <point x="1135" y="982" type="qcurve" smooth="yes"/>
      <point x="1081" y="982" type="line"/>
      <point x="1095" y="205" type="line"/>
      <point x="1155" y="205" type="line" smooth="yes"/>
      <point x="1172" y="205"/>
      <point x="1196" y="197"/>
      <point x="1203.5" y="185.5" type="qcurve" smooth="yes" name="inserted"/>
      <point x="1211" y="174"/>
      <point x="1218" y="134"/>
      <point x="1218" y="102" type="qcurve" smooth="yes"/>
      <point x="1218" y="70"/>
      <point x="1211" y="30"/>
      <point x="1203.5" y="19.0" type="qcurve" smooth="yes" name="inserted"/>
      <point x="1196" y="8"/>
      <point x="1172" y="0"/>
      <point x="1155" y="0" type="qcurve" smooth="yes"/>
      <point x="781" y="0" type="line" smooth="yes"/>
      <point x="764" y="0"/>
      <point x="740" y="8"/>
      <point x="732.5" y="19.0" type="qcurve" smooth="yes" name="inserted"/>
      <point x="725" y="30"/>
      <point x="718" y="70"/>
      <point x="718" y="102" type="qcurve" smooth="yes"/>
      <point x="718" y="134"/>
      <point x="725" y="174"/>
      <point x="732.5" y="185.5" type="qcurve" smooth="yes" name="inserted"/>
      <point x="740" y="197"/>
      <point x="764" y="205"/>
      <point x="781" y="205" type="qcurve" smooth="yes"/>
      <point x="873" y="205" type="line"/>
      <point x="867" y="797" type="line"/>
      <point x="716" y="389" type="line" smooth="yes"/>
      <point x="703" y="354"/>
      <point x="658" y="325"/>
      <point x="615" y="325" type="qcurve" smooth="yes"/>
      <point x="572" y="325"/>
      <point x="526" y="354"/>
      <point x="512" y="389" type="qcurve" smooth="yes"/>
      <point x="360" y="794" type="line"/>
      <point x="354" y="205" type="line"/>
      <point x="447" y="205" type="line" smooth="yes"/>
      <point x="464" y="205"/>
      <point x="488" y="197"/>
      <point x="495.5" y="185.5" type="qcurve" smooth="yes" name="inserted"/>
      <point x="503" y="174"/>
      <point x="510" y="134"/>
      <point x="510" y="102" type="qcurve" smooth="yes"/>
      <point x="510" y="70"/>
      <point x="503" y="30"/>
      <point x="495.5" y="19.0" type="qcurve" smooth="yes" name="inserted"/>
      <point x="488" y="8"/>
      <point x="464" y="0"/>
      <point x="447" y="0" type="qcurve" smooth="yes"/>
      <point x="73" y="0" type="line" smooth="yes"/>
      <point x="56" y="0"/>
      <point x="32" y="8"/>
      <point x="24.5" y="19.0" type="qcurve" smooth="yes" name="inserted"/>
      <point x="17" y="30"/>
      <point x="10" y="70"/>
      <point x="10" y="102" type="qcurve" smooth="yes"/>
      <point x="10" y="134"/>
      <point x="17" y="174"/>
      <point x="24.5" y="185.5" type="qcurve" smooth="yes" name="inserted"/>
      <point x="32" y="197"/>
      <point x="56" y="205"/>
      <point x="73" y="205" type="qcurve" smooth="yes"/>
      <point x="132" y="205" type="line"/>
    </contour>
  </outline>
</glyph>
<glyph name="O" format="1">
  <advance width="1228"/>
  <unicode hex="004F"/>
  <outline>
    <contour>
      <point x="614" y="982" type="qcurve" smooth="yes"/>
      <point x="473" y="982"/>
      <point x="331" y="781"/>
      <point x="331" y="594" type="qcurve" smooth="yes"/>
      <point x="331" y="407"/>
      <point x="473" y="205"/>
      <point x="614" y="205" type="qcurve" smooth="yes"/>
      <point x="755" y="205"/>
      <point x="897" y="407"/>
      <point x="897" y="594" type="qcurve" smooth="yes"/>
      <point x="897" y="781"/>
      <point x="755" y="982"/>
    </contour>
    <contour>
      <point x="614" y="1209" type="qcurve" smooth="yes"/>
      <point x="738" y="1209"/>
      <point x="941" y="1124"/>
      <point x="1013.5" y="1044.0" type="qcurve" smooth="yes" name="inserted"/>
      <point x="1086" y="964"/>
      <point x="1165" y="736"/>
      <point x="1165" y="594" type="qcurve" smooth="yes"/>
      <point x="1165" y="451"/>
      <point x="1086" y="223"/>
      <point x="1013.5" y="143.5" type="qcurve" smooth="yes" name="inserted"/>
      <point x="941" y="64"/>
      <point x="738" y="-22"/>
      <point x="614" y="-22" type="qcurve" smooth="yes"/>
      <point x="490" y="-22"/>
      <point x="287" y="64"/>
      <point x="214.5" y="143.5" type="qcurve" smooth="yes" name="inserted"/>
      <point x="142" y="223"/>
      <point x="63" y="451"/>
      <point x="63" y="594" type="qcurve" smooth="yes"/>
      <point x="63" y="736"/>
      <point x="142" y="964"/>
      <point x="214.5" y="1044.0" type="qcurve" smooth="yes" name="inserted"/>
      <point x="287" y="1124"/>
      <point x="490" y="1209"/>
    </contour>
  </outline>
</glyph>
<glyph name="S" format="1">
  <advance width="1228"/>
  <unicode hex="0053"/>
  <outline>
    <contour>
      <point x="389" y="41" type="line" smooth="yes"/>
      <point x="389" y="7"/>
      <point x="341" y="-22"/>
      <point x="277" y="-22" type="qcurve" smooth="yes"/>
      <point x="213" y="-22"/>
      <point x="159" y="7"/>
      <point x="159" y="41" type="qcurve" smooth="yes"/>
      <point x="159" y="375" type="line" smooth="yes"/>
      <point x="159" y="409"/>
      <point x="202" y="438"/>
      <point x="251" y="438" type="qcurve" smooth="yes"/>
      <point x="286" y="438"/>
      <point x="327" y="420"/>
      <point x="338" y="398" type="qcurve" smooth="yes"/>
      <point x="392" y="296"/>
      <point x="540" y="191"/>
      <point x="642" y="191" type="qcurve" smooth="yes"/>
      <point x="732" y="191"/>
      <point x="822" y="264"/>
      <point x="822" y="327" type="qcurve" smooth="yes"/>
      <point x="822" y="369"/>
      <point x="779" y="423"/>
      <point x="742" y="441" type="qcurve" smooth="yes"/>
      <point x="702" y="460"/>
      <point x="596" y="485"/>
      <point x="538.0" y="497.0" type="qcurve" smooth="yes" name="inserted"/>
      <point x="480" y="509"/>
      <point x="362" y="540"/>
      <point x="311" y="567" type="qcurve" smooth="yes"/>
      <point x="276" y="585"/>
      <point x="217" y="635"/>
      <point x="195.0" y="668.5" type="qcurve" smooth="yes" name="inserted"/>
      <point x="173" y="702"/>
      <point x="149" y="790"/>
      <point x="149" y="846" type="qcurve" smooth="yes"/>
      <point x="149" y="926"/>
      <point x="205" y="1059"/>
      <point x="256.5" y="1107.0" type="qcurve" smooth="yes" name="inserted"/>
      <point x="308" y="1155"/>
      <point x="451" y="1209"/>
      <point x="538" y="1209" type="qcurve" smooth="yes"/>
      <point x="619" y="1209"/>
      <point x="754" y="1157"/>
      <point x="804" y="1109" type="qcurve"/>
      <point x="804" y="1146" type="line" smooth="yes"/>
      <point x="804" y="1180"/>
      <point x="852" y="1209"/>
      <point x="916" y="1209" type="qcurve" smooth="yes"/>
      <point x="980" y="1209"/>
      <point x="1034" y="1180"/>
      <point x="1034" y="1146" type="qcurve" smooth="yes"/>
      <point x="1034" y="872" type="line" smooth="yes"/>
      <point x="1034" y="838"/>
      <point x="991" y="809"/>
      <point x="942" y="809" type="qcurve" smooth="yes"/>
      <point x="908" y="809"/>
      <point x="871" y="825"/>
      <point x="860" y="841" type="qcurve" smooth="yes"/>
      <point x="814" y="913"/>
      <point x="668" y="996"/>
      <point x="568" y="996" type="qcurve" smooth="yes"/>
      <point x="493" y="996"/>
      <point x="412" y="920"/>
      <point x="412" y="863" type="qcurve" smooth="yes"/>
      <point x="412" y="833"/>
      <point x="450" y="796"/>
      <point x="482" y="783" type="qcurve" smooth="yes"/>
      <point x="521" y="768"/>
      <point x="630" y="749"/>
      <point x="690.5" y="737.0" type="qcurve" smooth="yes" name="inserted"/>
      <point x="751" y="725"/>
      <point x="874" y="689"/>
      <point x="927" y="657" type="qcurve" smooth="yes"/>
      <point x="961" y="636"/>
      <point x="1020" y="579"/>
      <point x="1041.5" y="541.0" type="qcurve" smooth="yes" name="inserted"/>
      <point x="1063" y="503"/>
      <point x="1087" y="405"/>
      <point x="1087" y="344" type="qcurve" smooth="yes"/>
      <point x="1087" y="263"/>
      <point x="1036" y="128"/>
      <point x="984.0" y="80.0" type="qcurve" smooth="yes" name="inserted"/>
      <point x="932" y="32"/>
      <point x="777" y="-22"/>
      <point x="672" y="-22" type="qcurve" smooth="yes"/>
      <point x="588.5" y="-22.0" name="inserted"/>
      <point x="447.0" y="28.5"/>
      <point x="389" y="79" type="qcurve"/>
    </contour>
  </outline>
</glyph>
<glyph name="T" format="1">
  <advance width="1228"/>
  <unicode hex="0054"/>
  <outline>
    <contour>
      <point x="489" y="972" type="line"/>
      <point x="308" y="972" type="line"/>
      <point x="308" y="700" type="line" smooth="yes"/>
      <point x="308" y="666"/>
      <point x="253" y="637"/>
      <point x="196" y="637" type="qcurve" smooth="yes"/>
      <point x="140" y="637"/>
      <point x="98" y="666"/>
      <point x="98" y="700" type="qcurve" smooth="yes"/>
      <point x="98" y="1122" type="line" smooth="yes"/>
      <point x="98" y="1157"/>
      <point x="128" y="1187"/>
      <point x="163" y="1187" type="qcurve" smooth="yes"/>
      <point x="1065" y="1187" type="line" smooth="yes"/>
      <point x="1100" y="1187"/>
      <point x="1130" y="1157"/>
      <point x="1130" y="1122" type="qcurve" smooth="yes"/>
      <point x="1130" y="700" type="line" smooth="yes"/>
      <point x="1130" y="666"/>
      <point x="1075" y="637"/>
      <point x="1018" y="637" type="qcurve" smooth="yes"/>
      <point x="962" y="637"/>
      <point x="920" y="666"/>
      <point x="920" y="700" type="qcurve" smooth="yes"/>
      <point x="920" y="972" type="line"/>
      <point x="739" y="972" type="line"/>
      <point x="739" y="205" type="line"/>
      <point x="955" y="205" type="line" smooth="yes"/>
      <point x="972" y="205"/>
      <point x="996" y="197"/>
      <point x="1003.5" y="185.5" type="qcurve" smooth="yes" name="inserted"/>
      <point x="1011" y="174"/>
      <point x="1018" y="134"/>
      <point x="1018" y="102" type="qcurve" smooth="yes"/>
      <point x="1018" y="70"/>
      <point x="1011" y="30"/>
      <point x="1003.5" y="19.0" type="qcurve" smooth="yes" name="inserted"/>
      <point x="996" y="8"/>
      <point x="972" y="0"/>
      <point x="955" y="0" type="qcurve" smooth="yes"/>
      <point x="273" y="0" type="line" smooth="yes"/>
      <point x="256" y="0"/>
      <point x="232" y="8"/>
      <point x="224.5" y="19.0" type="qcurve" smooth="yes" name="inserted"/>
      <point x="217" y="30"/>
      <point x="210" y="70"/>
      <point x="210" y="102" type="qcurve" smooth="yes"/>
      <point x="210" y="134"/>
      <point x="217" y="174"/>
      <point x="224.5" y="185.5" type="qcurve" smooth="yes" name="inserted"/>
      <point x="232" y="197"/>
      <point x="256" y="205"/>
      <point x="273" y="205" type="qcurve" smooth="yes"/>
      <point x="489" y="205" type="line"/>
    </contour>
  </outline>
</glyph>
<glyph name="V" format="1">
  <advance width="1228"/>
  <unicode hex="0056"/>
  <outline>
    <contour>
      <point x="53" y="982" type="line" smooth="yes"/>
      <point x="36" y="982"/>
      <point x="12" y="990"/>
      <point x="4.5" y="1001.0" type="qcurve" smooth="yes" name="inserted"/>
      <point x="-3" y="1012"/>
      <point x="-10" y="1052"/>
      <point x="-10" y="1084" type="qcurve" smooth="yes"/>
      <point x="-10" y="1116"/>
      <point x="-3" y="1156"/>
      <point x="4.5" y="1167.5" type="qcurve" smooth="yes" name="inserted"/>
      <point x="12" y="1179"/>
      <point x="36" y="1187"/>
      <point x="53" y="1187" type="qcurve" smooth="yes"/>
      <point x="487" y="1187" type="line" smooth="yes"/>
      <point x="504" y="1187"/>
      <point x="528" y="1179"/>
      <point x="535.5" y="1167.5" type="qcurve" smooth="yes" name="inserted"/>
      <point x="543" y="1156"/>
      <point x="550" y="1116"/>
      <point x="550" y="1084" type="qcurve" smooth="yes"/>
      <point x="550" y="1052"/>
      <point x="543" y="1012"/>
      <point x="535.5" y="1001.0" type="qcurve" smooth="yes" name="inserted"/>
      <point x="528" y="990"/>
      <point x="504" y="982"/>
      <point x="487" y="982" type="qcurve" smooth="yes"/>
      <point x="398" y="982" type="line"/>
      <point x="613" y="369" type="line"/>
      <point x="842" y="982" type="line"/>
      <point x="771" y="982" type="line" smooth="yes"/>
      <point x="754" y="982"/>
      <point x="730" y="990"/>
      <point x="722.5" y="1001.0" type="qcurve" smooth="yes" name="inserted"/>
      <point x="715" y="1012"/>
      <point x="708" y="1052"/>
      <point x="708" y="1084" type="qcurve" smooth="yes"/>
      <point x="708" y="1116"/>
      <point x="715" y="1156"/>
      <point x="722.5" y="1167.5" type="qcurve" smooth="yes" name="inserted"/>
      <point x="730" y="1179"/>
      <point x="754" y="1187"/>
      <point x="771" y="1187" type="qcurve" smooth="yes"/>
      <point x="1175" y="1187" type="line" smooth="yes"/>
      <point x="1192" y="1187"/>
      <point x="1216" y="1179"/>
      <point x="1223.5" y="1167.5" type="qcurve" smooth="yes" name="inserted"/>
      <point x="1231" y="1156"/>
      <point x="1238" y="1116"/>
      <point x="1238" y="1084" type="qcurve" smooth="yes"/>
      <point x="1238" y="1052"/>
      <point x="1231" y="1012"/>
      <point x="1223.5" y="1001.0" type="qcurve" smooth="yes" name="inserted"/>
      <point x="1216" y="990"/>
      <point x="1192" y="982"/>
      <point x="1175" y="982" type="qcurve" smooth="yes"/>
      <point x="1107" y="982" type="line"/>
      <point x="744" y="43" type="line" smooth="yes"/>
      <point x="737" y="25"/>
      <point x="717" y="1"/>
      <point x="701.5" y="-7.0" type="qcurve" smooth="yes" name="inserted"/>
      <point x="686" y="-15"/>
      <point x="642" y="-22"/>
      <point x="611" y="-22" type="qcurve" smooth="yes"/>
      <point x="580" y="-22"/>
      <point x="536" y="-15"/>
      <point x="521.0" y="-7.0" type="qcurve" smooth="yes" name="inserted"/>
      <point x="506" y="1"/>
      <point x="486" y="26"/>
      <point x="480" y="43" type="qcurve" smooth="yes"/>
      <point x="130" y="982" type="line"/>
    </contour>
  </outline>
</glyph>
<glyph name="Y" format="1">
  <advance width="1228"/>
  <unicode hex="0059"/>
  <outline>
    <contour>
      <point x="489" y="460" type="line"/>
      <point x="149" y="982" type="line"/>
      <point x="103" y="982" type="line" smooth="yes"/>
      <point x="86" y="982"/>
      <point x="62" y="990"/>
      <point x="54.5" y="1001.0" type="qcurve" smooth="yes" name="inserted"/>
      <point x="47" y="1012"/>
      <point x="40" y="1052"/>
      <point x="40" y="1084" type="qcurve" smooth="yes"/>
      <point x="40" y="1116"/>
      <point x="47" y="1156"/>
      <point x="54.5" y="1167.5" type="qcurve" smooth="yes" name="inserted"/>
      <point x="62" y="1179"/>
      <point x="86" y="1187"/>
      <point x="103" y="1187" type="qcurve" smooth="yes"/>
      <point x="497" y="1187" type="line" smooth="yes"/>
      <point x="514" y="1187"/>
      <point x="538" y="1179"/>
      <point x="545.5" y="1167.5" type="qcurve" smooth="yes" name="inserted"/>
      <point x="553" y="1156"/>
      <point x="560" y="1116"/>
      <point x="560" y="1084" type="qcurve" smooth="yes"/>
      <point x="560" y="1052"/>
      <point x="553" y="1012"/>
      <point x="545.5" y="1001.0" type="qcurve" smooth="yes" name="inserted"/>
      <point x="538" y="990"/>
      <point x="514" y="982"/>
      <point x="497" y="982" type="qcurve" smooth="yes"/>
      <point x="430" y="982" type="line"/>
      <point x="616" y="690" type="line"/>
      <point x="804" y="982" type="line"/>
      <point x="751" y="982" type="line" smooth="yes"/>
      <point x="734" y="982"/>
      <point x="710" y="990"/>
      <point x="702.5" y="1001.0" type="qcurve" smooth="yes" name="inserted"/>
      <point x="695" y="1012"/>
      <point x="688" y="1052"/>
      <point x="688" y="1084" type="qcurve" smooth="yes"/>
      <point x="688" y="1116"/>
      <point x="695" y="1156"/>
      <point x="702.5" y="1167.5" type="qcurve" smooth="yes" name="inserted"/>
      <point x="710" y="1179"/>
      <point x="734" y="1187"/>
      <point x="751" y="1187" type="qcurve" smooth="yes"/>
      <point x="1125" y="1187" type="line" smooth="yes"/>
      <point x="1142" y="1187"/>
      <point x="1166" y="1179"/>
      <point x="1173.5" y="1167.5" type="qcurve" smooth="yes" name="inserted"/>
      <point x="1181" y="1156"/>
      <point x="1188" y="1116"/>
      <point x="1188" y="1084" type="qcurve" smooth="yes"/>
      <point x="1188" y="1052"/>
      <point x="1181" y="1012"/>
      <point x="1173.5" y="1001.0" type="qcurve" smooth="yes" name="inserted"/>
      <point x="1166" y="990"/>
      <point x="1142" y="982"/>
      <point x="1125" y="982" type="qcurve" smooth="yes"/>
      <point x="1081" y="982" type="line"/>
      <point x="739" y="459" type="line"/>
      <point x="739" y="205" type="line"/>
      <point x="935" y="205" type="line" smooth="yes"/>
      <point x="952" y="205"/>
      <point x="976" y="197"/>
      <point x="983.5" y="185.5" type="qcurve" smooth="yes" name="inserted"/>
      <point x="991" y="174"/>
      <point x="998" y="134"/>
      <point x="998" y="102" type="qcurve" smooth="yes"/>
      <point x="998" y="70"/>
      <point x="991" y="30"/>
      <point x="983.5" y="19.0" type="qcurve" smooth="yes" name="inserted"/>
      <point x="976" y="8"/>
      <point x="952" y="0"/>
      <point x="935" y="0" type="qcurve" smooth="yes"/>
      <point x="293" y="0" type="line" smooth="yes"/>
      <point x="276" y="0"/>
      <point x="252" y="8"/>
      <point x="244.5" y="19.0" type="qcurve" smooth="yes" name="inserted"/>
      <point x="237" y="30"/>
      <point x="230" y="70"/>
      <point x="230" y="102" type="qcurve" smooth="yes"/>
      <point x="230" y="134"/>
      <point x="237" y="174"/>
      <point x="244.5" y="185.5" type="qcurve" smooth="yes" name="inserted"/>
      <point x="252" y="197"/>
      <point x="276" y="205"/>
      <point x="293" y="205" type="qcurve" smooth="yes"/>
      <point x="489" y="205" type="line"/>
    </contour>
  </outline>
</glyph>
<glyph name="backslash" format="1">
  <advance width="1228"/>
  <unicode hex="005C"/>
  <outline>
    <contour>
      <point x="171" y="1221" type="line" smooth="yes"/>
      <point x="159" y="1248"/>
      <point x="180" y="1291"/>
      <point x="203.5" y="1306.5" type="qcurve" smooth="yes" name="inserted"/>
      <point x="227" y="1322"/>
      <point x="288" y="1339"/>
      <point x="317" y="1339" type="qcurve" smooth="yes"/>
      <point x="344" y="1339"/>
      <point x="387" y="1322"/>
      <point x="395" y="1305" type="qcurve" smooth="yes"/>
      <point x="1057" y="-183" type="line" smooth="yes"/>
      <point x="1069" y="-209"/>
      <point x="1047" y="-252"/>
      <point x="1023.5" y="-267.5" type="qcurve" smooth="yes" name="inserted"/>
      <point x="1000" y="-283"/>
      <point x="938" y="-300"/>
      <point x="909" y="-300" type="qcurve" smooth="yes"/>
      <point x="883" y="-300"/>
      <point x="841" y="-284"/>
      <point x="833" y="-267" type="qcurve" smooth="yes"/>
    </contour>
  </outline>
</glyph>
<glyph name="grave" format="1">
  <advance width="1228"/>
  <unicode hex="0060"/>
  <outline>
    <contour>
      <point x="812" y="1145" type="line" smooth="yes"/>
      <point x="832" y="1133"/>
      <point x="843" y="1094"/>
      <point x="835" y="1072" type="qcurve" smooth="yes"/>
      <point x="827" y="1049"/>
      <point x="791" y="1026"/>
      <point x="767" y="1033" type="qcurve" smooth="yes"/>
      <point x="287" y="1158" type="line" smooth="yes"/>
      <point x="261" y="1165"/>
      <point x="254" y="1232"/>
      <point x="284" y="1301" type="qcurve" smooth="yes"/>
      <point x="314" y="1369"/>
      <point x="376" y="1408"/>
      <point x="404" y="1392" type="qcurve" smooth="yes"/>
    </contour>
  </outline>
</glyph>
<glyph name="c" format="1">
  <advance width="1228"/>
  <unicode hex="0063"/>
  <outline>
    <contour>
      <point x="948" y="299" type="qcurve" smooth="yes"/>
      <point x="977" y="316"/>
      <point x="1035" y="289"/>
      <point x="1060" y="230" type="qcurve" smooth="yes"/>
      <point x="1085" y="171"/>
      <point x="1066" y="105"/>
      <point x="1035" y="88" type="qcurve" smooth="yes"/>
      <point x="945" y="38"/>
      <point x="741" y="-22"/>
      <point x="634" y="-22" type="qcurve" smooth="yes"/>
      <point x="518" y="-22"/>
      <point x="331" y="50"/>
      <point x="265.0" y="114.5" type="qcurve" smooth="yes" name="inserted"/>
      <point x="199" y="179"/>
      <point x="127" y="357"/>
      <point x="127" y="462" type="qcurve" smooth="yes"/>
      <point x="127" y="569"/>
      <point x="200" y="747"/>
      <point x="264.5" y="811.0" type="qcurve" smooth="yes" name="inserted"/>
      <point x="329" y="875"/>
      <point x="503" y="946"/>
      <point x="604" y="946" type="qcurve" smooth="yes"/>
      <point x="685" y="946"/>
      <point x="798" y="889"/>
      <point x="833" y="829" type="qcurve"/>
      <point x="833" y="883" type="line" smooth="yes"/>
      <point x="833" y="917"/>
      <point x="891" y="946"/>
      <point x="955" y="946" type="qcurve" smooth="yes"/>
      <point x="987" y="946"/>
      <point x="1029" y="939"/>
      <point x="1041.0" y="931.5" type="qcurve" smooth="yes" name="inserted"/>
      <point x="1053" y="924"/>
      <point x="1063" y="900"/>
      <point x="1063" y="883" type="qcurve" smooth="yes"/>
      <point x="1063" y="562" type="line" smooth="yes"/>
      <point x="1063" y="528"/>
      <point x="1003" y="499"/>
      <point x="931" y="499" type="qcurve" smooth="yes"/>
      <point x="895" y="499"/>
      <point x="850" y="506"/>
      <point x="836.5" y="513.5" type="qcurve" smooth="yes" name="inserted"/>
      <point x="823" y="521"/>
      <point x="813" y="545"/>
      <point x="813" y="562" type="qcurve" smooth="yes"/>
      <point x="813" y="593"/>
      <point x="791" y="649"/>
      <point x="768.5" y="671.0" type="qcurve" smooth="yes" name="inserted"/>
      <point x="746" y="693"/>
      <point x="679" y="719"/>
      <point x="634" y="719" type="qcurve" smooth="yes"/>
      <point x="580" y="719"/>
      <point x="491" y="683"/>
      <point x="460.0" y="649.0" type="qcurve" smooth="yes" name="inserted"/>
      <point x="429" y="615"/>
      <point x="395" y="520"/>
      <point x="395" y="462" type="qcurve" smooth="yes"/>
      <point x="395" y="403"/>
      <point x="429" y="309"/>
      <point x="460.0" y="275.0" type="qcurve" smooth="yes" name="inserted"/>
      <point x="491" y="241"/>
      <point x="580" y="205"/>
      <point x="634" y="205" type="qcurve" smooth="yes"/>
      <point x="714" y="205"/>
      <point x="874" y="256"/>
    </contour>
  </outline>
</glyph>
<glyph name="d" format="1">
  <advance width="1228"/>
  <unicode hex="0064"/>
  <outline>
    <contour>
      <point x="1128" y="205" type="line" smooth="yes"/>
      <point x="1145" y="205"/>
      <point x="1169" y="197"/>
      <point x="1176.5" y="186.0" type="qcurve" smooth="yes" name="inserted"/>
      <point x="1184" y="175"/>
      <point x="1191" y="135"/>
      <point x="1191" y="103" type="qcurve" smooth="yes"/>
      <point x="1191" y="71"/>
      <point x="1184" y="31"/>
      <point x="1176.5" y="19.5" type="qcurve" smooth="yes" name="inserted"/>
      <point x="1169" y="8"/>
      <point x="1145" y="0"/>
      <point x="1128" y="0" type="qcurve" smooth="yes"/>
      <point x="894" y="0" type="line" smooth="yes"/>
      <point x="860" y="0"/>
      <point x="831" y="29"/>
      <point x="831" y="63" type="qcurve" smooth="yes"/>
      <point x="831" y="132" type="line"/>
      <point x="779" y="58"/>
      <point x="625" y="-22"/>
      <point x="528" y="-22" type="qcurve" smooth="yes"/>
      <point x="429" y="-22"/>
      <point x="270" y="49"/>
      <point x="213.5" y="111.5" type="qcurve" smooth="yes" name="inserted"/>
      <point x="157" y="174"/>
      <point x="97" y="346"/>
      <point x="97" y="447" type="qcurve" smooth="yes"/>
      <point x="97" y="548"/>
      <point x="157" y="720"/>
      <point x="213.5" y="782.5" type="qcurve" smooth="yes" name="inserted"/>
      <point x="270" y="845"/>
      <point x="429" y="916"/>
      <point x="528" y="916" type="qcurve" smooth="yes"/>
      <point x="607" y="916"/>
      <point x="740" y="856"/>
      <point x="791" y="801" type="qcurve"/>
      <point x="791" y="1107" type="line"/>
      <point x="594" y="1107" type="line" smooth="yes"/>
      <point x="577" y="1107"/>
      <point x="553" y="1115"/>
      <point x="545.5" y="1126.0" type="qcurve" smooth="yes" name="inserted"/>
      <point x="538" y="1137"/>
      <point x="531" y="1177"/>
      <point x="531" y="1209" type="qcurve" smooth="yes"/>
      <point x="531" y="1241"/>
      <point x="538" y="1281"/>
      <point x="545.5" y="1292.5" type="qcurve" smooth="yes" name="inserted"/>
      <point x="553" y="1304"/>
      <point x="577" y="1312"/>
      <point x="594" y="1312" type="qcurve" smooth="yes"/>
      <point x="978" y="1312" type="line" smooth="yes"/>
      <point x="1012" y="1312"/>
      <point x="1041" y="1283"/>
      <point x="1041" y="1249" type="qcurve" smooth="yes"/>
      <point x="1041" y="205" type="line"/>
    </contour>
    <contour>
      <point x="798" y="447" type="qcurve" smooth="yes"/>
      <point x="798" y="508"/>
      <point x="761" y="599"/>
      <point x="729.5" y="629.0" type="qcurve" smooth="yes" name="inserted"/>
      <point x="698" y="659"/>
      <point x="615" y="689"/>
      <point x="568" y="689" type="qcurve" smooth="yes"/>
      <point x="476" y="689"/>
      <point x="365" y="565"/>
      <point x="365" y="447" type="qcurve" smooth="yes"/>
      <point x="365" y="329"/>
      <point x="476" y="205"/>
      <point x="568" y="205" type="qcurve" smooth="yes"/>
      <point x="615" y="205"/>
      <point x="698" y="235"/>
      <point x="729.5" y="265.0" type="qcurve" smooth="yes" name="inserted"/>
      <point x="761" y="295"/>
      <point x="798" y="386"/>
    </contour>
  </outline>
</glyph>
<glyph name="f" format="1">
  <advance width="1228"/>
  <unicode hex="0066"/>
  <outline>
    <contour>
      <point x="413" y="205" type="line"/>
      <point x="413" y="649" type="line"/>
      <point x="230" y="649" type="line" smooth="yes"/>
      <point x="213" y="649"/>
      <point x="189" y="659"/>
      <point x="181.5" y="671.0" type="qcurve" smooth="yes" name="inserted"/>
      <point x="174" y="683"/>
      <point x="167" y="724"/>
      <point x="167" y="756" type="qcurve" smooth="yes"/>
      <point x="167" y="788"/>
      <point x="174" y="830"/>
      <point x="181.5" y="842.0" type="qcurve" smooth="yes" name="inserted"/>
      <point x="189" y="854"/>
      <point x="213" y="864"/>
      <point x="230" y="864" type="qcurve" smooth="yes"/>
      <point x="413" y="864" type="line"/>
      <point x="413" y="937" type="line" smooth="yes"/>
      <point x="413" y="1125"/>
      <point x="595" y="1317"/>
      <point x="770" y="1317" type="qcurve" smooth="yes"/>
      <point x="841" y="1317"/>
      <point x="992" y="1291"/>
      <point x="1074" y="1260" type="qcurve" smooth="yes"/>
      <point x="1091" y="1254"/>
      <point x="1114" y="1234"/>
      <point x="1119.5" y="1218.5" type="qcurve" smooth="yes" name="inserted"/>
      <point x="1125" y="1203"/>
      <point x="1122" y="1159"/>
      <point x="1114" y="1128" type="qcurve" smooth="yes"/>
      <point x="1106" y="1098"/>
      <point x="1085" y="1062"/>
      <point x="1072.0" y="1054.0" type="qcurve" smooth="yes" name="inserted"/>
      <point x="1059" y="1046"/>
      <point x="1030" y="1046"/>
      <point x="1014" y="1051" type="qcurve" smooth="yes"/>
      <point x="950" y="1071"/>
      <point x="843" y="1090"/>
      <point x="792" y="1090" type="qcurve" smooth="yes"/>
      <point x="730" y="1090"/>
      <point x="663" y="1011"/>
      <point x="663" y="924" type="qcurve" smooth="yes"/>
      <point x="663" y="864" type="line"/>
      <point x="974" y="864" type="line" smooth="yes"/>
      <point x="991" y="864"/>
      <point x="1015" y="854"/>
      <point x="1022.5" y="842.0" type="qcurve" smooth="yes" name="inserted"/>
      <point x="1030" y="830"/>
      <point x="1037" y="788"/>
      <point x="1037" y="756" type="qcurve" smooth="yes"/>
      <point x="1037" y="724"/>
      <point x="1030" y="683"/>
      <point x="1022.5" y="671.0" type="qcurve" smooth="yes" name="inserted"/>
      <point x="1015" y="659"/>
      <point x="991" y="649"/>
      <point x="974" y="649" type="qcurve" smooth="yes"/>
      <point x="663" y="649" type="line"/>
      <point x="663" y="205" type="line"/>
      <point x="944" y="205" type="line" smooth="yes"/>
      <point x="961" y="205"/>
      <point x="985" y="197"/>
      <point x="992.5" y="185.5" type="qcurve" smooth="yes" name="inserted"/>
      <point x="1000" y="174"/>
      <point x="1007" y="134"/>
      <point x="1007" y="102" type="qcurve" smooth="yes"/>
      <point x="1007" y="70"/>
      <point x="1000" y="30"/>
      <point x="992.5" y="19.0" type="qcurve" smooth="yes" name="inserted"/>
      <point x="985" y="8"/>
      <point x="961" y="0"/>
      <point x="944" y="0" type="qcurve" smooth="yes"/>
      <point x="230" y="0" type="line" smooth="yes"/>
      <point x="213" y="0"/>
      <point x="189" y="8"/>
      <point x="181.5" y="19.0" type="qcurve" smooth="yes" name="inserted"/>
      <point x="174" y="30"/>
      <point x="167" y="70"/>
      <point x="167" y="102" type="qcurve" smooth="yes"/>
      <point x="167" y="134"/>
      <point x="174" y="174"/>
      <point x="181.5" y="185.5" type="qcurve" smooth="yes" name="inserted"/>
      <point x="189" y="197"/>
      <point x="213" y="205"/>
      <point x="230" y="205" type="qcurve" smooth="yes"/>
    </contour>
  </outline>
</glyph>
<glyph name="h" format="1">
  <advance width="1228"/>
  <unicode hex="0068"/>
  <outline>
    <contour>
      <point x="207" y="1107" type="line"/>
      <point x="110" y="1107" type="line" smooth="yes"/>
      <point x="93" y="1107"/>
      <point x="69" y="1115"/>
      <point x="61.5" y="1126.0" type="qcurve" smooth="yes" name="inserted"/>
      <point x="54" y="1137"/>
      <point x="47" y="1177"/>
      <point x="47" y="1209" type="qcurve" smooth="yes"/>
      <point x="47" y="1241"/>
      <point x="54" y="1281"/>
      <point x="61.5" y="1292.5" type="qcurve" smooth="yes" name="inserted"/>
      <point x="69" y="1304"/>
      <point x="93" y="1312"/>
      <point x="110" y="1312" type="qcurve" smooth="yes"/>
      <point x="394" y="1312" type="line" smooth="yes"/>
      <point x="428" y="1312"/>
      <point x="457" y="1283"/>
      <point x="457" y="1249" type="qcurve" smooth="yes"/>
      <point x="457" y="763" type="line"/>
      <point x="520" y="859"/>
      <point x="664" y="946"/>
      <point x="747" y="946" type="qcurve" smooth="yes"/>
      <point x="816" y="946"/>
      <point x="928" y="900"/>
      <point x="967.0" y="858.0" type="qcurve" smooth="yes" name="inserted"/>
      <point x="1006" y="816"/>
      <point x="1049" y="695"/>
      <point x="1049" y="620" type="qcurve" smooth="yes"/>
      <point x="1049" y="205" type="line"/>
      <point x="1126" y="205" type="line" smooth="yes"/>
      <point x="1143" y="205"/>
      <point x="1167" y="197"/>
      <point x="1174.5" y="185.5" type="qcurve" smooth="yes" name="inserted"/>
      <point x="1182" y="174"/>
      <point x="1189" y="134"/>
      <point x="1189" y="102" type="qcurve" smooth="yes"/>
      <point x="1189" y="70"/>
      <point x="1182" y="30"/>
      <point x="1174.5" y="19.0" type="qcurve" smooth="yes" name="inserted"/>
      <point x="1167" y="8"/>
      <point x="1143" y="0"/>
      <point x="1126" y="0" type="qcurve" smooth="yes"/>
      <point x="752" y="0" type="line" smooth="yes"/>
      <point x="735" y="0"/>
      <point x="711" y="8"/>
      <point x="703.5" y="19.0" type="qcurve" smooth="yes" name="inserted"/>
      <point x="696" y="30"/>
      <point x="689" y="70"/>
      <point x="689" y="102" type="qcurve" smooth="yes"/>
      <point x="689" y="134"/>
      <point x="696" y="174"/>
      <point x="703.5" y="185.5" type="qcurve" smooth="yes" name="inserted"/>
      <point x="711" y="197"/>
      <point x="735" y="205"/>
      <point x="752" y="205" type="qcurve" smooth="yes"/>
      <point x="799" y="205" type="line"/>
      <point x="799" y="561" type="line" smooth="yes"/>
      <point x="799" y="635"/>
      <point x="748" y="719"/>
      <point x="682" y="719" type="qcurve" smooth="yes"/>
      <point x="637" y="719"/>
      <point x="556" y="662"/>
      <point x="525.0" y="614.0" type="qcurve" smooth="yes" name="inserted"/>
      <point x="494" y="566"/>
      <point x="457" y="438"/>
      <point x="457" y="368" type="qcurve" smooth="yes"/>
      <point x="457" y="205" type="line"/>
      <point x="504" y="205" type="line" smooth="yes"/>
      <point x="521" y="205"/>
      <point x="545" y="197"/>
      <point x="552.5" y="185.5" type="qcurve" smooth="yes" name="inserted"/>
      <point x="560" y="174"/>
      <point x="567" y="134"/>
      <point x="567" y="102" type="qcurve" smooth="yes"/>
      <point x="567" y="70"/>
      <point x="560" y="30"/>
      <point x="552.5" y="19.0" type="qcurve" smooth="yes" name="inserted"/>
      <point x="545" y="8"/>
      <point x="521" y="0"/>
      <point x="504" y="0" type="qcurve" smooth="yes"/>
      <point x="130" y="0" type="line" smooth="yes"/>
      <point x="113" y="0"/>
      <point x="89" y="8"/>
      <point x="81.5" y="19.0" type="qcurve" smooth="yes" name="inserted"/>
      <point x="74" y="30"/>
      <point x="67" y="70"/>
      <point x="67" y="102" type="qcurve" smooth="yes"/>
      <point x="67" y="134"/>
      <point x="74" y="174"/>
      <point x="81.5" y="185.5" type="qcurve" smooth="yes" name="inserted"/>
      <point x="89" y="197"/>
      <point x="113" y="205"/>
      <point x="130" y="205" type="qcurve" smooth="yes"/>
      <point x="207" y="205" type="line"/>
    </contour>
  </outline>
</glyph>
<glyph name="k" format="1">
  <advance width="1228"/>
  <unicode hex="006B"/>
  <outline>
    <contour>
      <point x="217" y="1107" type="line"/>
      <point x="120" y="1107" type="line" smooth="yes"/>
      <point x="103" y="1107"/>
      <point x="79" y="1115"/>
      <point x="71.5" y="1126.0" type="qcurve" smooth="yes" name="inserted"/>
      <point x="64" y="1137"/>
      <point x="57" y="1177"/>
      <point x="57" y="1209" type="qcurve" smooth="yes"/>
      <point x="57" y="1241"/>
      <point x="64" y="1281"/>
      <point x="71.5" y="1292.5" type="qcurve" smooth="yes" name="inserted"/>
      <point x="79" y="1304"/>
      <point x="103" y="1312"/>
      <point x="120" y="1312" type="qcurve" smooth="yes"/>
      <point x="404" y="1312" type="line" smooth="yes"/>
      <point x="438" y="1312"/>
      <point x="467" y="1283"/>
      <point x="467" y="1249" type="qcurve" smooth="yes"/>
      <point x="467" y="527" type="line"/>
      <point x="727" y="739" type="line"/>
      <point x="677" y="739" type="line" smooth="yes"/>
      <point x="660" y="739"/>
      <point x="636" y="747"/>
      <point x="628.5" y="757.0" type="qcurve" smooth="yes" name="inserted"/>
      <point x="621" y="767"/>
      <point x="614" y="803"/>
      <point x="614" y="831" type="qcurve" smooth="yes"/>
      <point x="614" y="887"/>
      <point x="643" y="924"/>
      <point x="677" y="924" type="qcurve" smooth="yes"/>
      <point x="1091" y="924" type="line" smooth="yes"/>
      <point x="1125" y="924"/>
      <point x="1154" y="887"/>
      <point x="1154" y="831" type="qcurve" smooth="yes"/>
      <point x="1154" y="803"/>
      <point x="1147" y="767"/>
      <point x="1139.5" y="757.0" type="qcurve" smooth="yes" name="inserted"/>
      <point x="1132" y="747"/>
      <point x="1108" y="739"/>
      <point x="1091" y="739" type="qcurve" smooth="yes"/>
      <point x="1051" y="739" type="line"/>
      <point x="802" y="538" type="line"/>
      <point x="1045" y="205" type="line"/>
      <point x="1106" y="205" type="line" smooth="yes"/>
      <point x="1123" y="205"/>
      <point x="1147" y="197"/>
      <point x="1154.5" y="185.5" type="qcurve" smooth="yes" name="inserted"/>
      <point x="1162" y="174"/>
      <point x="1169" y="134"/>
      <point x="1169" y="102" type="qcurve" smooth="yes"/>
      <point x="1169" y="70"/>
      <point x="1162" y="30"/>
      <point x="1154.5" y="19.0" type="qcurve" smooth="yes" name="inserted"/>
      <point x="1147" y="8"/>
      <point x="1123" y="0"/>
      <point x="1106" y="0" type="qcurve" smooth="yes"/>
      <point x="935" y="0" type="line" smooth="yes"/>
      <point x="912" y="0"/>
      <point x="872" y="18"/>
      <point x="857" y="40" type="qcurve" smooth="yes"/>
      <point x="605" y="390" type="line"/>
      <point x="467" y="285" type="line"/>
      <point x="467" y="205" type="line"/>
      <point x="554" y="205" type="line" smooth="yes"/>
      <point x="571" y="205"/>
      <point x="595" y="197"/>
      <point x="602.5" y="185.5" type="qcurve" smooth="yes" name="inserted"/>
      <point x="610" y="174"/>
      <point x="617" y="134"/>
      <point x="617" y="102" type="qcurve" smooth="yes"/>
      <point x="617" y="70"/>
      <point x="610" y="30"/>
      <point x="602.5" y="19.0" type="qcurve" smooth="yes" name="inserted"/>
      <point x="595" y="8"/>
      <point x="571" y="0"/>
      <point x="554" y="0" type="qcurve" smooth="yes"/>
      <point x="140" y="0" type="line" smooth="yes"/>
      <point x="123" y="0"/>
      <point x="99" y="8"/>
      <point x="91.5" y="19.0" type="qcurve" smooth="yes" name="inserted"/>
      <point x="84" y="30"/>
      <point x="77" y="70"/>
      <point x="77" y="102" type="qcurve" smooth="yes"/>
      <point x="77" y="134"/>
      <point x="84" y="174"/>
      <point x="91.5" y="185.5" type="qcurve" smooth="yes" name="inserted"/>
      <point x="99" y="197"/>
      <point x="123" y="205"/>
      <point x="140" y="205" type="qcurve" smooth="yes"/>
      <point x="217" y="205" type="line"/>
    </contour>
  </outline>
</glyph>
<glyph name="l" format="1">
  <advance width="1228"/>
  <unicode hex="006C"/>
  <outline>
    <contour>
      <point x="493" y="1107" type="line"/>
      <point x="260" y="1107" type="line" smooth="yes"/>
      <point x="243" y="1107"/>
      <point x="219" y="1115"/>
      <point x="211.5" y="1126.0" type="qcurve" smooth="yes" name="inserted"/>
      <point x="204" y="1137"/>
      <point x="197" y="1177"/>
      <point x="197" y="1209" type="qcurve" smooth="yes"/>
      <point x="197" y="1241"/>
      <point x="204" y="1281"/>
      <point x="211.5" y="1292.5" type="qcurve" smooth="yes" name="inserted"/>
      <point x="219" y="1304"/>
      <point x="243" y="1312"/>
      <point x="260" y="1312" type="qcurve" smooth="yes"/>
      <point x="680" y="1312" type="line" smooth="yes"/>
      <point x="714" y="1312"/>
      <point x="743" y="1283"/>
      <point x="743" y="1249" type="qcurve" smooth="yes"/>
      <point x="743" y="205" type="line"/>
      <point x="1024" y="205" type="line" smooth="yes"/>
      <point x="1041" y="205"/>
      <point x="1065" y="197"/>
      <point x="1072.5" y="185.5" type="qcurve" smooth="yes" name="inserted"/>
      <point x="1080" y="174"/>
      <point x="1087" y="134"/>
      <point x="1087" y="102" type="qcurve" smooth="yes"/>
      <point x="1087" y="70"/>
      <point x="1080" y="30"/>
      <point x="1072.5" y="19.0" type="qcurve" smooth="yes" name="inserted"/>
      <point x="1065" y="8"/>
      <point x="1041" y="0"/>
      <point x="1024" y="0" type="qcurve" smooth="yes"/>
      <point x="220" y="0" type="line" smooth="yes"/>
      <point x="203" y="0"/>
      <point x="179" y="8"/>
      <point x="171.5" y="19.0" type="qcurve" smooth="yes" name="inserted"/>
      <point x="164" y="30"/>
      <point x="157" y="70"/>
      <point x="157" y="102" type="qcurve" smooth="yes"/>
      <point x="157" y="134"/>
      <point x="164" y="174"/>
      <point x="171.5" y="185.5" type="qcurve" smooth="yes" name="inserted"/>
      <point x="179" y="197"/>
      <point x="203" y="205"/>
      <point x="220" y="205" type="qcurve" smooth="yes"/>
      <point x="493" y="205" type="line"/>
    </contour>
  </outline>
</glyph>
<glyph name="n" format="1">
  <advance width="1228"/>
  <unicode hex="006E"/>
  <outline>
    <contour>
      <point x="217" y="719" type="line"/>
      <point x="120" y="719" type="line" smooth="yes"/>
      <point x="103" y="719"/>
      <point x="79" y="727"/>
      <point x="71.5" y="738.0" type="qcurve" smooth="yes" name="inserted"/>
      <point x="64" y="749"/>
      <point x="57" y="789"/>
      <point x="57" y="821" type="qcurve" smooth="yes"/>
      <point x="57" y="853"/>
      <point x="64" y="893"/>
      <point x="71.5" y="904.5" type="qcurve" smooth="yes" name="inserted"/>
      <point x="79" y="916"/>
      <point x="103" y="924"/>
      <point x="120" y="924" type="qcurve" smooth="yes"/>
      <point x="364" y="924" type="line" smooth="yes"/>
      <point x="398" y="924"/>
      <point x="427" y="895"/>
      <point x="427" y="861" type="qcurve" smooth="yes"/>
      <point x="427" y="716" type="line"/>
      <point x="497" y="838"/>
      <point x="663" y="946"/>
      <point x="757" y="946" type="qcurve" smooth="yes"/>
      <point x="826" y="946"/>
      <point x="938" y="900"/>
      <point x="977.0" y="858.0" type="qcurve" smooth="yes" name="inserted"/>
      <point x="1016" y="816"/>
      <point x="1059" y="695"/>
      <point x="1059" y="620" type="qcurve" smooth="yes"/>
      <point x="1059" y="205" type="line"/>
      <point x="1136" y="205" type="line" smooth="yes"/>
      <point x="1153" y="205"/>
      <point x="1177" y="197"/>
      <point x="1184.5" y="185.5" type="qcurve" smooth="yes" name="inserted"/>
      <point x="1192" y="174"/>
      <point x="1199" y="134"/>
      <point x="1199" y="102" type="qcurve" smooth="yes"/>
      <point x="1199" y="70"/>
      <point x="1192" y="30"/>
      <point x="1184.5" y="19.0" type="qcurve" smooth="yes" name="inserted"/>
      <point x="1177" y="8"/>
      <point x="1153" y="0"/>
      <point x="1136" y="0" type="qcurve" smooth="yes"/>
      <point x="762" y="0" type="line" smooth="yes"/>
      <point x="745" y="0"/>
      <point x="721" y="8"/>
      <point x="713.5" y="19.0" type="qcurve" smooth="yes" name="inserted"/>
      <point x="706" y="30"/>
      <point x="699" y="70"/>
      <point x="699" y="102" type="qcurve" smooth="yes"/>
      <point x="699" y="134"/>
      <point x="706" y="174"/>
      <point x="713.5" y="185.5" type="qcurve" smooth="yes" name="inserted"/>
      <point x="721" y="197"/>
      <point x="745" y="205"/>
      <point x="762" y="205" type="qcurve" smooth="yes"/>
      <point x="809" y="205" type="line"/>
      <point x="809" y="561" type="line" smooth="yes"/>
      <point x="809" y="635"/>
      <point x="758" y="719"/>
      <point x="692" y="719" type="qcurve" smooth="yes"/>
      <point x="647" y="719"/>
      <point x="566" y="662"/>
      <point x="535.0" y="614.0" type="qcurve" smooth="yes" name="inserted"/>
      <point x="504" y="566"/>
      <point x="467" y="438"/>
      <point x="467" y="368" type="qcurve" smooth="yes"/>
      <point x="467" y="205" type="line"/>
      <point x="514" y="205" type="line" smooth="yes"/>
      <point x="531" y="205"/>
      <point x="555" y="197"/>
      <point x="562.5" y="185.5" type="qcurve" smooth="yes" name="inserted"/>
      <point x="570" y="174"/>
      <point x="577" y="134"/>
      <point x="577" y="102" type="qcurve" smooth="yes"/>
      <point x="577" y="70"/>
      <point x="570" y="30"/>
      <point x="562.5" y="19.0" type="qcurve" smooth="yes" name="inserted"/>
      <point x="555" y="8"/>
      <point x="531" y="0"/>
      <point x="514" y="0" type="qcurve" smooth="yes"/>
      <point x="140" y="0" type="line" smooth="yes"/>
      <point x="123" y="0"/>
      <point x="99" y="8"/>
      <point x="91.5" y="19.0" type="qcurve" smooth="yes" name="inserted"/>
      <point x="84" y="30"/>
      <point x="77" y="70"/>
      <point x="77" y="102" type="qcurve" smooth="yes"/>
      <point x="77" y="134"/>
      <point x="84" y="174"/>
      <point x="91.5" y="185.5" type="qcurve" smooth="yes" name="inserted"/>
      <point x="99" y="197"/>
      <point x="123" y="205"/>
      <point x="140" y="205" type="qcurve" smooth="yes"/>
      <point x="217" y="205" type="line"/>
    </contour>
  </outline>
</glyph>
<glyph name="o" format="1">
  <advance width="1228"/>
  <unicode hex="006F"/>
  <outline>
    <contour>
      <point x="614" y="-22" type="qcurve" smooth="yes"/>
      <point x="498" y="-22"/>
      <point x="311" y="50"/>
      <point x="245.0" y="114.5" type="qcurve" smooth="yes" name="inserted"/>
      <point x="179" y="179"/>
      <point x="107" y="357"/>
      <point x="107" y="462" type="qcurve" smooth="yes"/>
      <point x="107" y="567"/>
      <point x="179" y="744"/>
      <point x="245.0" y="808.5" type="qcurve" smooth="yes" name="inserted"/>
      <point x="311" y="873"/>
      <point x="498" y="946"/>
      <point x="614" y="946" type="qcurve" smooth="yes"/>
      <point x="730" y="946"/>
      <point x="917" y="873"/>
      <point x="983.0" y="808.5" type="qcurve" smooth="yes" name="inserted"/>
      <point x="1049" y="744"/>
      <point x="1121" y="567"/>
      <point x="1121" y="462" type="qcurve" smooth="yes"/>
      <point x="1121" y="357"/>
      <point x="1049" y="179"/>
      <point x="983.0" y="114.5" type="qcurve" smooth="yes" name="inserted"/>
      <point x="917" y="50"/>
      <point x="730" y="-22"/>
    </contour>
    <contour>
      <point x="614" y="719" type="qcurve" smooth="yes"/>
      <point x="560" y="719"/>
      <point x="471" y="683"/>
      <point x="440.0" y="649.0" type="qcurve" smooth="yes" name="inserted"/>
      <point x="409" y="615"/>
      <point x="375" y="520"/>
      <point x="375" y="462" type="qcurve" smooth="yes"/>
      <point x="375" y="403"/>
      <point x="409" y="309"/>
      <point x="440.0" y="275.0" type="qcurve" smooth="yes" name="inserted"/>
      <point x="471" y="241"/>
      <point x="560" y="205"/>
      <point x="614" y="205" type="qcurve" smooth="yes"/>
      <point x="668" y="205"/>
      <point x="757" y="241"/>
      <point x="788.0" y="275.0" type="qcurve" smooth="yes" name="inserted"/>
      <point x="819" y="309"/>
      <point x="853" y="403"/>
      <point x="853" y="462" type="qcurve" smooth="yes"/>
      <point x="853" y="520"/>
      <point x="819" y="615"/>
      <point x="788.0" y="649.0" type="qcurve" smooth="yes" name="inserted"/>
      <point x="757" y="683"/>
      <point x="668" y="719"/>
    </contour>
  </outline>
</glyph>
<glyph name="p" format="1">
  <advance width="1228"/>
  <unicode hex="0070"/>
  <outline>
    <contour>
      <point x="187" y="719" type="line"/>
      <point x="100" y="719" type="line" smooth="yes"/>
      <point x="83" y="719"/>
      <point x="59" y="727"/>
      <point x="51.5" y="738.0" type="qcurve" smooth="yes" name="inserted"/>
      <point x="44" y="749"/>
      <point x="37" y="789"/>
      <point x="37" y="821" type="qcurve" smooth="yes"/>
      <point x="37" y="853"/>
      <point x="44" y="893"/>
      <point x="51.5" y="904.5" type="qcurve" smooth="yes" name="inserted"/>
      <point x="59" y="916"/>
      <point x="83" y="924"/>
      <point x="100" y="924" type="qcurve" smooth="yes"/>
      <point x="334" y="924" type="line" smooth="yes"/>
      <point x="368" y="924"/>
      <point x="397" y="895"/>
      <point x="397" y="861" type="qcurve" smooth="yes"/>
      <point x="397" y="791" type="line"/>
      <point x="448" y="866"/>
      <point x="603" y="946"/>
      <point x="700" y="946" type="qcurve" smooth="yes"/>
      <point x="799" y="946"/>
      <point x="958" y="875"/>
      <point x="1014.5" y="812.5" type="qcurve" smooth="yes" name="inserted"/>
      <point x="1071" y="750"/>
      <point x="1131" y="578"/>
      <point x="1131" y="477" type="qcurve" smooth="yes"/>
      <point x="1131" y="376"/>
      <point x="1071" y="204"/>
      <point x="1014.5" y="141.5" type="qcurve" smooth="yes" name="inserted"/>
      <point x="958" y="79"/>
      <point x="799" y="8"/>
      <point x="700" y="8" type="qcurve" smooth="yes"/>
      <point x="620" y="8"/>
      <point x="488" y="68"/>
      <point x="437" y="123" type="qcurve"/>
      <point x="437" y="-188" type="line"/>
      <point x="684" y="-188" type="line" smooth="yes"/>
      <point x="701" y="-188"/>
      <point x="725" y="-196"/>
      <point x="732.5" y="-207.5" type="qcurve" smooth="yes" name="inserted"/>
      <point x="740" y="-219"/>
      <point x="747" y="-259"/>
      <point x="747" y="-291" type="qcurve" smooth="yes"/>
      <point x="747" y="-323"/>
      <point x="740" y="-363"/>
      <point x="732.5" y="-374.0" type="qcurve" smooth="yes" name="inserted"/>
      <point x="725" y="-385"/>
      <point x="701" y="-393"/>
      <point x="684" y="-393" type="qcurve" smooth="yes"/>
      <point x="100" y="-393" type="line" smooth="yes"/>
      <point x="83" y="-393"/>
      <point x="59" y="-385"/>
      <point x="51.5" y="-374.0" type="qcurve" smooth="yes" name="inserted"/>
      <point x="44" y="-363"/>
      <point x="37" y="-323"/>
      <point x="37" y="-291" type="qcurve" smooth="yes"/>
      <point x="37" y="-259"/>
      <point x="44" y="-219"/>
      <point x="51.5" y="-207.5" type="qcurve" smooth="yes" name="inserted"/>
      <point x="59" y="-196"/>
      <point x="83" y="-188"/>
      <point x="100" y="-188" type="qcurve" smooth="yes"/>
      <point x="187" y="-188" type="line"/>
    </contour>
    <contour>
      <point x="430" y="477" type="qcurve" smooth="yes"/>
      <point x="430" y="416"/>
      <point x="467" y="325"/>
      <point x="498.5" y="295.0" type="qcurve" smooth="yes" name="inserted"/>
      <point x="530" y="265"/>
      <point x="613" y="235"/>
      <point x="660" y="235" type="qcurve" smooth="yes"/>
      <point x="752" y="235"/>
      <point x="863" y="359"/>
      <point x="863" y="477" type="qcurve" smooth="yes"/>
      <point x="863" y="595"/>
      <point x="752" y="719"/>
      <point x="660" y="719" type="qcurve" smooth="yes"/>
      <point x="613" y="719"/>
      <point x="530" y="689"/>
      <point x="498.5" y="659.0" type="qcurve" smooth="yes" name="inserted"/>
      <point x="467" y="629"/>
      <point x="430" y="538"/>
    </contour>
  </outline>
</glyph>
<glyph name="q" format="1">
  <advance width="1228"/>
  <unicode hex="0071"/>
  <outline>
    <contour>
      <point x="791" y="123" type="line"/>
      <point x="740" y="68"/>
      <point x="607" y="8"/>
      <point x="528" y="8" type="qcurve" smooth="yes"/>
      <point x="429" y="8"/>
      <point x="270" y="79"/>
      <point x="213.5" y="141.5" type="qcurve" smooth="yes" name="inserted"/>
      <point x="157" y="204"/>
      <point x="97" y="376"/>
      <point x="97" y="477" type="qcurve" smooth="yes"/>
      <point x="97" y="578"/>
      <point x="157" y="750"/>
      <point x="213.5" y="812.5" type="qcurve" smooth="yes" name="inserted"/>
      <point x="270" y="875"/>
      <point x="429" y="946"/>
      <point x="528" y="946" type="qcurve" smooth="yes"/>
      <point x="625" y="946"/>
      <point x="779" y="866"/>
      <point x="831" y="791" type="qcurve"/>
      <point x="831" y="861" type="line" smooth="yes"/>
      <point x="831" y="895"/>
      <point x="860" y="924"/>
      <point x="894" y="924" type="qcurve" smooth="yes"/>
      <point x="1128" y="924" type="line" smooth="yes"/>
      <point x="1145" y="924"/>
      <point x="1169" y="916"/>
      <point x="1176.5" y="904.5" type="qcurve" smooth="yes" name="inserted"/>
      <point x="1184" y="893"/>
      <point x="1191" y="853"/>
      <point x="1191" y="821" type="qcurve" smooth="yes"/>
      <point x="1191" y="789"/>
      <point x="1184" y="749"/>
      <point x="1176.5" y="738.0" type="qcurve" smooth="yes" name="inserted"/>
      <point x="1169" y="727"/>
      <point x="1145" y="719"/>
      <point x="1128" y="719" type="qcurve" smooth="yes"/>
      <point x="1041" y="719" type="line"/>
      <point x="1041" y="-188" type="line"/>
      <point x="1148" y="-188" type="line" smooth="yes"/>
      <point x="1165" y="-188"/>
      <point x="1189" y="-196"/>
      <point x="1196.5" y="-207.5" type="qcurve" smooth="yes" name="inserted"/>
      <point x="1204" y="-219"/>
      <point x="1211" y="-259"/>
      <point x="1211" y="-291" type="qcurve" smooth="yes"/>
      <point x="1211" y="-323"/>
      <point x="1204" y="-363"/>
      <point x="1196.5" y="-374.0" type="qcurve" smooth="yes" name="inserted"/>
      <point x="1189" y="-385"/>
      <point x="1165" y="-393"/>
      <point x="1148" y="-393" type="qcurve" smooth="yes"/>
      <point x="574" y="-393" type="line" smooth="yes"/>
      <point x="557" y="-393"/>
      <point x="533" y="-385"/>
      <point x="525.5" y="-374.0" type="qcurve" smooth="yes" name="inserted"/>
      <point x="518" y="-363"/>
      <point x="511" y="-323"/>
      <point x="511" y="-291" type="qcurve" smooth="yes"/>
      <point x="511" y="-259"/>
      <point x="518" y="-219"/>
      <point x="525.5" y="-207.5" type="qcurve" smooth="yes" name="inserted"/>
      <point x="533" y="-196"/>
      <point x="557" y="-188"/>
      <point x="574" y="-188" type="qcurve" smooth="yes"/>
      <point x="791" y="-188" type="line"/>
    </contour>
    <contour>
      <point x="798" y="477" type="qcurve" smooth="yes"/>
      <point x="798" y="538"/>
      <point x="761" y="629"/>
      <point x="729.5" y="659.0" type="qcurve" smooth="yes" name="inserted"/>
      <point x="698" y="689"/>
      <point x="615" y="719"/>
      <point x="568" y="719" type="qcurve" smooth="yes"/>
      <point x="476" y="719"/>
      <point x="365" y="595"/>
      <point x="365" y="477" type="qcurve" smooth="yes"/>
      <point x="365" y="359"/>
      <point x="476" y="235"/>
      <point x="568" y="235" type="qcurve" smooth="yes"/>
      <point x="615" y="235"/>
      <point x="698" y="265"/>
      <point x="729.5" y="295.0" type="qcurve" smooth="yes" name="inserted"/>
      <point x="761" y="325"/>
      <point x="798" y="416"/>
    </contour>
  </outline>
</glyph>
<glyph name="s" format="1">
  <advance width="1228"/>
  <unicode hex="0073"/>
  <outline>
    <contour>
      <point x="414" y="41" type="line" smooth="yes"/>
      <point x="414" y="7"/>
      <point x="356" y="-22"/>
      <point x="292" y="-22" type="qcurve" smooth="yes"/>
      <point x="228" y="-22"/>
      <point x="174" y="7"/>
      <point x="174" y="41" type="qcurve" smooth="yes"/>
      <point x="174" y="264" type="line" smooth="yes"/>
      <point x="174" y="298"/>
      <point x="221" y="327"/>
      <point x="270" y="327" type="qcurve" smooth="yes"/>
      <point x="303" y="327"/>
      <point x="342" y="313"/>
      <point x="353" y="299" type="qcurve" smooth="yes"/>
      <point x="407" y="232"/>
      <point x="565" y="178"/>
      <point x="652" y="178" type="qcurve" smooth="yes"/>
      <point x="736" y="178"/>
      <point x="812" y="221"/>
      <point x="812" y="261" type="qcurve" smooth="yes"/>
      <point x="812" y="287"/>
      <point x="764" y="317"/>
      <point x="723" y="326" type="qcurve" smooth="yes"/>
      <point x="682" y="335"/>
      <point x="576" y="347"/>
      <point x="519.0" y="356.0" type="qcurve" smooth="yes" name="inserted"/>
      <point x="462" y="365"/>
      <point x="350" y="394"/>
      <point x="302" y="420" type="qcurve" smooth="yes"/>
      <point x="242" y="453"/>
      <point x="164" y="567"/>
      <point x="164" y="660" type="qcurve" smooth="yes"/>
      <point x="164" y="727"/>
      <point x="219" y="833"/>
      <point x="267.5" y="870.0" type="qcurve" smooth="yes" name="inserted"/>
      <point x="316" y="907"/>
      <point x="449" y="946"/>
      <point x="526" y="946" type="qcurve" smooth="yes"/>
      <point x="607" y="946"/>
      <point x="738" y="908"/>
      <point x="794" y="873" type="qcurve"/>
      <point x="794" y="883" type="line" smooth="yes"/>
      <point x="794" y="917"/>
      <point x="842" y="946"/>
      <point x="906" y="946" type="qcurve" smooth="yes"/>
      <point x="970" y="946"/>
      <point x="1024" y="917"/>
      <point x="1024" y="883" type="qcurve" smooth="yes"/>
      <point x="1024" y="672" type="line" smooth="yes"/>
      <point x="1024" y="638"/>
      <point x="981" y="609"/>
      <point x="932" y="609" type="qcurve" smooth="yes"/>
      <point x="905.5" y="609.0" name="inserted"/>
      <point x="869.0" y="619.5"/>
      <point x="859" y="630" type="qcurve" smooth="yes"/>
      <point x="797" y="695"/>
      <point x="643" y="746"/>
      <point x="548" y="746" type="qcurve" smooth="yes"/>
      <point x="487" y="746"/>
      <point x="422" y="703"/>
      <point x="422" y="669" type="qcurve" smooth="yes"/>
      <point x="422" y="646"/>
      <point x="462" y="617"/>
      <point x="496" y="609" type="qcurve" smooth="yes"/>
      <point x="533" y="600"/>
      <point x="631" y="590"/>
      <point x="685.5" y="583.5" type="qcurve" smooth="yes" name="inserted"/>
      <point x="740" y="577"/>
      <point x="851" y="555"/>
      <point x="900" y="535" type="qcurve" smooth="yes"/>
      <point x="936" y="520"/>
      <point x="999" y="477"/>
      <point x="1021.5" y="447.0" type="qcurve" smooth="yes" name="inserted"/>
      <point x="1044" y="417"/>
      <point x="1070" y="338"/>
      <point x="1070" y="287" type="qcurve" smooth="yes"/>
      <point x="1070" y="216"/>
      <point x="1018" y="102"/>
      <point x="967.0" y="61.5" type="qcurve" smooth="yes" name="inserted"/>
      <point x="916" y="21"/>
      <point x="768" y="-22"/>
      <point x="672" y="-22" type="qcurve" smooth="yes"/>
      <point x="594" y="-22"/>
      <point x="468" y="17"/>
      <point x="414" y="49" type="qcurve"/>
    </contour>
  </outline>
</glyph>
<glyph name="v" format="1">
  <advance width="1228"/>
  <unicode hex="0076"/>
  <outline>
    <contour>
      <point x="103" y="719" type="line" smooth="yes"/>
      <point x="86" y="719"/>
      <point x="62" y="727"/>
      <point x="54.5" y="738.0" type="qcurve" smooth="yes" name="inserted"/>
      <point x="47" y="749"/>
      <point x="40" y="789"/>
      <point x="40" y="821" type="qcurve" smooth="yes"/>
      <point x="40" y="853"/>
      <point x="47" y="893"/>
      <point x="54.5" y="904.5" type="qcurve" smooth="yes" name="inserted"/>
      <point x="62" y="916"/>
      <point x="86" y="924"/>
      <point x="103" y="924" type="qcurve" smooth="yes"/>
      <point x="507" y="924" type="line" smooth="yes"/>
      <point x="524" y="924"/>
      <point x="548" y="916"/>
      <point x="555.5" y="904.5" type="qcurve" smooth="yes" name="inserted"/>
      <point x="563" y="893"/>
      <point x="570" y="853"/>
      <point x="570" y="821" type="qcurve" smooth="yes"/>
      <point x="570" y="789"/>
      <point x="563" y="749"/>
      <point x="555.5" y="738.0" type="qcurve" smooth="yes" name="inserted"/>
      <point x="548" y="727"/>
      <point x="524" y="719"/>
      <point x="507" y="719" type="qcurve" smooth="yes"/>
      <point x="440" y="719" type="line"/>
      <point x="617" y="278" type="line"/>
      <point x="796" y="719" type="line"/>
      <point x="741" y="719" type="line" smooth="yes"/>
      <point x="724" y="719"/>
      <point x="700" y="727"/>
      <point x="692.5" y="738.0" type="qcurve" smooth="yes" name="inserted"/>
      <point x="685" y="749"/>
      <point x="678" y="789"/>
      <point x="678" y="821" type="qcurve" smooth="yes"/>
      <point x="678" y="853"/>
      <point x="685" y="893"/>
      <point x="692.5" y="904.5" type="qcurve" smooth="yes" name="inserted"/>
      <point x="700" y="916"/>
      <point x="724" y="924"/>
      <point x="741" y="924" type="qcurve" smooth="yes"/>
      <point x="1125" y="924" type="line" smooth="yes"/>
      <point x="1142" y="924"/>
      <point x="1166" y="916"/>
      <point x="1173.5" y="904.5" type="qcurve" smooth="yes" name="inserted"/>
      <point x="1181" y="893"/>
      <point x="1188" y="853"/>
      <point x="1188" y="821" type="qcurve" smooth="yes"/>
      <point x="1188" y="789"/>
      <point x="1181" y="749"/>
      <point x="1173.5" y="738.0" type="qcurve" smooth="yes" name="inserted"/>
      <point x="1166" y="727"/>
      <point x="1142" y="719"/>
      <point x="1125" y="719" type="qcurve" smooth="yes"/>
      <point x="1057" y="719" type="line"/>
      <point x="764" y="43" type="line" smooth="yes"/>
      <point x="750" y="9"/>
      <point x="683" y="-22"/>
      <point x="611" y="-22" type="qcurve" smooth="yes"/>
      <point x="575" y="-22"/>
      <point x="524" y="-14"/>
      <point x="506.5" y="-6.0" type="qcurve" smooth="yes" name="inserted"/>
      <point x="489" y="2"/>
      <point x="467" y="26"/>
      <point x="460" y="43" type="qcurve" smooth="yes"/>
      <point x="169" y="719" type="line"/>
    </contour>
  </outline>
</glyph>
<glyph name="x" format="1">
  <advance width="1228"/>
  <unicode hex="0078"/>
  <outline>
    <contour>
      <point x="441" y="469" type="line"/>
      <point x="195" y="719" type="line"/>
      <point x="143" y="719" type="line" smooth="yes"/>
      <point x="126" y="719"/>
      <point x="102" y="727"/>
      <point x="94.5" y="738.0" type="qcurve" smooth="yes" name="inserted"/>
      <point x="87" y="749"/>
      <point x="80" y="789"/>
      <point x="80" y="821" type="qcurve" smooth="yes"/>
      <point x="80" y="853"/>
      <point x="87" y="893"/>
      <point x="94.5" y="904.5" type="qcurve" smooth="yes" name="inserted"/>
      <point x="102" y="916"/>
      <point x="126" y="924"/>
      <point x="143" y="924" type="qcurve" smooth="yes"/>
      <point x="517" y="924" type="line" smooth="yes"/>
      <point x="534" y="924"/>
      <point x="558" y="916"/>
      <point x="565.5" y="904.5" type="qcurve" smooth="yes" name="inserted"/>
      <point x="573" y="893"/>
      <point x="580" y="853"/>
      <point x="580" y="821" type="qcurve" smooth="yes"/>
      <point x="580" y="789"/>
      <point x="573" y="749"/>
      <point x="565.5" y="738.0" type="qcurve" smooth="yes" name="inserted"/>
      <point x="558" y="727"/>
      <point x="534" y="719"/>
      <point x="517" y="719" type="qcurve" smooth="yes"/>
      <point x="504" y="719" type="line"/>
      <point x="632" y="588" type="line"/>
      <point x="753" y="719" type="line"/>
      <point x="731" y="719" type="line" smooth="yes"/>
      <point x="714" y="719"/>
      <point x="690" y="727"/>
      <point x="682.5" y="738.0" type="qcurve" smooth="yes" name="inserted"/>
      <point x="675" y="749"/>
      <point x="668" y="789"/>
      <point x="668" y="821" type="qcurve" smooth="yes"/>
      <point x="668" y="853"/>
      <point x="675" y="893"/>
      <point x="682.5" y="904.5" type="qcurve" smooth="yes" name="inserted"/>
      <point x="690" y="916"/>
      <point x="714" y="924"/>
      <point x="731" y="924" type="qcurve" smooth="yes"/>
      <point x="1085" y="924" type="line" smooth="yes"/>
      <point x="1102" y="924"/>
      <point x="1126" y="916"/>
      <point x="1133.5" y="904.5" type="qcurve" smooth="yes" name="inserted"/>
      <point x="1141" y="893"/>
      <point x="1148" y="853"/>
      <point x="1148" y="821" type="qcurve" smooth="yes"/>
      <point x="1148" y="789"/>
      <point x="1141" y="749"/>
      <point x="1133.5" y="738.0" type="qcurve" smooth="yes" name="inserted"/>
      <point x="1126" y="727"/>
      <point x="1102" y="719"/>
      <point x="1085" y="719" type="qcurve" smooth="yes"/>
      <point x="1026" y="719" type="line"/>
      <point x="785" y="468" type="line"/>
      <point x="1044" y="205" type="line"/>
      <point x="1095" y="205" type="line" smooth="yes"/>
      <point x="1112" y="205"/>
      <point x="1136" y="197"/>
      <point x="1143.5" y="185.5" type="qcurve" smooth="yes" name="inserted"/>
      <point x="1151" y="174"/>
      <point x="1158" y="134"/>
      <point x="1158" y="102" type="qcurve" smooth="yes"/>
      <point x="1158" y="70"/>
      <point x="1151" y="30"/>
      <point x="1143.5" y="19.0" type="qcurve" smooth="yes" name="inserted"/>
      <point x="1136" y="8"/>
      <point x="1112" y="0"/>
      <point x="1095" y="0" type="qcurve" smooth="yes"/>
      <point x="711" y="0" type="line" smooth="yes"/>
      <point x="694" y="0"/>
      <point x="670" y="8"/>
      <point x="662.5" y="19.0" type="qcurve" smooth="yes" name="inserted"/>
      <point x="655" y="30"/>
      <point x="648" y="70"/>
      <point x="648" y="102" type="qcurve" smooth="yes"/>
      <point x="648" y="134"/>
      <point x="655" y="174"/>
      <point x="662.5" y="185.5" type="qcurve" smooth="yes" name="inserted"/>
      <point x="670" y="197"/>
      <point x="694" y="205"/>
      <point x="711" y="205" type="qcurve" smooth="yes"/>
      <point x="725" y="205" type="line"/>
      <point x="594" y="339" type="line"/>
      <point x="470" y="205" type="line"/>
      <point x="487" y="205" type="line" smooth="yes"/>
      <point x="504" y="205"/>
      <point x="528" y="197"/>
      <point x="535.5" y="185.5" type="qcurve" smooth="yes" name="inserted"/>
      <point x="543" y="174"/>
      <point x="550" y="134"/>
      <point x="550" y="102" type="qcurve" smooth="yes"/>
      <point x="550" y="70"/>
      <point x="543" y="30"/>
      <point x="535.5" y="19.0" type="qcurve" smooth="yes" name="inserted"/>
      <point x="528" y="8"/>
      <point x="504" y="0"/>
      <point x="487" y="0" type="qcurve" smooth="yes"/>
      <point x="133" y="0" type="line" smooth="yes"/>
      <point x="116" y="0"/>
      <point x="92" y="8"/>
      <point x="84.5" y="19.0" type="qcurve" smooth="yes" name="inserted"/>
      <point x="77" y="30"/>
      <point x="70" y="70"/>
      <point x="70" y="102" type="qcurve" smooth="yes"/>
      <point x="70" y="134"/>
      <point x="77" y="174"/>
      <point x="84.5" y="185.5" type="qcurve" smooth="yes" name="inserted"/>
      <point x="92" y="197"/>
      <point x="116" y="205"/>
      <point x="133" y="205" type="qcurve" smooth="yes"/>
      <point x="187" y="205" type="line"/>
    </contour>
  </outline>
</glyph>
<glyph name="z" format="1">
  <advance width="1228"/>
  <unicode hex="007A"/>
  <outline>
    <contour>
      <point x="1017" y="924" type="line" smooth="yes"/>
      <point x="1034" y="924"/>
      <point x="1058" y="916"/>
      <point x="1065.5" y="905.0" type="qcurve" smooth="yes" name="inserted"/>
      <point x="1073" y="894"/>
      <point x="1080" y="854"/>
      <point x="1080" y="822" type="qcurve" smooth="yes"/>
      <point x="1080" y="795"/>
      <point x="1066" y="759"/>
      <point x="1048" y="740" type="qcurve" smooth="yes"/>
      <point x="525" y="205" type="line"/>
      <point x="850" y="205" type="line"/>
      <point x="850" y="329" type="line" smooth="yes"/>
      <point x="850" y="346"/>
      <point x="861" y="370"/>
      <point x="875.0" y="377.5" type="qcurve" smooth="yes" name="inserted"/>
      <point x="889" y="385"/>
      <point x="936" y="392"/>
      <point x="972" y="392" type="qcurve" smooth="yes"/>
      <point x="1008" y="392"/>
      <point x="1050" y="385"/>
      <point x="1061.5" y="377.5" type="qcurve" smooth="yes" name="inserted"/>
      <point x="1073" y="370"/>
      <point x="1080" y="346"/>
      <point x="1080" y="329" type="qcurve" smooth="yes"/>
      <point x="1080" y="65" type="line" smooth="yes"/>
      <point x="1080" y="30"/>
      <point x="1050" y="0"/>
      <point x="1015" y="0" type="qcurve" smooth="yes"/>
      <point x="201" y="0" type="line" smooth="yes"/>
      <point x="184" y="0"/>
      <point x="160" y="8"/>
      <point x="152.5" y="19.0" type="qcurve" smooth="yes" name="inserted"/>
      <point x="145" y="30"/>
      <point x="138" y="70"/>
      <point x="138" y="102" type="qcurve" smooth="yes"/>
      <point x="138" y="129"/>
      <point x="152" y="165"/>
      <point x="170" y="184" type="qcurve" smooth="yes"/>
      <point x="693" y="719" type="line"/>
      <point x="388" y="719" type="line"/>
      <point x="388" y="605" type="line" smooth="yes"/>
      <point x="388" y="588"/>
      <point x="377" y="564"/>
      <point x="363.0" y="556.5" type="qcurve" smooth="yes" name="inserted"/>
      <point x="349" y="549"/>
      <point x="302" y="542"/>
      <point x="266" y="542" type="qcurve" smooth="yes"/>
      <point x="230" y="542"/>
      <point x="188" y="549"/>
      <point x="176.5" y="556.5" type="qcurve" smooth="yes" name="inserted"/>
      <point x="165" y="564"/>
      <point x="158" y="588"/>
      <point x="158" y="605" type="qcurve" smooth="yes"/>
      <point x="158" y="859" type="line" smooth="yes"/>
      <point x="158" y="894"/>
      <point x="188" y="924"/>
      <point x="223" y="924" type="qcurve" smooth="yes"/>
    </contour>
  </outline>
</glyph>
<glyph name="bar" format="1">
  <advance width="1228"/>
  <unicode hex="007C"/>
  <outline>
    <contour>
      <point x="489" y="1271" type="line" smooth="yes"/>
      <point x="489" y="1305"/>
      <point x="557" y="1334"/>
      <point x="621" y="1334" type="qcurve" smooth="yes"/>
      <point x="685" y="1334"/>
      <point x="739" y="1305"/>
      <point x="739" y="1271" type="qcurve" smooth="yes"/>
      <point x="739" y="-352" type="line" smooth="yes"/>
      <point x="739" y="-386"/>
      <point x="671" y="-415"/>
      <point x="607" y="-415" type="qcurve" smooth="yes"/>
      <point x="543" y="-415"/>
      <point x="489" y="-386"/>
      <point x="489" y="-352" type="qcurve" smooth="yes"/>
    </contour>
  </outline>
</glyph>
<glyph name="braceright" format="1">
  <advance width="1228"/>
  <unicode hex="007D"/>
  <outline>
    <contour>
      <point x="688" y="482" type="qcurve"/>
      <point x="653" y="503"/>
      <point x="595" y="557"/>
      <point x="574.0" y="591.0" type="qcurve" smooth="yes" name="inserted"/>
      <point x="553" y="625"/>
      <point x="530" y="709"/>
      <point x="530" y="760" type="qcurve" smooth="yes"/>
      <point x="530" y="917" type="line" smooth="yes"/>
      <point x="530" y="1017"/>
      <point x="451" y="1107"/>
      <point x="373" y="1107" type="qcurve" smooth="yes"/>
      <point x="356" y="1107"/>
      <point x="332" y="1115"/>
      <point x="324.5" y="1126.0" type="qcurve" smooth="yes" name="inserted"/>
      <point x="317" y="1137"/>
      <point x="310" y="1177"/>
      <point x="310" y="1209" type="qcurve" smooth="yes"/>
      <point x="310" y="1241"/>
      <point x="317" y="1281"/>
      <point x="324.5" y="1292.5" type="qcurve" smooth="yes" name="inserted"/>
      <point x="332" y="1304"/>
      <point x="356" y="1312"/>
      <point x="373" y="1312" type="qcurve" smooth="yes"/>
      <point x="573" y="1312"/>
      <point x="780" y="1122"/>
      <point x="780" y="929" type="qcurve" smooth="yes"/>
      <point x="780" y="770" type="line" smooth="yes"/>
      <point x="780" y="679"/>
      <point x="864" y="584"/>
      <point x="960" y="584" type="qcurve" smooth="yes"/>
      <point x="977" y="584"/>
      <point x="1001" y="576"/>
      <point x="1008.5" y="565.0" type="qcurve" smooth="yes" name="inserted"/>
      <point x="1016" y="554"/>
      <point x="1023" y="514"/>
      <point x="1023" y="482" type="qcurve" smooth="yes"/>
      <point x="1023" y="450"/>
      <point x="1016" y="410"/>
      <point x="1008.5" y="398.5" type="qcurve" smooth="yes" name="inserted"/>
      <point x="1001" y="387"/>
      <point x="977" y="379"/>
      <point x="960" y="379" type="qcurve" smooth="yes"/>
      <point x="864" y="379"/>
      <point x="780" y="284"/>
      <point x="780" y="193" type="qcurve" smooth="yes"/>
      <point x="780" y="-10" type="line" smooth="yes"/>
      <point x="780" y="-204"/>
      <point x="573" y="-393"/>
      <point x="373" y="-393" type="qcurve" smooth="yes"/>
      <point x="356" y="-393"/>
      <point x="332" y="-385"/>
      <point x="324.5" y="-373.5" type="qcurve" smooth="yes" name="inserted"/>
      <point x="317" y="-362"/>
      <point x="310" y="-322"/>
      <point x="310" y="-290" type="qcurve" smooth="yes"/>
      <point x="310" y="-258"/>
      <point x="317" y="-218"/>
      <point x="324.5" y="-207.0" type="qcurve" smooth="yes" name="inserted"/>
      <point x="332" y="-196"/>
      <point x="356" y="-188"/>
      <point x="373" y="-188" type="qcurve" smooth="yes"/>
      <point x="451" y="-188"/>
      <point x="530" y="-98"/>
      <point x="530" y="2" type="qcurve" smooth="yes"/>
      <point x="530" y="203" type="line" smooth="yes"/>
      <point x="530" y="254"/>
      <point x="553" y="338"/>
      <point x="574.0" y="372.5" type="qcurve" smooth="yes" name="inserted"/>
      <point x="595" y="407"/>
      <point x="653" y="461"/>
    </contour>
  </outline>
</glyph>
<glyph name="exclamdown" format="1">
  <advance width="1228"/>
  <unicode hex="00A1"/>
  <outline>
    <contour>
      <point x="489" y="-22" type="line" smooth="yes"/>
      <point x="465.5" y="-22.0" name="inserted"/>
      <point x="445.0" y="3.0"/>
      <point x="448" y="28" type="qcurve" smooth="yes"/>
      <point x="521" y="605" type="line" smooth="yes"/>
      <point x="526" y="643"/>
      <point x="575" y="683"/>
      <point x="614" y="683" type="qcurve" smooth="yes"/>
      <point x="653" y="683"/>
      <point x="702" y="643"/>
      <point x="707" y="605" type="qcurve" smooth="yes"/>
      <point x="780" y="28" type="line" smooth="yes"/>
      <point x="783.0" y="3.0" name="inserted"/>
      <point x="762.5" y="-22.0"/>
      <point x="739" y="-22" type="qcurve" smooth="yes"/>
    </contour>
    <contour>
      <point x="803" y="1020" type="qcurve" smooth="yes"/>
      <point x="803" y="981"/>
      <point x="773" y="911"/>
      <point x="747.5" y="885.5" type="qcurve" smooth="yes" name="inserted"/>
      <point x="722" y="860"/>
      <point x="653" y="830"/>
      <point x="614" y="830" type="qcurve" smooth="yes"/>
      <point x="575" y="830"/>
      <point x="506" y="860"/>
      <point x="480.5" y="885.5" type="qcurve" smooth="yes" name="inserted"/>
      <point x="455" y="911"/>
      <point x="425" y="981"/>
      <point x="425" y="1020" type="qcurve" smooth="yes"/>
      <point x="425" y="1059"/>
      <point x="455" y="1128"/>
      <point x="480.5" y="1153.5" type="qcurve" smooth="yes" name="inserted"/>
      <point x="506" y="1179"/>
      <point x="575" y="1209"/>
      <point x="614" y="1209" type="qcurve" smooth="yes"/>
      <point x="653" y="1209"/>
      <point x="722" y="1179"/>
      <point x="747.5" y="1153.5" type="qcurve" smooth="yes" name="inserted"/>
      <point x="773" y="1128"/>
      <point x="803" y="1059"/>
    </contour>
  </outline>
</glyph>
<glyph name="cent" format="1">
  <advance width="1228"/>
  <unicode hex="00A2"/>
  <outline>
    <contour>
      <point x="948" y="439" type="qcurve" smooth="yes"/>
      <point x="977" y="456"/>
      <point x="1035" y="429"/>
      <point x="1060" y="370" type="qcurve" smooth="yes"/>
      <point x="1085" y="311"/>
      <point x="1066" y="245"/>
      <point x="1035" y="228" type="qcurve" smooth="yes"/>
      <point x="961" y="187"/>
      <point x="798" y="131"/>
      <point x="711" y="122" type="qcurve"/>
      <point x="711" y="-62" type="line" smooth="yes"/>
      <point x="711" y="-96"/>
      <point x="674" y="-125"/>
      <point x="618" y="-125" type="qcurve" smooth="yes"/>
      <point x="562" y="-125"/>
      <point x="525" y="-96"/>
      <point x="525" y="-62" type="qcurve" smooth="yes"/>
      <point x="525" y="127" type="line"/>
      <point x="433" y="143"/>
      <point x="285" y="226"/>
      <point x="233.5" y="288.0" type="qcurve" smooth="yes" name="inserted"/>
      <point x="182" y="350"/>
      <point x="127" y="510"/>
      <point x="127" y="602" type="qcurve" smooth="yes"/>
      <point x="127" y="698"/>
      <point x="187" y="862"/>
      <point x="240.0" y="924.0" type="qcurve" smooth="yes" name="inserted"/>
      <point x="293" y="986"/>
      <point x="439" y="1067"/>
      <point x="525" y="1080" type="qcurve"/>
      <point x="525" y="1249" type="line" smooth="yes"/>
      <point x="525" y="1283"/>
      <point x="562" y="1312"/>
      <point x="618" y="1312" type="qcurve" smooth="yes"/>
      <point x="674" y="1312"/>
      <point x="711" y="1283"/>
      <point x="711" y="1249" type="qcurve" smooth="yes"/>
      <point x="711" y="1070" type="line"/>
      <point x="750.5" y="1056.5" name="inserted"/>
      <point x="811.5" y="1006.0"/>
      <point x="833" y="969" type="qcurve"/>
      <point x="833" y="1023" type="line" smooth="yes"/>
      <point x="833" y="1057"/>
      <point x="891" y="1086"/>
      <point x="955" y="1086" type="qcurve" smooth="yes"/>
      <point x="987" y="1086"/>
      <point x="1029" y="1079"/>
      <point x="1041.0" y="1071.5" type="qcurve" smooth="yes" name="inserted"/>
      <point x="1053" y="1064"/>
      <point x="1063" y="1040"/>
      <point x="1063" y="1023" type="qcurve" smooth="yes"/>
      <point x="1063" y="702" type="line" smooth="yes"/>
      <point x="1063" y="668"/>
      <point x="1003" y="639"/>
      <point x="931" y="639" type="qcurve" smooth="yes"/>
      <point x="895" y="639"/>
      <point x="850" y="646"/>
      <point x="836.5" y="653.5" type="qcurve" smooth="yes" name="inserted"/>
      <point x="823" y="661"/>
      <point x="813" y="685"/>
      <point x="813" y="702" type="qcurve" smooth="yes"/>
      <point x="813" y="749"/>
      <point x="762" y="828"/>
      <point x="711" y="846" type="qcurve"/>
      <point x="711" y="351" type="line"/>
      <point x="772" y="361"/>
      <point x="891" y="406"/>
    </contour>
    <contour>
      <point x="395" y="602" type="qcurve" smooth="yes"/>
      <point x="395" y="517"/>
      <point x="464" y="397"/>
      <point x="525" y="368" type="qcurve"/>
      <point x="525" y="836" type="line"/>
      <point x="464" y="807"/>
      <point x="395" y="687"/>
    </contour>
  </outline>
</glyph>
<glyph name="sterling" format="1">
  <advance width="1228"/>
  <unicode hex="00A3"/>
  <outline>
    <contour>
      <point x="1040" y="56" type="qcurve"/>
      <point x="977" y="9"/>
      <point x="869" y="-24"/>
      <point x="818" y="-24" type="qcurve" smooth="yes"/>
      <point x="782" y="-24"/>
      <point x="711" y="-12"/>
      <point x="674.5" y="-5.5" type="qcurve" smooth="yes" name="inserted"/>
      <point x="638" y="1"/>
      <point x="559" y="13"/>
      <point x="515" y="13" type="qcurve" smooth="yes"/>
      <point x="467" y="13"/>
      <point x="353" y="-7"/>
      <point x="287" y="-34" type="qcurve" smooth="yes"/>
      <point x="266" y="-43"/>
      <point x="216" y="0"/>
      <point x="199" y="34" type="qcurve" smooth="yes"/>
      <point x="190" y="51"/>
      <point x="179" y="88"/>
      <point x="178.5" y="105.5" type="qcurve" smooth="yes" name="inserted"/>
      <point x="178" y="123"/>
      <point x="187" y="152"/>
      <point x="199" y="161" type="qcurve" smooth="yes"/>
      <point x="240" y="193"/>
      <point x="304" y="253"/>
      <point x="326.0" y="284.0" type="qcurve" smooth="yes" name="inserted"/>
      <point x="348" y="315"/>
      <point x="373" y="384"/>
      <point x="375" y="425" type="qcurve"/>
      <point x="213" y="425" type="line" smooth="yes"/>
      <point x="196" y="425"/>
      <point x="172" y="433"/>
      <point x="164.5" y="445.0" type="qcurve" smooth="yes" name="inserted"/>
      <point x="157" y="457"/>
      <point x="150" y="501"/>
      <point x="150" y="537" type="qcurve" smooth="yes"/>
      <point x="150" y="573"/>
      <point x="157" y="617"/>
      <point x="164.5" y="629.0" type="qcurve" smooth="yes" name="inserted"/>
      <point x="172" y="641"/>
      <point x="196" y="650"/>
      <point x="213" y="650" type="qcurve" smooth="yes"/>
      <point x="308" y="650" type="line"/>
      <point x="295" y="674"/>
      <point x="271" y="724"/>
      <point x="261.5" y="750.5" type="qcurve" smooth="yes" name="inserted"/>
      <point x="252" y="777"/>
      <point x="241" y="835"/>
      <point x="241" y="867" type="qcurve" smooth="yes"/>
      <point x="241" y="940"/>
      <point x="291" y="1065"/>
      <point x="339.5" y="1111.0" type="qcurve" smooth="yes" name="inserted"/>
      <point x="388" y="1157"/>
      <point x="529" y="1209"/>
      <point x="620" y="1209" type="qcurve" smooth="yes"/>
      <point x="701.0" y="1209.0" name="inserted"/>
      <point x="868.5" y="1164.5"/>
      <point x="955" y="1120" type="qcurve" smooth="yes"/>
      <point x="977" y="1109"/>
      <point x="1001" y="1079"/>
      <point x="1001" y="1057" type="qcurve" smooth="yes"/>
      <point x="1001" y="850" type="line" smooth="yes"/>
      <point x="1001" y="816"/>
      <point x="943" y="787"/>
      <point x="879" y="787" type="qcurve" smooth="yes"/>
      <point x="847" y="787"/>
      <point x="805" y="794"/>
      <point x="793.0" y="801.5" type="qcurve" smooth="yes" name="inserted"/>
      <point x="781" y="809"/>
      <point x="771" y="833"/>
      <point x="771" y="850" type="qcurve" smooth="yes"/>
      <point x="771" y="961" type="line"/>
      <point x="740" y="976"/>
      <point x="672" y="992"/>
      <point x="628" y="992" type="qcurve" smooth="yes"/>
      <point x="565" y="992"/>
      <point x="495" y="919"/>
      <point x="495" y="858" type="qcurve" smooth="yes"/>
      <point x="495" y="828"/>
      <point x="510" y="774"/>
      <point x="522.0" y="749.5" type="qcurve" smooth="yes" name="inserted"/>
      <point x="534" y="725"/>
      <point x="563" y="676"/>
      <point x="577" y="650" type="qcurve"/>
      <point x="865" y="650" type="line" smooth="yes"/>
      <point x="882" y="650"/>
      <point x="906" y="641"/>
      <point x="913.5" y="629.0" type="qcurve" smooth="yes" name="inserted"/>
      <point x="921" y="617"/>
      <point x="928" y="573"/>
      <point x="928" y="537" type="qcurve" smooth="yes"/>
      <point x="928" y="501"/>
      <point x="921" y="457"/>
      <point x="913.5" y="445.0" type="qcurve" smooth="yes" name="inserted"/>
      <point x="906" y="433"/>
      <point x="882" y="425"/>
      <point x="865" y="425" type="qcurve" smooth="yes"/>
      <point x="624" y="425" type="line"/>
      <point x="616" y="364"/>
      <point x="557" y="258"/>
      <point x="509" y="207" type="qcurve"/>
      <point x="551" y="223"/>
      <point x="620" y="235"/>
      <point x="650" y="235" type="qcurve" smooth="yes"/>
      <point x="674" y="235"/>
      <point x="716" y="230"/>
      <point x="736.0" y="226.5" type="qcurve" smooth="yes" name="inserted"/>
      <point x="756" y="223"/>
      <point x="797" y="218"/>
      <point x="818" y="218" type="qcurve" smooth="yes"/>
      <point x="847" y="218"/>
      <point x="911" y="231"/>
      <point x="951" y="251" type="qcurve" smooth="yes"/>
      <point x="963" y="257"/>
      <point x="988" y="251"/>
      <point x="1000.0" y="241.0" type="qcurve" smooth="yes" name="inserted"/>
      <point x="1012" y="231"/>
      <point x="1034" y="202"/>
      <point x="1042" y="184" type="qcurve" smooth="yes"/>
      <point x="1050" y="166"/>
      <point x="1060" y="128"/>
      <point x="1060.5" y="110.5" type="qcurve" smooth="yes" name="inserted"/>
      <point x="1061" y="93"/>
      <point x="1052" y="64"/>
    </contour>
  </outline>
</glyph>
<glyph name="yen" format="1">
  <advance width="1228"/>
  <unicode hex="00A5"/>
  <outline>
    <contour>
      <point x="489" y="327" type="line"/>
      <point x="203" y="327" type="line" smooth="yes"/>
      <point x="186" y="327"/>
      <point x="162" y="335"/>
      <point x="154.5" y="345.0" type="qcurve" smooth="yes" name="inserted"/>
      <point x="147" y="355"/>
      <point x="140" y="391"/>
      <point x="140" y="419" type="qcurve" smooth="yes"/>
      <point x="140" y="475"/>
      <point x="169" y="512"/>
      <point x="203" y="512" type="qcurve" smooth="yes"/>
      <point x="455" y="512" type="line"/>
      <point x="362" y="655" type="line"/>
      <point x="183" y="655" type="line" smooth="yes"/>
      <point x="166" y="655"/>
      <point x="142" y="663"/>
      <point x="134.5" y="673.0" type="qcurve" smooth="yes" name="inserted"/>
      <point x="127" y="683"/>
      <point x="120" y="719"/>
      <point x="120" y="747" type="qcurve" smooth="yes"/>
      <point x="120" y="803"/>
      <point x="149" y="840"/>
      <point x="183" y="840" type="qcurve" smooth="yes"/>
      <point x="241" y="840" type="line"/>
      <point x="149" y="982" type="line"/>
      <point x="103" y="982" type="line" smooth="yes"/>
      <point x="86" y="982"/>
      <point x="62" y="990"/>
      <point x="54.5" y="1001.0" type="qcurve" smooth="yes" name="inserted"/>
      <point x="47" y="1012"/>
      <point x="40" y="1052"/>
      <point x="40" y="1084" type="qcurve" smooth="yes"/>
      <point x="40" y="1116"/>
      <point x="47" y="1156"/>
      <point x="54.5" y="1167.5" type="qcurve" smooth="yes" name="inserted"/>
      <point x="62" y="1179"/>
      <point x="86" y="1187"/>
      <point x="103" y="1187" type="qcurve" smooth="yes"/>
      <point x="497" y="1187" type="line" smooth="yes"/>
      <point x="514" y="1187"/>
      <point x="538" y="1179"/>
      <point x="545.5" y="1167.5" type="qcurve" smooth="yes" name="inserted"/>
      <point x="553" y="1156"/>
      <point x="560" y="1116"/>
      <point x="560" y="1084" type="qcurve" smooth="yes"/>
      <point x="560" y="1052"/>
      <point x="553" y="1012"/>
      <point x="545.5" y="1001.0" type="qcurve" smooth="yes" name="inserted"/>
      <point x="538" y="990"/>
      <point x="514" y="982"/>
      <point x="497" y="982" type="qcurve" smooth="yes"/>
      <point x="430" y="982" type="line"/>
      <point x="616" y="690" type="line"/>
      <point x="804" y="982" type="line"/>
      <point x="751" y="982" type="line" smooth="yes"/>
      <point x="734" y="982"/>
      <point x="710" y="990"/>
      <point x="702.5" y="1001.0" type="qcurve" smooth="yes" name="inserted"/>
      <point x="695" y="1012"/>
      <point x="688" y="1052"/>
      <point x="688" y="1084" type="qcurve" smooth="yes"/>
      <point x="688" y="1116"/>
      <point x="695" y="1156"/>
      <point x="702.5" y="1167.5" type="qcurve" smooth="yes" name="inserted"/>
      <point x="710" y="1179"/>
      <point x="734" y="1187"/>
      <point x="751" y="1187" type="qcurve" smooth="yes"/>
      <point x="1125" y="1187" type="line" smooth="yes"/>
      <point x="1142" y="1187"/>
      <point x="1166" y="1179"/>
      <point x="1173.5" y="1167.5" type="qcurve" smooth="yes" name="inserted"/>
      <point x="1181" y="1156"/>
      <point x="1188" y="1116"/>
      <point x="1188" y="1084" type="qcurve" smooth="yes"/>
      <point x="1188" y="1052"/>
      <point x="1181" y="1012"/>
      <point x="1173.5" y="1001.0" type="qcurve" smooth="yes" name="inserted"/>
      <point x="1166" y="990"/>
      <point x="1142" y="982"/>
      <point x="1125" y="982" type="qcurve" smooth="yes"/>
      <point x="1081" y="982" type="line"/>
      <point x="988" y="840" type="line"/>
      <point x="1045" y="840" type="line" smooth="yes"/>
      <point x="1079" y="840"/>
      <point x="1108" y="803"/>
      <point x="1108" y="747" type="qcurve" smooth="yes"/>
      <point x="1108" y="719"/>
      <point x="1101" y="683"/>
      <point x="1093.5" y="673.0" type="qcurve" smooth="yes" name="inserted"/>
      <point x="1086" y="663"/>
      <point x="1062" y="655"/>
      <point x="1045" y="655" type="qcurve" smooth="yes"/>
      <point x="867" y="655" type="line"/>
      <point x="773" y="512" type="line"/>
      <point x="1025" y="512" type="line" smooth="yes"/>
      <point x="1059" y="512"/>
      <point x="1088" y="475"/>
      <point x="1088" y="419" type="qcurve" smooth="yes"/>
      <point x="1088" y="391"/>
      <point x="1081" y="355"/>
      <point x="1073.5" y="345.0" type="qcurve" smooth="yes" name="inserted"/>
      <point x="1066" y="335"/>
      <point x="1042" y="327"/>
      <point x="1025" y="327" type="qcurve" smooth="yes"/>
      <point x="739" y="327" type="line"/>
      <point x="739" y="205" type="line"/>
      <point x="935" y="205" type="line" smooth="yes"/>
      <point x="952" y="205"/>
      <point x="976" y="197"/>
      <point x="983.5" y="185.5" type="qcurve" smooth="yes" name="inserted"/>
      <point x="991" y="174"/>
      <point x="998" y="134"/>
      <point x="998" y="102" type="qcurve" smooth="yes"/>
      <point x="998" y="70"/>
      <point x="991" y="30"/>
      <point x="983.5" y="19.0" type="qcurve" smooth="yes" name="inserted"/>
      <point x="976" y="8"/>
      <point x="952" y="0"/>
      <point x="935" y="0" type="qcurve" smooth="yes"/>
      <point x="293" y="0" type="line" smooth="yes"/>
      <point x="276" y="0"/>
      <point x="252" y="8"/>
      <point x="244.5" y="19.0" type="qcurve" smooth="yes" name="inserted"/>
      <point x="237" y="30"/>
      <point x="230" y="70"/>
      <point x="230" y="102" type="qcurve" smooth="yes"/>
      <point x="230" y="134"/>
      <point x="237" y="174"/>
      <point x="244.5" y="185.5" type="qcurve" smooth="yes" name="inserted"/>
      <point x="252" y="197"/>
      <point x="276" y="205"/>
      <point x="293" y="205" type="qcurve" smooth="yes"/>
      <point x="489" y="205" type="line"/>
    </contour>
  </outline>
</glyph>
<glyph name="section" format="1">
  <advance width="1228"/>
  <unicode hex="00A7"/>
  <outline>
    <contour>
      <point x="633" y="-35" type="line" smooth="yes"/>
      <point x="676" y="-35"/>
      <point x="722" y="2"/>
      <point x="722" y="37" type="qcurve" smooth="yes"/>
      <point x="722" y="71"/>
      <point x="681" y="126"/>
      <point x="636" y="148" type="qcurve" smooth="yes"/>
      <point x="345" y="293" type="line" smooth="yes"/>
      <point x="255" y="338"/>
      <point x="159" y="484"/>
      <point x="159" y="583" type="qcurve" smooth="yes"/>
      <point x="159" y="655"/>
      <point x="217" y="771"/>
      <point x="272" y="816" type="qcurve"/>
      <point x="265.0" y="840.0" name="inserted"/>
      <point x="258.0" y="890.0"/>
      <point x="258" y="916" type="qcurve" smooth="yes"/>
      <point x="258" y="976"/>
      <point x="297" y="1076"/>
      <point x="335.5" y="1112.0" type="qcurve" smooth="yes" name="inserted"/>
      <point x="374" y="1148"/>
      <point x="486" y="1187"/>
      <point x="559" y="1187" type="qcurve" smooth="yes"/>
      <point x="953" y="1187" type="line" smooth="yes"/>
      <point x="988" y="1187"/>
      <point x="1018" y="1157"/>
      <point x="1018" y="1122" type="qcurve" smooth="yes"/>
      <point x="1018" y="860" type="line" smooth="yes"/>
      <point x="1018" y="826"/>
      <point x="960" y="797"/>
      <point x="896" y="797" type="qcurve" smooth="yes"/>
      <point x="864" y="797"/>
      <point x="822" y="804"/>
      <point x="810.0" y="811.5" type="qcurve" smooth="yes" name="inserted"/>
      <point x="798" y="819"/>
      <point x="788" y="843"/>
      <point x="788" y="860" type="qcurve" smooth="yes"/>
      <point x="788" y="992" type="line"/>
      <point x="595" y="992" type="line" smooth="yes"/>
      <point x="552" y="992"/>
      <point x="506" y="955"/>
      <point x="506" y="920" type="qcurve" smooth="yes"/>
      <point x="506" y="886"/>
      <point x="547" y="831"/>
      <point x="592" y="809" type="qcurve" smooth="yes"/>
      <point x="883" y="664" type="line" smooth="yes"/>
      <point x="973" y="619"/>
      <point x="1069" y="473"/>
      <point x="1069" y="374" type="qcurve" smooth="yes"/>
      <point x="1069" y="302"/>
      <point x="1010" y="186"/>
      <point x="955" y="140" type="qcurve"/>
      <point x="962.5" y="117.5" name="inserted"/>
      <point x="970.0" y="68.0"/>
      <point x="970" y="41" type="qcurve" smooth="yes"/>
      <point x="970" y="-19"/>
      <point x="931" y="-119"/>
      <point x="892.5" y="-155.0" type="qcurve" smooth="yes" name="inserted"/>
      <point x="854" y="-191"/>
      <point x="742" y="-230"/>
      <point x="669" y="-230" type="qcurve" smooth="yes"/>
      <point x="275" y="-230" type="line" smooth="yes"/>
      <point x="240" y="-230"/>
      <point x="210" y="-200"/>
      <point x="210" y="-165" type="qcurve" smooth="yes"/>
      <point x="210" y="97" type="line" smooth="yes"/>
      <point x="210" y="131"/>
      <point x="268" y="160"/>
      <point x="332" y="160" type="qcurve" smooth="yes"/>
      <point x="364" y="160"/>
      <point x="406" y="153"/>
      <point x="418.0" y="145.5" type="qcurve" smooth="yes" name="inserted"/>
      <point x="430" y="138"/>
      <point x="440" y="114"/>
      <point x="440" y="97" type="qcurve" smooth="yes"/>
      <point x="440" y="-35" type="line"/>
    </contour>
    <contour>
      <point x="772" y="335" type="line" smooth="yes"/>
      <point x="782.5" y="329.5" name="inserted"/>
      <point x="800.5" y="319.5"/>
      <point x="808" y="315" type="qcurve"/>
      <point x="814.5" y="326.0" name="inserted"/>
      <point x="821.0" y="351.0"/>
      <point x="821" y="365" type="qcurve" smooth="yes"/>
      <point x="821" y="405"/>
      <point x="772" y="464"/>
      <point x="721" y="490" type="qcurve" smooth="yes"/>
      <point x="456" y="622" type="line" smooth="yes"/>
      <point x="446" y="627"/>
      <point x="428" y="637"/>
      <point x="419" y="642" type="qcurve"/>
      <point x="413.0" y="630.5" name="inserted"/>
      <point x="407.0" y="605.5"/>
      <point x="407" y="592" type="qcurve" smooth="yes"/>
      <point x="407" y="552"/>
      <point x="456" y="493"/>
      <point x="507" y="467" type="qcurve" smooth="yes"/>
    </contour>
  </outline>
</glyph>
<glyph name="copyright" format="1">
  <advance width="1228"/>
  <unicode hex="00A9"/>
  <outline>
    <contour>
      <point x="485" y="593" type="qcurve" smooth="yes"/>
      <point x="485" y="510"/>
      <point x="568" y="422"/>
      <point x="639" y="422" type="qcurve" smooth="yes"/>
      <point x="674" y="422"/>
      <point x="742" y="438"/>
      <point x="777" y="450" type="qcurve" smooth="yes"/>
      <point x="803" y="459"/>
      <point x="834" y="433"/>
      <point x="848" y="395" type="qcurve" smooth="yes"/>
      <point x="863" y="353"/>
      <point x="854" y="306"/>
      <point x="825" y="292" type="qcurve" smooth="yes"/>
      <point x="782" y="271"/>
      <point x="686" y="249"/>
      <point x="639" y="249" type="qcurve" smooth="yes"/>
      <point x="567" y="249"/>
      <point x="445" y="296"/>
      <point x="401.0" y="340.0" type="qcurve" smooth="yes" name="inserted"/>
      <point x="357" y="384"/>
      <point x="307" y="512"/>
      <point x="307" y="593" type="qcurve" smooth="yes"/>
      <point x="307" y="674"/>
      <point x="357" y="802"/>
      <point x="401.0" y="846.0" type="qcurve" smooth="yes" name="inserted"/>
      <point x="445" y="890"/>
      <point x="567" y="937"/>
      <point x="639" y="937" type="qcurve" smooth="yes"/>
      <point x="686" y="937"/>
      <point x="782" y="915"/>
      <point x="825" y="894" type="qcurve" smooth="yes"/>
      <point x="854" y="880"/>
      <point x="863" y="833"/>
      <point x="848" y="791" type="qcurve" smooth="yes"/>
      <point x="834" y="753"/>
      <point x="803" y="727"/>
      <point x="777" y="736" type="qcurve" smooth="yes"/>
      <point x="742" y="748"/>
      <point x="674" y="764"/>
      <point x="639" y="764" type="qcurve" smooth="yes"/>
      <point x="568" y="764"/>
      <point x="485" y="676"/>
    </contour>
    <contour>
      <point x="181" y="594" type="qcurve" smooth="yes"/>
      <point x="181" y="495"/>
      <point x="242" y="326"/>
      <point x="298.5" y="264.0" type="qcurve" smooth="yes" name="inserted"/>
      <point x="355" y="202"/>
      <point x="514" y="131"/>
      <point x="613" y="131" type="qcurve" smooth="yes"/>
      <point x="712" y="131"/>
      <point x="871" y="202"/>
      <point x="927.5" y="264.0" type="qcurve" smooth="yes" name="inserted"/>
      <point x="984" y="326"/>
      <point x="1045" y="495"/>
      <point x="1045" y="594" type="qcurve" smooth="yes"/>
      <point x="1045" y="693"/>
      <point x="984" y="862"/>
      <point x="927.5" y="924.0" type="qcurve" smooth="yes" name="inserted"/>
      <point x="871" y="986"/>
      <point x="712" y="1056"/>
      <point x="613" y="1056" type="qcurve" smooth="yes"/>
      <point x="514" y="1056"/>
      <point x="355" y="986"/>
      <point x="298.5" y="924.0" type="qcurve" smooth="yes" name="inserted"/>
      <point x="242" y="862"/>
      <point x="181" y="693"/>
    </contour>
    <contour>
      <point x="28" y="594" type="qcurve" smooth="yes"/>
      <point x="28" y="725"/>
      <point x="115" y="950"/>
      <point x="193.0" y="1032.5" type="qcurve" smooth="yes" name="inserted"/>
      <point x="271" y="1115"/>
      <point x="485" y="1209"/>
      <point x="613" y="1209" type="qcurve" smooth="yes"/>
      <point x="740" y="1209"/>
      <point x="955" y="1115"/>
      <point x="1033.0" y="1032.5" type="qcurve" smooth="yes" name="inserted"/>
      <point x="1111" y="950"/>
      <point x="1198" y="725"/>
      <point x="1198" y="594" type="qcurve" smooth="yes"/>
      <point x="1198" y="463"/>
      <point x="1111" y="237"/>
      <point x="1033.0" y="154.5" type="qcurve" smooth="yes" name="inserted"/>
      <point x="955" y="72"/>
      <point x="740" y="-22"/>
      <point x="613" y="-22" type="qcurve" smooth="yes"/>
      <point x="485" y="-22"/>
      <point x="271" y="72"/>
      <point x="193.0" y="154.5" type="qcurve" smooth="yes" name="inserted"/>
      <point x="115" y="237"/>
      <point x="28" y="463"/>
    </contour>
  </outline>
</glyph>
<glyph name="logicalnot" format="1">
  <advance width="1228"/>
  <unicode hex="00AC"/>
  <outline>
    <contour>
      <point x="183" y="630" type="line" smooth="yes"/>
      <point x="166" y="630"/>
      <point x="142" y="638"/>
      <point x="134.5" y="650.0" type="qcurve" smooth="yes" name="inserted"/>
      <point x="127" y="662"/>
      <point x="120" y="704"/>
      <point x="120" y="738" type="qcurve" smooth="yes"/>
      <point x="120" y="772"/>
      <point x="127" y="814"/>
      <point x="134.5" y="825.5" type="qcurve" smooth="yes" name="inserted"/>
      <point x="142" y="837"/>
      <point x="166" y="845"/>
      <point x="183" y="845" type="qcurve" smooth="yes"/>
      <point x="1033" y="845" type="line" smooth="yes"/>
      <point x="1068" y="845"/>
      <point x="1098" y="815"/>
      <point x="1098" y="780" type="qcurve" smooth="yes"/>
      <point x="1098" y="348" type="line" smooth="yes"/>
      <point x="1098" y="314"/>
      <point x="1038" y="285"/>
      <point x="966" y="285" type="qcurve" smooth="yes"/>
      <point x="930" y="285"/>
      <point x="885" y="292"/>
      <point x="871.5" y="299.5" type="qcurve" smooth="yes" name="inserted"/>
      <point x="858" y="307"/>
      <point x="848" y="331"/>
      <point x="848" y="348" type="qcurve" smooth="yes"/>
      <point x="848" y="630" type="line"/>
    </contour>
  </outline>
</glyph>
<glyph name="macron" format="1">
  <advance width="1228"/>
  <unicode hex="00AF"/>
  <outline>
    <contour>
      <point x="895" y="1275" type="line" smooth="yes"/>
      <point x="912" y="1275"/>
      <point x="936" y="1267"/>
      <point x="943.5" y="1255.5" type="qcurve" smooth="yes" name="inserted"/>
      <point x="951" y="1244"/>
      <point x="958" y="1204"/>
      <point x="958" y="1172" type="qcurve" smooth="yes"/>
      <point x="958" y="1140"/>
      <point x="951" y="1100"/>
      <point x="943.5" y="1089.0" type="qcurve" smooth="yes" name="inserted"/>
      <point x="936" y="1078"/>
      <point x="912" y="1070"/>
      <point x="895" y="1070" type="qcurve" smooth="yes"/>
      <point x="333" y="1070" type="line" smooth="yes"/>
      <point x="316" y="1070"/>
      <point x="292" y="1078"/>
      <point x="284.5" y="1089.0" type="qcurve" smooth="yes" name="inserted"/>
      <point x="277" y="1100"/>
      <point x="270" y="1140"/>
      <point x="270" y="1172" type="qcurve" smooth="yes"/>
      <point x="270" y="1204"/>
      <point x="277" y="1244"/>
      <point x="284.5" y="1255.5" type="qcurve" smooth="yes" name="inserted"/>
      <point x="292" y="1267"/>
      <point x="316" y="1275"/>
      <point x="333" y="1275" type="qcurve" smooth="yes"/>
    </contour>
  </outline>
</glyph>
<glyph name="threesuperior" format="1">
  <advance width="1228"/>
  <unicode hex="00B3"/>
  <outline>
    <contour>
      <point x="471" y="1077" type="line" smooth="yes"/>
      <point x="471" y="1053"/>
      <point x="437" y="1029"/>
      <point x="385" y="1029" type="qcurve" smooth="yes"/>
      <point x="332" y="1029"/>
      <point x="286" y="1053"/>
      <point x="286" y="1077" type="qcurve" smooth="yes"/>
      <point x="286" y="1230" type="line" smooth="yes"/>
      <point x="286.0" y="1246.0" name="inserted"/>
      <point x="301.5" y="1268.5"/>
      <point x="317" y="1275" type="qcurve" smooth="yes"/>
      <point x="381" y="1303"/>
      <point x="540" y="1334"/>
      <point x="622" y="1334" type="qcurve" smooth="yes"/>
      <point x="778" y="1334"/>
      <point x="942" y="1202"/>
      <point x="942" y="1084" type="qcurve" smooth="yes"/>
      <point x="942" y="1019"/>
      <point x="877" y="934"/>
      <point x="820" y="907" type="qcurve"/>
      <point x="883" y="884"/>
      <point x="954" y="788"/>
      <point x="954" y="718" type="qcurve" smooth="yes"/>
      <point x="954" y="591"/>
      <point x="768" y="465"/>
      <point x="603" y="465" type="qcurve" smooth="yes"/>
      <point x="566" y="465"/>
      <point x="487" y="473"/>
      <point x="449.5" y="480.0" type="qcurve" smooth="yes" name="inserted"/>
      <point x="412" y="487"/>
      <point x="342" y="507"/>
      <point x="314" y="519" type="qcurve" smooth="yes"/>
      <point x="288" y="530"/>
      <point x="275" y="581"/>
      <point x="290" y="623" type="qcurve" smooth="yes"/>
      <point x="305" y="664"/>
      <point x="343" y="698"/>
      <point x="362" y="690" type="qcurve" smooth="yes"/>
      <point x="413" y="669"/>
      <point x="537" y="638"/>
      <point x="594" y="638" type="qcurve" smooth="yes"/>
      <point x="674" y="638"/>
      <point x="742" y="684"/>
      <point x="742" y="724" type="qcurve" smooth="yes"/>
      <point x="742.0" y="767.5" name="inserted"/>
      <point x="688.5" y="811.0"/>
      <point x="635" y="811" type="qcurve" smooth="yes"/>
      <point x="542" y="811" type="line" smooth="yes"/>
      <point x="519" y="811"/>
      <point x="494" y="849"/>
      <point x="494" y="897" type="qcurve" smooth="yes"/>
      <point x="494" y="945"/>
      <point x="519" y="983"/>
      <point x="542" y="983" type="qcurve" smooth="yes"/>
      <point x="616" y="983" type="line" smooth="yes"/>
      <point x="678.0" y="983.0" name="inserted"/>
      <point x="740.0" y="1028.5"/>
      <point x="740" y="1074" type="qcurve" smooth="yes"/>
      <point x="740" y="1115"/>
      <point x="673" y="1161"/>
      <point x="607" y="1161" type="qcurve" smooth="yes"/>
      <point x="575" y="1161"/>
      <point x="506" y="1148"/>
      <point x="471" y="1135" type="qcurve"/>
    </contour>
  </outline>
</glyph>
<glyph name="paragraph" format="1">
  <advance width="1228"/>
  <unicode hex="00B6"/>
  <outline>
    <contour>
      <point x="639" y="982" type="line"/>
      <point x="639" y="-352" type="line" smooth="yes"/>
      <point x="639" y="-386"/>
      <point x="584" y="-415"/>
      <point x="527" y="-415" type="qcurve" smooth="yes"/>
      <point x="471" y="-415"/>
      <point x="429" y="-386"/>
      <point x="429" y="-352" type="qcurve" smooth="yes"/>
      <point x="429" y="440" type="line"/>
      <point x="355" y="451"/>
      <point x="234" y="511"/>
      <point x="191.0" y="558.5" type="qcurve" smooth="yes" name="inserted"/>
      <point x="148" y="606"/>
      <point x="101" y="732"/>
      <point x="101" y="809" type="qcurve" smooth="yes"/>
      <point x="101" y="898"/>
      <point x="162" y="1039"/>
      <point x="217.5" y="1087.5" type="qcurve" smooth="yes" name="inserted"/>
      <point x="273" y="1136"/>
      <point x="427" y="1187"/>
      <point x="519" y="1187" type="qcurve" smooth="yes"/>
      <point x="1075" y="1187" type="line" smooth="yes"/>
      <point x="1092" y="1187"/>
      <point x="1116" y="1179"/>
      <point x="1123.5" y="1167.5" type="qcurve" smooth="yes" name="inserted"/>
      <point x="1131" y="1156"/>
      <point x="1138" y="1116"/>
      <point x="1138" y="1084" type="qcurve" smooth="yes"/>
      <point x="1138" y="1052"/>
      <point x="1131" y="1012"/>
      <point x="1123.5" y="1001.0" type="qcurve" smooth="yes" name="inserted"/>
      <point x="1116" y="990"/>
      <point x="1092" y="982"/>
      <point x="1075" y="982" type="qcurve" smooth="yes"/>
      <point x="1009" y="982" type="line"/>
      <point x="1009" y="-352" type="line" smooth="yes"/>
      <point x="1009" y="-386"/>
      <point x="954" y="-415"/>
      <point x="897" y="-415" type="qcurve" smooth="yes"/>
      <point x="841" y="-415"/>
      <point x="799" y="-386"/>
      <point x="799" y="-352" type="qcurve" smooth="yes"/>
      <point x="799" y="982" type="line"/>
    </contour>
  </outline>
</glyph>
<glyph name="periodcentered" format="1">
  <advance width="1228"/>
  <unicode hex="00B7"/>
  <outline>
    <contour>
      <point x="406" y="586" type="qcurve" smooth="yes"/>
      <point x="406" y="629"/>
      <point x="439" y="705"/>
      <point x="467.0" y="733.0" type="qcurve" smooth="yes" name="inserted"/>
      <point x="495" y="761"/>
      <point x="571" y="794"/>
      <point x="614" y="794" type="qcurve" smooth="yes"/>
      <point x="657" y="794"/>
      <point x="733" y="761"/>
      <point x="761.0" y="733.0" type="qcurve" smooth="yes" name="inserted"/>
      <point x="789" y="705"/>
      <point x="822" y="629"/>
      <point x="822" y="586" type="qcurve" smooth="yes"/>
      <point x="822" y="543"/>
      <point x="789" y="467"/>
      <point x="761.0" y="439.0" type="qcurve" smooth="yes" name="inserted"/>
      <point x="733" y="411"/>
      <point x="657" y="378"/>
      <point x="614" y="378" type="qcurve" smooth="yes"/>
      <point x="571" y="378"/>
      <point x="495" y="411"/>
      <point x="467.0" y="439.0" type="qcurve" smooth="yes" name="inserted"/>
      <point x="439" y="467"/>
      <point x="406" y="543"/>
    </contour>
  </outline>
</glyph>
<glyph name="cedilla" format="1">
  <advance width="1228"/>
  <unicode hex="00B8"/>
  <outline>
    <contour>
      <point x="684" y="28" type="line"/>
      <point x="684" y="-93" type="line"/>
      <point x="742" y="-91"/>
      <point x="828" y="-117"/>
      <point x="855.5" y="-142.0" type="qcurve" smooth="yes" name="inserted"/>
      <point x="883" y="-167"/>
      <point x="910" y="-238"/>
      <point x="910" y="-281" type="qcurve" smooth="yes"/>
      <point x="910" y="-372"/>
      <point x="769" y="-472"/>
      <point x="631" y="-472" type="qcurve" smooth="yes"/>
      <point x="556" y="-472"/>
      <point x="425" y="-450"/>
      <point x="372" y="-430" type="qcurve" smooth="yes"/>
      <point x="353" y="-422"/>
      <point x="350" y="-380"/>
      <point x="361" y="-348" type="qcurve" smooth="yes"/>
      <point x="374" y="-313"/>
      <point x="405" y="-282"/>
      <point x="425" y="-288" type="qcurve"/>
      <point x="464" y="-303"/>
      <point x="538" y="-322"/>
      <point x="588" y="-322" type="qcurve" smooth="yes"/>
      <point x="631.0" y="-322.0" name="inserted"/>
      <point x="674.0" y="-295.5"/>
      <point x="674" y="-269" type="qcurve" smooth="yes"/>
      <point x="674" y="-248"/>
      <point x="652" y="-225"/>
      <point x="635.0" y="-219.5" type="qcurve" smooth="yes" name="inserted"/>
      <point x="618" y="-214"/>
      <point x="573" y="-216"/>
      <point x="551" y="-221" type="qcurve" smooth="yes"/>
      <point x="534" y="-225"/>
      <point x="509" y="-206"/>
      <point x="509" y="-180" type="qcurve" smooth="yes"/>
      <point x="509" y="28" type="line"/>
    </contour>
  </outline>
</glyph>
<glyph name="onesuperior" format="1">
  <advance width="1228"/>
  <unicode hex="00B9"/>
  <outline>
    <contour>
      <point x="542" y="1108" type="line"/>
      <point x="385" y="1056" type="line" smooth="yes"/>
      <point x="358" y="1047"/>
      <point x="315" y="1069"/>
      <point x="299" y="1117" type="qcurve" smooth="yes"/>
      <point x="285" y="1159"/>
      <point x="298" y="1209"/>
      <point x="330" y="1220" type="qcurve" smooth="yes"/>
      <point x="653" y="1329" type="line" smooth="yes"/>
      <point x="669" y="1335"/>
      <point x="699" y="1335"/>
      <point x="711.0" y="1328.5" type="qcurve" smooth="yes" name="inserted"/>
      <point x="723" y="1322"/>
      <point x="737" y="1296"/>
      <point x="737" y="1275" type="qcurve" smooth="yes"/>
      <point x="737" y="653" type="line"/>
      <point x="918" y="653" type="line" smooth="yes"/>
      <point x="946" y="653"/>
      <point x="970" y="613"/>
      <point x="970" y="568" type="qcurve" smooth="yes"/>
      <point x="970" y="523"/>
      <point x="946" y="483"/>
      <point x="918" y="483" type="qcurve" smooth="yes"/>
      <point x="354" y="483" type="line" smooth="yes"/>
      <point x="325" y="483"/>
      <point x="303" y="523"/>
      <point x="303" y="568" type="qcurve" smooth="yes"/>
      <point x="303" y="613"/>
      <point x="326" y="653"/>
      <point x="354" y="653" type="qcurve" smooth="yes"/>
      <point x="542" y="653" type="line"/>
    </contour>
  </outline>
</glyph>
<glyph name="ordmasculine" format="1">
  <advance width="1228"/>
  <unicode hex="00BA"/>
  <outline>
    <contour>
      <point x="614" y="465" type="qcurve" smooth="yes"/>
      <point x="525" y="465"/>
      <point x="381" y="521"/>
      <point x="330.0" y="570.5" type="qcurve" smooth="yes" name="inserted"/>
      <point x="279" y="620"/>
      <point x="224" y="756"/>
      <point x="224" y="837" type="qcurve" smooth="yes"/>
      <point x="224" y="918"/>
      <point x="279" y="1054"/>
      <point x="330.0" y="1103.5" type="qcurve" smooth="yes" name="inserted"/>
      <point x="381" y="1153"/>
      <point x="525" y="1209"/>
      <point x="614" y="1209" type="qcurve" smooth="yes"/>
      <point x="703" y="1209"/>
      <point x="847" y="1153"/>
      <point x="898.0" y="1103.5" type="qcurve" smooth="yes" name="inserted"/>
      <point x="949" y="1054"/>
      <point x="1004" y="918"/>
      <point x="1004" y="837" type="qcurve" smooth="yes"/>
      <point x="1004" y="756"/>
      <point x="949" y="620"/>
      <point x="898.0" y="570.5" type="qcurve" smooth="yes" name="inserted"/>
      <point x="847" y="521"/>
      <point x="703" y="465"/>
    </contour>
    <contour>
      <point x="614" y="1035" type="qcurve" smooth="yes"/>
      <point x="572" y="1035"/>
      <point x="504" y="1007"/>
      <point x="480.0" y="981.0" type="qcurve" smooth="yes" name="inserted"/>
      <point x="456" y="955"/>
      <point x="430" y="882"/>
      <point x="430" y="837" type="qcurve" smooth="yes"/>
      <point x="430" y="792"/>
      <point x="456" y="719"/>
      <point x="480.0" y="693.5" type="qcurve" smooth="yes" name="inserted"/>
      <point x="504" y="668"/>
      <point x="572" y="640"/>
      <point x="614" y="640" type="qcurve" smooth="yes"/>
      <point x="699" y="640"/>
      <point x="798" y="746"/>
      <point x="798" y="837" type="qcurve" smooth="yes"/>
      <point x="798" y="928"/>
      <point x="699" y="1035"/>
    </contour>
  </outline>
</glyph>
<glyph name="Ccedilla" format="1">
  <advance width="1228"/>
  <unicode hex="00C7"/>
  <outline>
    <contour>
      <point x="1081" y="84" type="qcurve" smooth="yes"/>
      <point x="990.5" y="39.0" name="inserted"/>
      <point x="807.0" y="-13.0"/>
      <point x="714" y="-20" type="qcurve"/>
      <point x="714" y="-93" type="line"/>
      <point x="772" y="-91"/>
      <point x="858" y="-117"/>
      <point x="885.5" y="-142.0" type="qcurve" smooth="yes" name="inserted"/>
      <point x="913" y="-167"/>
      <point x="940" y="-238"/>
      <point x="940" y="-281" type="qcurve" smooth="yes"/>
      <point x="940" y="-372"/>
      <point x="799" y="-472"/>
      <point x="661" y="-472" type="qcurve" smooth="yes"/>
      <point x="586" y="-472"/>
      <point x="455" y="-450"/>
      <point x="402" y="-430" type="qcurve" smooth="yes"/>
      <point x="383" y="-422"/>
      <point x="380" y="-380"/>
      <point x="391" y="-348" type="qcurve" smooth="yes"/>
      <point x="404" y="-313"/>
      <point x="435" y="-282"/>
      <point x="455" y="-288" type="qcurve"/>
      <point x="494" y="-303"/>
      <point x="568" y="-322"/>
      <point x="618" y="-322" type="qcurve" smooth="yes"/>
      <point x="661.0" y="-322.0" name="inserted"/>
      <point x="704.0" y="-295.5"/>
      <point x="704" y="-269" type="qcurve" smooth="yes"/>
      <point x="704" y="-248"/>
      <point x="682" y="-225"/>
      <point x="665.0" y="-219.5" type="qcurve" smooth="yes" name="inserted"/>
      <point x="648" y="-214"/>
      <point x="603" y="-216"/>
      <point x="581" y="-221" type="qcurve" smooth="yes"/>
      <point x="564" y="-225"/>
      <point x="539" y="-206"/>
      <point x="539" y="-180" type="qcurve" smooth="yes"/>
      <point x="539" y="-11" type="line"/>
      <point x="439" y="7"/>
      <point x="278" y="107"/>
      <point x="221.0" y="184.5" type="qcurve" smooth="yes" name="inserted"/>
      <point x="164" y="262"/>
      <point x="103" y="469"/>
      <point x="103" y="594" type="qcurve" smooth="yes"/>
      <point x="103" y="736"/>
      <point x="181" y="964"/>
      <point x="251.0" y="1044.0" type="qcurve" smooth="yes" name="inserted"/>
      <point x="321" y="1124"/>
      <point x="511" y="1209"/>
      <point x="624" y="1209" type="qcurve" smooth="yes"/>
      <point x="718" y="1209"/>
      <point x="845" y="1141"/>
      <point x="884" y="1083" type="qcurve"/>
      <point x="884" y="1146" type="line" smooth="yes"/>
      <point x="884" y="1180"/>
      <point x="942" y="1209"/>
      <point x="1006" y="1209" type="qcurve" smooth="yes"/>
      <point x="1038" y="1209"/>
      <point x="1080" y="1202"/>
      <point x="1092.0" y="1194.5" type="qcurve" smooth="yes" name="inserted"/>
      <point x="1104" y="1187"/>
      <point x="1114" y="1163"/>
      <point x="1114" y="1146" type="qcurve" smooth="yes"/>
      <point x="1114" y="762" type="line" smooth="yes"/>
      <point x="1114" y="728"/>
      <point x="1054" y="699"/>
      <point x="982" y="699" type="qcurve" smooth="yes"/>
      <point x="946" y="699"/>
      <point x="901" y="706"/>
      <point x="887.5" y="713.5" type="qcurve" smooth="yes" name="inserted"/>
      <point x="874" y="721"/>
      <point x="864" y="745"/>
      <point x="864" y="762" type="qcurve" smooth="yes"/>
      <point x="864" y="810"/>
      <point x="837" y="891"/>
      <point x="810.5" y="920.5" type="qcurve" smooth="yes" name="inserted"/>
      <point x="784" y="950"/>
      <point x="706" y="982"/>
      <point x="654" y="982" type="qcurve" smooth="yes"/>
      <point x="513" y="982"/>
      <point x="371" y="781"/>
      <point x="371" y="594" type="qcurve" smooth="yes"/>
      <point x="371" y="407"/>
      <point x="523" y="205"/>
      <point x="664" y="205" type="qcurve" smooth="yes"/>
      <point x="756" y="205"/>
      <point x="918" y="256"/>
      <point x="1005" y="300" type="qcurve" smooth="yes"/>
      <point x="1035" y="315"/>
      <point x="1091" y="285"/>
      <point x="1113" y="225" type="qcurve" smooth="yes"/>
      <point x="1135" y="164"/>
      <point x="1113" y="100"/>
    </contour>
  </outline>
</glyph>
<glyph name="Eth" format="1">
  <advance width="1228"/>
  <unicode hex="00D0"/>
  <outline>
    <contour>
      <point x="220" y="494" type="line"/>
      <point x="103" y="494" type="line" smooth="yes"/>
      <point x="86" y="494"/>
      <point x="62" y="502"/>
      <point x="54.5" y="514.0" type="qcurve" smooth="yes" name="inserted"/>
      <point x="47" y="526"/>
      <point x="40" y="570"/>
      <point x="40" y="606" type="qcurve" smooth="yes"/>
      <point x="40" y="642"/>
      <point x="47" y="686"/>
      <point x="54.5" y="698.0" type="qcurve" smooth="yes" name="inserted"/>
      <point x="62" y="710"/>
      <point x="86" y="719"/>
      <point x="103" y="719" type="qcurve" smooth="yes"/>
      <point x="220" y="719" type="line"/>
      <point x="220" y="982" type="line"/>
      <point x="123" y="982" type="line" smooth="yes"/>
      <point x="106" y="982"/>
      <point x="82" y="990"/>
      <point x="74.5" y="1001.0" type="qcurve" smooth="yes" name="inserted"/>
      <point x="67" y="1012"/>
      <point x="60" y="1052"/>
      <point x="60" y="1084" type="qcurve" smooth="yes"/>
      <point x="60" y="1116"/>
      <point x="67" y="1156"/>
      <point x="74.5" y="1167.5" type="qcurve" smooth="yes" name="inserted"/>
      <point x="82" y="1179"/>
      <point x="106" y="1187"/>
      <point x="123" y="1187" type="qcurve" smooth="yes"/>
      <point x="594" y="1187" type="line" smooth="yes"/>
      <point x="725" y="1187"/>
      <point x="933" y="1109"/>
      <point x="1005.5" y="1033.0" type="qcurve" smooth="yes" name="inserted"/>
      <point x="1078" y="957"/>
      <point x="1155" y="736"/>
      <point x="1155" y="594" type="qcurve" smooth="yes"/>
      <point x="1155" y="451"/>
      <point x="1078" y="230"/>
      <point x="1005.5" y="154.5" type="qcurve" smooth="yes" name="inserted"/>
      <point x="933" y="79"/>
      <point x="725" y="0"/>
      <point x="594" y="0" type="qcurve" smooth="yes"/>
      <point x="123" y="0" type="line" smooth="yes"/>
      <point x="106" y="0"/>
      <point x="82" y="8"/>
      <point x="74.5" y="19.0" type="qcurve" smooth="yes" name="inserted"/>
      <point x="67" y="30"/>
      <point x="60" y="70"/>
      <point x="60" y="102" type="qcurve" smooth="yes"/>
      <point x="60" y="134"/>
      <point x="67" y="174"/>
      <point x="74.5" y="185.5" type="qcurve" smooth="yes" name="inserted"/>
      <point x="82" y="197"/>
      <point x="106" y="205"/>
      <point x="123" y="205" type="qcurve" smooth="yes"/>
      <point x="220" y="205" type="line"/>
    </contour>
    <contour>
      <point x="574" y="215" type="line" smooth="yes"/>
      <point x="730" y="215"/>
      <point x="887" y="407"/>
      <point x="887" y="594" type="qcurve" smooth="yes"/>
      <point x="887" y="781"/>
      <point x="730" y="972"/>
      <point x="574" y="972" type="qcurve" smooth="yes"/>
      <point x="470" y="972" type="line"/>
      <point x="470" y="719" type="line"/>
      <point x="605" y="719" type="line" smooth="yes"/>
      <point x="622" y="719"/>
      <point x="646" y="710"/>
      <point x="653.5" y="698.0" type="qcurve" smooth="yes" name="inserted"/>
      <point x="661" y="686"/>
      <point x="668" y="642"/>
      <point x="668" y="606" type="qcurve" smooth="yes"/>
      <point x="668" y="570"/>
      <point x="661" y="526"/>
      <point x="653.5" y="514.0" type="qcurve" smooth="yes" name="inserted"/>
      <point x="646" y="502"/>
      <point x="622" y="494"/>
      <point x="605" y="494" type="qcurve" smooth="yes"/>
      <point x="470" y="494" type="line"/>
      <point x="470" y="215" type="line"/>
    </contour>
  </outline>
</glyph>
<glyph name="multiply" format="1">
  <advance width="1228"/>
  <unicode hex="00D7"/>
  <outline>
    <contour>
      <point x="455" y="582" type="line"/>
      <point x="235" y="802" type="line" smooth="yes"/>
      <point x="223" y="814"/>
      <point x="213" y="837"/>
      <point x="216.0" y="851.0" type="qcurve" smooth="yes" name="inserted"/>
      <point x="219" y="865"/>
      <point x="245" y="901"/>
      <point x="270" y="926" type="qcurve" smooth="yes"/>
      <point x="295" y="951"/>
      <point x="331" y="977"/>
      <point x="345.5" y="980.5" type="qcurve" smooth="yes" name="inserted"/>
      <point x="360" y="984"/>
      <point x="382" y="973"/>
      <point x="394" y="961" type="qcurve" smooth="yes"/>
      <point x="614" y="741" type="line"/>
      <point x="834" y="961" type="line" smooth="yes"/>
      <point x="846" y="973"/>
      <point x="868" y="984"/>
      <point x="882.5" y="980.5" type="qcurve" smooth="yes" name="inserted"/>
      <point x="897" y="977"/>
      <point x="933" y="951"/>
      <point x="958" y="926" type="qcurve" smooth="yes"/>
      <point x="983" y="901"/>
      <point x="1009" y="865"/>
      <point x="1012.0" y="851.0" type="qcurve" smooth="yes" name="inserted"/>
      <point x="1015" y="837"/>
      <point x="1005" y="814"/>
      <point x="993" y="802" type="qcurve" smooth="yes"/>
      <point x="773" y="582" type="line"/>
      <point x="993" y="362" type="line" smooth="yes"/>
      <point x="1005" y="350"/>
      <point x="1016" y="328"/>
      <point x="1012.5" y="313.5" type="qcurve" smooth="yes" name="inserted"/>
      <point x="1009" y="299"/>
      <point x="983" y="263"/>
      <point x="958" y="238" type="qcurve" smooth="yes"/>
      <point x="933" y="213"/>
      <point x="897" y="187"/>
      <point x="883.0" y="184.0" type="qcurve" smooth="yes" name="inserted"/>
      <point x="869" y="181"/>
      <point x="846" y="191"/>
      <point x="834" y="203" type="qcurve" smooth="yes"/>
      <point x="614" y="423" type="line"/>
      <point x="394" y="203" type="line" smooth="yes"/>
      <point x="382" y="191"/>
      <point x="359" y="181"/>
      <point x="345.0" y="184.0" type="qcurve" smooth="yes" name="inserted"/>
      <point x="331" y="187"/>
      <point x="295" y="213"/>
      <point x="270" y="238" type="qcurve" smooth="yes"/>
      <point x="245" y="263"/>
      <point x="219" y="299"/>
      <point x="215.5" y="313.5" type="qcurve" smooth="yes" name="inserted"/>
      <point x="212" y="328"/>
      <point x="223" y="350"/>
      <point x="235" y="362" type="qcurve" smooth="yes"/>
    </contour>
  </outline>
</glyph>
<glyph name="Thorn" format="1">
  <advance width="1228"/>
  <unicode hex="00DE"/>
  <outline>
    <contour>
      <point x="330" y="982" type="line"/>
      <point x="183" y="982" type="line" smooth="yes"/>
      <point x="166" y="982"/>
      <point x="142" y="990"/>
      <point x="134.5" y="1001.0" type="qcurve" smooth="yes" name="inserted"/>
      <point x="127" y="1012"/>
      <point x="120" y="1052"/>
      <point x="120" y="1084" type="qcurve" smooth="yes"/>
      <point x="120" y="1116"/>
      <point x="127" y="1156"/>
      <point x="134.5" y="1167.5" type="qcurve" smooth="yes" name="inserted"/>
      <point x="142" y="1179"/>
      <point x="166" y="1187"/>
      <point x="183" y="1187" type="qcurve" smooth="yes"/>
      <point x="767" y="1187" type="line" smooth="yes"/>
      <point x="784" y="1187"/>
      <point x="808" y="1179"/>
      <point x="815.5" y="1167.5" type="qcurve" smooth="yes" name="inserted"/>
      <point x="823" y="1156"/>
      <point x="830" y="1116"/>
      <point x="830" y="1084" type="qcurve" smooth="yes"/>
      <point x="830" y="1052"/>
      <point x="823" y="1012"/>
      <point x="815.5" y="1001.0" type="qcurve" smooth="yes" name="inserted"/>
      <point x="808" y="990"/>
      <point x="784" y="982"/>
      <point x="767" y="982" type="qcurve" smooth="yes"/>
      <point x="580" y="982" type="line"/>
      <point x="580" y="896" type="line"/>
      <point x="720" y="896" type="line" smooth="yes"/>
      <point x="814" y="896"/>
      <point x="952" y="854"/>
      <point x="997.5" y="815.0" type="qcurve" smooth="yes" name="inserted"/>
      <point x="1043" y="776"/>
      <point x="1087" y="664"/>
      <point x="1087" y="594" type="qcurve" smooth="yes"/>
      <point x="1087" y="524"/>
      <point x="1043" y="412"/>
      <point x="997.5" y="372.5" type="qcurve" smooth="yes" name="inserted"/>
      <point x="952" y="333"/>
      <point x="814" y="291"/>
      <point x="720" y="291" type="qcurve" smooth="yes"/>
      <point x="580" y="291" type="line"/>
      <point x="580" y="205" type="line"/>
      <point x="767" y="205" type="line" smooth="yes"/>
      <point x="784" y="205"/>
      <point x="808" y="197"/>
      <point x="815.5" y="185.5" type="qcurve" smooth="yes" name="inserted"/>
      <point x="823" y="174"/>
      <point x="830" y="134"/>
      <point x="830" y="102" type="qcurve" smooth="yes"/>
      <point x="830" y="70"/>
      <point x="823" y="30"/>
      <point x="815.5" y="19.0" type="qcurve" smooth="yes" name="inserted"/>
      <point x="808" y="8"/>
      <point x="784" y="0"/>
      <point x="767" y="0" type="qcurve" smooth="yes"/>
      <point x="183" y="0" type="line" smooth="yes"/>
      <point x="166" y="0"/>
      <point x="142" y="8"/>
      <point x="134.5" y="19.0" type="qcurve" smooth="yes" name="inserted"/>
      <point x="127" y="30"/>
      <point x="120" y="70"/>
      <point x="120" y="102" type="qcurve" smooth="yes"/>
      <point x="120" y="134"/>
      <point x="127" y="174"/>
      <point x="134.5" y="185.5" type="qcurve" smooth="yes" name="inserted"/>
      <point x="142" y="197"/>
      <point x="166" y="205"/>
      <point x="183" y="205" type="qcurve" smooth="yes"/>
      <point x="330" y="205" type="line"/>
    </contour>
    <contour>
      <point x="689" y="496" type="line" smooth="yes"/>
      <point x="762" y="496"/>
      <point x="829" y="542"/>
      <point x="829" y="594" type="qcurve" smooth="yes"/>
      <point x="829" y="646"/>
      <point x="762" y="691"/>
      <point x="689" y="691" type="qcurve" smooth="yes"/>
      <point x="580" y="691" type="line"/>
      <point x="580" y="496" type="line"/>
    </contour>
  </outline>
</glyph>
<glyph name="ae" format="1">
  <advance width="1228"/>
  <unicode hex="00E6"/>
  <outline>
    <contour>
      <point x="509" y="390" type="line"/>
      <point x="455" y="393"/>
      <point x="364" y="390"/>
      <point x="331.0" y="379.5" type="qcurve" smooth="yes" name="inserted"/>
      <point x="298" y="369"/>
      <point x="260" y="324"/>
      <point x="260" y="285" type="qcurve" smooth="yes"/>
      <point x="260" y="240"/>
      <point x="308" y="189"/>
      <point x="358" y="189" type="qcurve" smooth="yes"/>
      <point x="394" y="189"/>
      <point x="450" y="215"/>
      <point x="469.5" y="237.5" type="qcurve" smooth="yes" name="inserted"/>
      <point x="489" y="260"/>
      <point x="509" y="322"/>
      <point x="509" y="358" type="qcurve" smooth="yes"/>
    </contour>
    <contour>
      <point x="968" y="565" type="line"/>
      <point x="963" y="637"/>
      <point x="909" y="719"/>
      <point x="858" y="719" type="qcurve" smooth="yes"/>
      <point x="797" y="719"/>
      <point x="735" y="643"/>
      <point x="724" y="565" type="qcurve"/>
    </contour>
    <contour>
      <point x="724" y="370" type="line"/>
      <point x="735" y="289"/>
      <point x="801" y="205"/>
      <point x="858" y="205" type="qcurve" smooth="yes"/>
      <point x="886" y="205"/>
      <point x="938" y="211"/>
      <point x="964.5" y="217.0" type="qcurve" smooth="yes" name="inserted"/>
      <point x="991" y="223"/>
      <point x="1045" y="242"/>
      <point x="1076" y="255" type="qcurve" smooth="yes"/>
      <point x="1095" y="263"/>
      <point x="1125" y="259"/>
      <point x="1137.0" y="248.5" type="qcurve" smooth="yes" name="inserted"/>
      <point x="1149" y="238"/>
      <point x="1168" y="202"/>
      <point x="1176" y="179" type="qcurve" smooth="yes"/>
      <point x="1195" y="125"/>
      <point x="1181" y="65"/>
      <point x="1145" y="49" type="qcurve" smooth="yes"/>
      <point x="1077" y="20"/>
      <point x="924" y="-22"/>
      <point x="843" y="-22" type="qcurve" smooth="yes"/>
      <point x="760" y="-22"/>
      <point x="642" y="43"/>
      <point x="603" y="102" type="qcurve"/>
      <point x="555" y="39"/>
      <point x="420" y="-22"/>
      <point x="335" y="-22" type="qcurve" smooth="yes"/>
      <point x="267" y="-22"/>
      <point x="155" y="18"/>
      <point x="115.5" y="56.5" type="qcurve" smooth="yes" name="inserted"/>
      <point x="76" y="95"/>
      <point x="32" y="205"/>
      <point x="32" y="275" type="qcurve" smooth="yes"/>
      <point x="32" y="362"/>
      <point x="95" y="481"/>
      <point x="148.5" y="517.5" type="qcurve" smooth="yes" name="inserted"/>
      <point x="202" y="554"/>
      <point x="341" y="587"/>
      <point x="417" y="587" type="qcurve" smooth="yes"/>
      <point x="440" y="587"/>
      <point x="486" y="584"/>
      <point x="509" y="582" type="qcurve"/>
      <point x="509" y="588" type="line" smooth="yes"/>
      <point x="509" y="651"/>
      <point x="439" y="719"/>
      <point x="365" y="719" type="qcurve" smooth="yes"/>
      <point x="318" y="719"/>
      <point x="232" y="689"/>
      <point x="189" y="667" type="qcurve" smooth="yes"/>
      <point x="158" y="651"/>
      <point x="103" y="684"/>
      <point x="78" y="738" type="qcurve" smooth="yes"/>
      <point x="57" y="784"/>
      <point x="64" y="849"/>
      <point x="96" y="868" type="qcurve" smooth="yes"/>
      <point x="162" y="906"/>
      <point x="314" y="946"/>
      <point x="393" y="946" type="qcurve" smooth="yes"/>
      <point x="478" y="946"/>
      <point x="596" y="897"/>
      <point x="634" y="852" type="qcurve"/>
      <point x="674" y="897"/>
      <point x="785" y="946"/>
      <point x="858" y="946" type="qcurve" smooth="yes"/>
      <point x="960" y="946"/>
      <point x="1090" y="869"/>
      <point x="1127.5" y="800.5" type="qcurve" smooth="yes" name="inserted"/>
      <point x="1165" y="732"/>
      <point x="1193" y="543"/>
      <point x="1193" y="432" type="qcurve" smooth="yes"/>
      <point x="1193" y="398"/>
      <point x="1164" y="370"/>
      <point x="1130" y="370" type="qcurve" smooth="yes"/>
    </contour>
  </outline>
</glyph>
